<?xml version="1.0" encoding="utf-8"?>
<!-- Generator: Adobe Illustrator 24.3.0, SVG Export Plug-In . SVG Version: 6.00 Build 0)  -->
<svg version="1.1" id="Layer_1" xmlns="http://www.w3.org/2000/svg" xmlns:xlink="http://www.w3.org/1999/xlink" x="0px" y="0px"
	 viewBox="0 0 5406.3 1076.6" style="enable-background:new 0 0 5406.3 1076.6;" xml:space="preserve">
<style type="text/css">
	.st0{fill:#E0E0E0;}
</style>
<g>
	<path class="st0" d="M822.3,470.8L649.3,212H430.9l-43.7,65.1l-0.1,0.1L257.9,470.1c-23,34.3-75.2,62.2-116.4,62.4l-76.6,0.3h-0.1
		C32.9,532.8,7,506.9,7,475c0,0,0,0,0,0v-71.3C7,361.9,25.8,299.8,48.8,265L178.7,69.3C201.5,34.9,253.6,7,294.8,7h567.3V0H216.3
		L0,325.9V540l64.9-0.2h0.2l155-0.5l43.6-65.1l0.1-0.1L393,281.2c23-34.3,75.2-62.1,116.4-62.1h61.3c41.2,0,93.4,27.9,116.4,62.2
		L816.7,475c23.1,34.7,41.9,96.6,41.9,138.2v62.4c0,41.7-18.8,103.7-42,138.4l-129.4,193.5c-22.9,34.2-74.9,61.9-116.1,61.9H571
		l-271.1-0.8c-41.2-0.1-93.6-27.8-116.9-61.7L6.4,749.1l-2.9,2l0,0l-2.9,2L177,1010.6l0.1,0.2l44.2,64.5l349.4,1h0.2l78.3,0.2
		l173.1-258.8l0.1-0.2l43.1-64.4V535.4l-43-64.3L822.3,470.8z"/>
	<path class="st0" d="M3129.2,3.5V1012c0,31.8-25.8,57.6-57.6,57.6h-76.4c-41.1,0-93.1-27.8-115.9-62l-129.3-194
		c-23-34.6-41.6-96.3-41.6-137.8V536.5L2536.3,279c-23.1-34.5-41.9-96.4-41.9-138V0h-220.9v1073.1h7V64.6
		c0-31.8,25.8-57.6,57.6-57.6h91.7c31.8,0,57.6,25.8,57.6,57.6v153.9L2659.6,476c23.1,34.5,41.9,96.4,41.9,138v139.3l42.8,64.2
		l0.2,0.3l172.6,258.9h219.3V3.5H3129.2z"/>
	<path class="st0" d="M1310.7,65.1c0,0.1-0.1,0.1-0.1,0.2l-128.7,194.5l0,0l-43.2,65.3l86.7,174c12.2,24.7,12.3,53.6,0.2,78.3
		l-86.3,174.9l-0.2,77.1v0.1l-0.7,247h859.2v-7H1203c-31.8,0-57.6-25.8-57.6-57.6c0,0,0-0.1,0-0.1l0.5-182.2
		c0.1-41.7,15.2-106,33.7-143.4l47-95.3c14.8-30.2,45.5-49.3,79.1-49.2h477.8v-7h-478c-33.5,0.1-64.1-18.8-78.9-48.8l-46.7-93.7
		c-18.3-36.7-14.8-94.3,7.8-128.6L1316.5,69c22.7-34.2,74.5-62,115.5-62h565.3V0h-643.6L1310.7,65.1z"/>
	<path class="st0" d="M4231.3,470.8l-172-257.2l-1-1.6h-218.4l-173,258.1c-23,34.3-75.2,62.2-116.4,62.4l-76.6,0.3h-0.1
		c-31.9,0-57.8-25.9-57.8-57.8l0,0v-71.3c0-41.6,18.7-103.6,41.6-138.4l130.1-196.1c22.9-34.3,74.8-62.1,116-62.1H4271V0h-645.8
		l-43.3,65.3l-0.1,0.2l-129.9,195.7l-0.1,0.2l-42.8,64.5v214l64.9-0.2h0.2l155-0.5l173-258c23-34.3,75.2-62.1,116.4-62.1h61.3
		c41.2,0,93.4,27.9,116.4,62.2l129.4,193.5c23.2,34.7,42,96.8,42,138.4v62.4c0,41.7-18.9,103.8-42,138.4L4096,1007.5
		c-22.9,34.2-74.9,61.9-116.1,61.9h-0.1l-271.1-0.8c-41.1-0.1-93.5-27.7-116.9-61.6l-176.6-257.8l-2.9,2l0,0l-2.9,2l176.4,257.5
		l0.2,0.3l44.1,64.4l349.4,1h0.2l78.3,0.2l215.7-322.5l0.6-0.9V535.4L4231.3,470.8L4231.3,470.8z"/>
	<path class="st0" d="M5406.3,1069.6H4612c-31.8,0-57.6-25.8-57.6-57.6c0-0.1,0-0.1,0-0.2l0.5-182.4c0.2-41.7,15.3-105.8,33.7-143.1
		l47-95.3c14.8-30.2,45.5-49.3,79.2-49.2h477.8v-7h-478c-33.5,0.1-64.1-18.8-78.9-48.8l-46.7-93.7c-18.3-36.7-14.8-94.3,7.8-128.5
		L4725.5,69c22.7-34.2,74.5-62,115.5-62h565.3V0h-643.7l-43.1,65.1l-0.1,0.1l-128.7,194.5l-0.1,0.1l-43.2,65.3l34.9,70.1l0.1,0.1
		l51.7,103.8c12.2,24.7,12.3,53.6,0.1,78.3l-86,174.2l-0.4,0.7l-0.2,77v0.2l-0.7,247h859.2L5406.3,1069.6z"/>
</g>
</svg>
