<svg id="Layer_1" data-name="Layer 1" xmlns="http://www.w3.org/2000/svg" viewBox="0 0 5407.33 1071.37">
  <defs>
    <style>
      .cls-1 {
        fill: #e0e0e0;
      }
    </style>
  </defs>
  <g>
    <path class="cls-1" d="M644.66,214.81H429.33l-19,28.38,0,.05L233.36,507.15c-10.42,15.49-34,28.13-52.7,28.2L.5,536V379.34c0-28.89,13-72,29-96L196.57,31.48c10.2-15.37,33.5-27.87,52-27.87H859.2v-1H214.53L28.64,282.74a.61.61,0,0,0-.07.1l-29,43.68-.08.12V537l215.57-.74L411.14,243.74c10.37-15.4,33.86-27.93,52.42-27.93H610.49c18.55,0,42,12.55,52.34,28L829.66,493.21c16,23.94,29,66.85,29,95.65V699.93c0,28.8-13,71.71-29,95.65L662.75,1045.14c-10.24,15.3-33.52,27.72-52,27.73l-356.29-1c-18.92-.06-43-12.78-53.73-28.37L.41,751l-.41.28H0l-.41.28,200.3,292.39v0l19.71,28.76,391,1.15h.14l33.88.1,215-321.38.09-.13V536.32L644.81,215Z" transform="translate(0.5 -2.61)"/>
    <path class="cls-1" d="M3131.06,3.11V1073h-180c-18.36,0-41.58-12.43-51.76-27.7L2732.67,795.34c-15.87-23.91-28.75-66.54-28.75-95.17V537.4l-29-43.32-.11-.16L2518.62,260.1c-15.88-23.87-28.78-66.46-28.78-95.06V2.61H2274.77V1073.47h1V3.61h213.07V217.33l28.95,43.32a.91.91,0,0,0,.11.16l156.24,233.82c15.87,23.87,28.78,66.46,28.78,95.07V752.51l28.89,43.35.14.21L2917.22,1074h214.84V3.11Z" transform="translate(0.5 -2.61)"/>
    <path class="cls-1" d="M1334.42,30.52l-.11.16L1156.23,299.79l0,.06-16.79,25.37,13.54,27.18.06.11,88.13,176.88a20.15,20.15,0,0,1,0,17.82l-76,154.07-.12.23-25.49,51.67,0,.1-.16,57.71v.29l-.74,262.69h856.8v-1H1139.59l.73-262c.15-31.76,11.59-80.49,25.59-109l75-152a19.93,19.93,0,0,1,18-11.18h522.41v-1H1258.85a19.94,19.94,0,0,1-17.95-11.11L1153.84,352c-7.28-14.74-5.86-37.81,3.17-51.54L1335.23,31.1c10.13-15.17,33.11-27.49,51.32-27.49h608.83v-1H1352.89Z" transform="translate(0.5 -2.61)"/>
    <path class="cls-1" d="M4241.94,492.65,4075.11,243.22l-.11-.17-18.88-28.24H3840.78l-196,292.34c-10.42,15.49-34,28.13-52.7,28.2L3412,536V379.34c0-28.89,13-72,29-96L3608,31.48c10.2-15.37,33.5-27.87,51.95-27.87h610.68v-1H3626L3440.09,282.74a.61.61,0,0,0-.07.1l-29,43.68-.08.12V537l215.57-.74,196-292.43c10.34-15.43,33.87-28,52.45-28H4022c18.48,0,41.85,12.46,52.22,27.8l167,249.7c16,24,29,66.79,29,95.55V699.93c0,28.8-13,71.71-29,95.65l-167,249.75c-10.3,15.22-33.46,27.53-51.82,27.54l-356.29-1c-18.92-.06-43-12.78-53.73-28.38L3411.86,751l-.82.56,200.3,292.39v0l19.71,28.76,391,1.15h.13l33.88.1,18.78-28.08c.05-.06.09-.13.14-.2l196-293.1.09-.13V536.32L4242,492.75A.36.36,0,0,1,4241.94,492.65Z" transform="translate(0.5 -2.61)"/>
    <path class="cls-1" d="M4764.34,2.61,4745.9,30.48a1.37,1.37,0,0,0-.13.2L4567.68,299.79l-.05.07-16.78,25.36,13.53,27.16a.83.83,0,0,1,.07.13l89.47,179.57,0,0,.62,1.25a11.19,11.19,0,0,1,0,9.87l-.61,1.23s0,0,0,.08l-77.34,156.74-.16.33L4551,753.18l0,.1-.89,320.19v.5h856.79v-1H4551l.73-261.69c.09-31.73,11.54-80.63,25.56-109.24l77.53-157.13a11,11,0,0,1,9.93-6.12h528v-1h-528a11,11,0,0,1-9.92-6.11L4565.29,352c-7.28-14.74-5.86-37.79,3.17-51.52L4746.73,31c10.15-15.14,33.09-27.42,51.27-27.42h608.83v-1Z" transform="translate(0.5 -2.61)"/>
  </g>
</svg>
