<?xml version="1.0" encoding="utf-8"?>
<!-- Generator: Adobe Illustrator 24.3.0, SVG Export Plug-In . SVG Version: 6.00 Build 0)  -->
<svg version="1.1" id="Layer_1" xmlns="http://www.w3.org/2000/svg" xmlns:xlink="http://www.w3.org/1999/xlink" x="0px" y="0px"
	 viewBox="0 0 1080 1080" style="enable-background:new 0 0 1080 1080;" xml:space="preserve">
<style type="text/css">
	.st0{opacity:0.5;fill:#0064FB;enable-background:new    ;}
	.st1{fill:none;stroke:#0064FB;stroke-miterlimit:10;}
	.st2{opacity:0.6;fill:#0064FB;enable-background:new    ;}
	.st3{opacity:0.65;fill:#0064FB;enable-background:new    ;}
	.st4{opacity:0.55;fill:#0064FB;enable-background:new    ;}
	.st5{opacity:0.75;fill:#0064FB;enable-background:new    ;}
	.st6{opacity:0.7;fill:#0064FB;enable-background:new    ;}
	.st7{opacity:0.45;fill:#0064FB;enable-background:new    ;}
	.st8{opacity:0.3;fill:#0064FB;enable-background:new    ;}
	.st9{opacity:0.35;fill:#0064FB;enable-background:new    ;}
	.st10{opacity:0.4;fill:#0064FB;enable-background:new    ;}
</style>
<g>
	<path class="st0" d="M73.5,645.6c33.9,0,61.5-14.8,61.5-33c0-18.2-27.5-33-61.5-33c-33.9,0-61.5,14.8-61.5,33
		C12,630.8,39.5,645.6,73.5,645.6z"/>
	<path class="st0" d="M172.1,751.1c40.5,0,73.3-20.5,73.3-45.7c0-25.2-32.8-45.7-73.3-45.7c-40.5,0-73.3,20.5-73.3,45.7
		C98.8,730.7,131.6,751.1,172.1,751.1z"/>
	<path class="st0" d="M92.1,544.1c29.6,0,53.5-9.1,53.5-20.3c0-11.2-24-20.3-53.5-20.3c-29.6,0-53.5,9.1-53.5,20.3
		C38.6,535.1,62.6,544.1,92.1,544.1z"/>
	<path class="st1" d="M28.4,611.9l90.3-50l6.7,50.3L28.4,611.9z"/>
	<path class="st1" d="M69.7,634.7l55.8-22.4l-97-0.3l18.9,19.5L69.7,634.7z"/>
	<path class="st1" d="M118.7,561.9l-22.6-8.6l-63.8,41.6l-3.9,17L118.7,561.9z"/>
	<path class="st1" d="M170.9,527.8l-31.8,16.3l53.3,31.2L170.9,527.8z"/>
	<path class="st1" d="M125.4,612.2l67-36.9l-53.3-31.2l-20.4,17.8L125.4,612.2z"/>
	<path class="st1" d="M170.9,527.8l-6.9-16.3l-18.7,9.7l-49.2,32.1l22.6,8.6l20.4-17.8L170.9,527.8z"/>
	<path class="st1" d="M170.9,527.8l77.4-50.5l20.2,50.7L170.9,527.8z"/>
	<path class="st1" d="M164.1,511.5l39.6-35.3l44.7,1.1l-77.4,50.5L164.1,511.5z"/>
	<path class="st1" d="M198.7,584.9l-6.3-9.6l-21.5-47.5l97.7,0.1L198.7,584.9z"/>
	<path class="st1" d="M125.4,612.2l73.3-27.3l-6.3-9.6L125.4,612.2z"/>
	<path class="st1" d="M248.3,477.3l88.1-43.2l-58.1,0.3l-43.9,21.7l-30.8,20.1L248.3,477.3z"/>
	<path class="st1" d="M198.7,584.9l75.1-38.6l-5.2-18.4L198.7,584.9z"/>
	<path class="st1" d="M307.7,539.3l-7.8-27.5L268.6,528l5.2,18.4L307.7,539.3z"/>
	<path class="st1" d="M407.6,487.2l-99.9,52.1l-7.8-27.5l107.8-47.5L407.6,487.2z"/>
	<path class="st1" d="M389.2,411.7l-52.8,22.4l-88.1,43.2l20.2,50.7l31.3-16.2l107.8-47.5L389.2,411.7z"/>
	<path class="st1" d="M377.1,393.3l12.1,18.5l-52.8,22.4l-58.1,0.3L377.1,393.3z"/>
	<path class="st1" d="M407.6,487.2l29-3.3l13.9-14.4l-8.7-17.7l-34.1,12.5L407.6,487.2z"/>
	<path class="st1" d="M389.2,411.7l47.8-31.2l4.8,71.3l-34.1,12.5L389.2,411.7z"/>
	<path class="st1" d="M377.1,393.3l29.1-19l30.8,6.3l-47.8,31.2L377.1,393.3z"/>
	<path class="st1" d="M120.7,711l89.4-56.6l7.5,52.5L120.7,711z"/>
	<path class="st1" d="M179.1,639.9l31,14.5L120.7,711L179.1,639.9z"/>
	<path class="st1" d="M142.4,732.1l24.5,2.6l50.8-27.8l-97,4.1L142.4,732.1z"/>
	<path class="st1" d="M129.6,672.2l49.5-32.3l-58.4,71l-4.2-18.2L129.6,672.2z"/>
	<path class="st1" d="M231.3,638.8l27.9,45.5l-41.5,22.7l-7.5-52.5L231.3,638.8z"/>
	<path class="st1" d="M216.2,615.7l15.1,23.1l-21.1,15.6l-31-14.5L216.2,615.7z"/>
	<path class="st1" d="M265.4,621.7l-34.1,17l27.9,45.5L265.4,621.7z"/>
	<path class="st1" d="M246,596.2l-29.8,19.5l15.1,23.1L246,596.2z"/>
	<path class="st1" d="M356.9,635.9l-97.7,48.3l6.2-62.5L356.9,635.9z"/>
	<path class="st1" d="M332,540.1l-66.6,81.6l-34.1,17l14.7-42.5L332,540.1z"/>
	<path class="st1" d="M354,563.9l-22-23.7l-66.6,81.6L354,563.9z"/>
	<path class="st1" d="M385.1,611.1l-31-47.2l-88.7,57.9l91.6,14.1L385.1,611.1z"/>
	<path class="st1" d="M413.4,608.4l-26.6,15.2l-29.9,12.2l28.1-24.8L413.4,608.4z"/>
	<path class="st1" d="M476,496.4l-122,67.4l-22-23.7l104.6-56.2L476,496.4z"/>
	<path class="st1" d="M514.2,550.2l-129.2,60.9l-31-47.2l122-67.4L514.2,550.2z"/>
	<path class="st1" d="M585.8,555.7l-172.4,52.8l-28.4,2.6l129.2-60.9l37.8-10.3L585.8,555.7z"/>
	<path class="st1" d="M522.6,463.1L476,496.4l-39.4-12.5l13.9-14.4L522.6,463.1z"/>
	<path class="st1" d="M552.1,539.9l-29.5-76.8L476,496.4l38.2,53.8L552.1,539.9z"/>
	<path class="st1" d="M114.1,473.6l-63.6,54.4l76.2-12.2L114.1,473.6z"/>
	<path class="st1" d="M101,468.1l13.1,5.5l-63.6,54.4L101,468.1z"/>
	<path class="st1" d="M66.4,540.2l25.8,1.6l34.6-25.9l-76.2,12.2L66.4,540.2z"/>
	<path class="st1" d="M54,512.3l47-44.1l-50.5,59.9L54,512.3z"/>
	<path class="st1" d="M167.3,480.3l-40.6,35.6l-34.6,25.9l44.8-19.8l48-33.6L167.3,480.3z"/>
	<path class="st1" d="M142.4,446.9l-28.3,26.8l12.6,42.3L142.4,446.9z"/>
	<path class="st1" d="M101,468.1l26.5-19.4l11.3-14.9l3.6,13.1l-28.3,26.8L101,468.1z"/>
	<path class="st1" d="M167.3,480.3l-24.9-33.5l-15.7,69L167.3,480.3z"/>
	<path class="st1" d="M213.8,402.6l-71.4,44.2l87.7-4.1L213.8,402.6z"/>
	<path class="st1" d="M138.8,433.8l64.5-42.1l10.6,10.9l-71.4,44.2L138.8,433.8z"/>
	<path class="st1" d="M184.9,488.4l45.2-45.7l-87.7,4.1l24.9,33.5L184.9,488.4z"/>
	<path class="st1" d="M285.6,416.6l-55.4,26.2l-45.2,45.7l18.7-12.2l30.8-20.1L285.6,416.6z"/>
	<path class="st1" d="M213.8,402.6l-10.6-10.9l60.7-27.8l51.6-6.3l-39.2,20.3L213.8,402.6z"/>
	<path class="st1" d="M374.7,329.9L334.1,391l-48.6,25.5l-71.7-13.9l62.5-24.7L374.7,329.9z"/>
	<path class="st1" d="M230.2,442.7l55.4-26.2l-71.7-13.9L230.2,442.7z"/>
	<path class="st1" d="M378.5,369l-1.4,24.2l-98.7,41.1l-40.8,19.7l48-37.5L378.5,369z"/>
	<path class="st1" d="M405.1,367l-26.6,2l-1.4,24.2l29.1-19L405.1,367z"/>
	<path class="st1" d="M418.9,305.2l-44.3,24.8L334.1,391l44.4-22l26.6-2L418.9,305.2z"/>
	<path class="st1" d="M405.1,304.2l-33.7,7.5L264,363.9l51.6-6.3l59.1-27.7l44.3-24.8L405.1,304.2z"/>
	<path class="st1" d="M645.6,849.8l-15.9-98.1L682,758L645.6,849.8z"/>
	<path class="st1" d="M686.3,804.6L682,758l-36.4,91.8L686.3,804.6z"/>
	<path class="st1" d="M613.2,811l32.4,38.8l-15.9-98.1L613.2,811z"/>
	<path class="st1" d="M660.6,857l8.5-26l17.1-26.3l-40.7,45.2L660.6,857z"/>
	<path class="st1" d="M607.9,843.9l24.5,7.5l13.2-1.6L613.2,811l-15.8-19.6l3.1,27.7L607.9,843.9z"/>
	<path class="st1" d="M646.8,700.1l-17.1,51.5L613.2,811l-15.8-19.6l18.4-81.9l11.4-19.7L646.8,700.1z"/>
	<path class="st1" d="M701.1,735.1l-54.4-35l-17.1,51.5L682,758L701.1,735.1z"/>
	<path class="st1" d="M686.3,804.6l32-47.2l-17.1-22.3L682,758L686.3,804.6z"/>
	<path class="st1" d="M725.5,689.2l-24.4,45.9l17.1,22.3L725.5,689.2z"/>
	<path class="st1" d="M646.8,700.1l78.7-11l-24.4,45.9L646.8,700.1z"/>
	<path class="st1" d="M723.5,601.9l-56.6,59.7l-7,18.7l-13.1,19.8l78.7-11L723.5,601.9z"/>
	<path class="st1" d="M792.6,617.5l-67.1,71.6l-2-87.2L792.6,617.5z"/>
	<path class="st1" d="M800.9,654.1l-8.3-36.6l-67.1,71.6L800.9,654.1z"/>
	<path class="st1" d="M718.2,757.4l16.4-37.3l66.2-66l-75.4,35.1L718.2,757.4z"/>
	<path class="st1" d="M676.9,608.1l46.7-6.2l-56.6,59.7l-14.9-1.4L676.9,608.1z"/>
	<path class="st1" d="M627.3,689.7l24.7-29.5l14.9,1.4l-7,18.7l-13.1,19.8L627.3,689.7z"/>
	<path class="st1" d="M721.7,519.3l-44.9,88.8l-13.2-41.8L721.7,519.3z"/>
	<path class="st1" d="M723.5,601.9l12-36.5l-13.8-46.1l-44.9,88.8L723.5,601.9z"/>
	<path class="st1" d="M663.7,566.3l-35.6-16l93.6-31L663.7,566.3z"/>
	<path class="st1" d="M552.1,539.9l124.1-38l-48,48.4l-42.3,5.4L552.1,539.9z"/>
	<path class="st1" d="M721.7,519.3l-45.6-17.4l-48,48.4L721.7,519.3z"/>
	<path class="st1" d="M111.1,386.7l46.9-25l5.4,33.8L111.1,386.7z"/>
	<path class="st1" d="M145,355.4l12.9,6.2l-46.9,25l5.4-12.7L145,355.4z"/>
	<path class="st1" d="M159.1,403.4l4.3-7.9l-52.3-8.8l13.9,14.9l22.4,6.1L159.1,403.4z"/>
	<path class="st1" d="M178.3,348.4l24.1-15.7l5.1-18L178.3,348.4z"/>
	<path class="st1" d="M182.8,387.9l-4.5-39.5l24.1-15.7l33.9,25.8L182.8,387.9z"/>
	<path class="st1" d="M197.8,325.8L145,355.4l12.9,6.2l20.3-13.2L197.8,325.8z"/>
	<path class="st1" d="M163.4,395.5l19.4-7.6l-4.5-39.5L158,361.7L163.4,395.5z"/>
	<path class="st1" d="M159.1,403.4l34.5-9.4l32.7-17.4l9.9-18.1l-53.5,29.4l-19.4,7.6L159.1,403.4z"/>
	<path class="st1" d="M278.5,287.7l-71,27l-5.1,18L278.5,287.7z"/>
	<path class="st1" d="M276.8,339.7l1.6-52l-76.1,45.1l33.9,25.8L276.8,339.7z"/>
	<path class="st1" d="M226.3,376.6l37.7-12.7l107.4-52.2l-94.6,28l-40.6,18.8L226.3,376.6z"/>
	<path class="st1" d="M300,279.7l-23.2,60.1l1.6-52L300,279.7z"/>
	<path class="st1" d="M371.4,311.7l-94.6,28l23.2-60.1L371.4,311.7z"/>
	<path class="st1" d="M376.2,265.2l-4.8,46.5L300,279.7L376.2,265.2z"/>
	<path class="st1" d="M405.1,304.2l-33.7,7.5l4.8-46.5L405.1,304.2z"/>
	<path class="st1" d="M419.8,256.2l-14.7,48l-28.9-39.1l27-1.4L419.8,256.2z"/>
	<path class="st1" d="M571,439l-43.8-80.2l-25.9,77.5L571,439z"/>
	<path class="st1" d="M506.3,308.9l20.9,49.9L462.6,339L506.3,308.9z"/>
	<path class="st1" d="M471,285.5l35.3,23.4l-87.4-3.8L471,285.5z"/>
	<path class="st1" d="M601.1,501.7L571,439l-48.4,24.1l29.5,76.8L601.1,501.7z"/>
	<path class="st1" d="M676.1,501.9l-75-0.2l-49.1,38.2L676.1,501.9z"/>
	<path class="st1" d="M437,380.5l90.3-21.7l-85.5,93L437,380.5z"/>
	<path class="st1" d="M405.1,367l122.2-8.2L437,380.5l-30.8-6.3L405.1,367z"/>
	<path class="st1" d="M506.3,308.9L462.6,339l-57.5,28l13.8-61.9L506.3,308.9z"/>
	<path class="st1" d="M527.3,358.8L462.6,339l-57.5,28L527.3,358.8z"/>
	<path class="st1" d="M450.5,469.5l50.9-33.3l25.9-77.5l-85.5,93L450.5,469.5z"/>
	<path class="st1" d="M571,439l-69.6-2.7l-50.9,33.3l72.1-6.4L571,439z"/>
	<path class="st1" d="M419.8,256.2l52.8-1.1l-1.5,30.4l-52.1,19.7l-13.8-0.9L419.8,256.2z"/>
	<path class="st1" d="M571,439L627.9,335l-100.6,23.8L571,439z"/>
	<path class="st1" d="M659,414.4L627.9,335L571,439L659,414.4z"/>
	<path class="st1" d="M676.1,501.9L659,414.4L571,439L676.1,501.9z"/>
	<path class="st1" d="M601.1,501.7l75,0.2L571,439L601.1,501.7z"/>
	<path class="st1" d="M506.3,308.9L627.9,335l-100.6,23.8L506.3,308.9z"/>
	<path class="st1" d="M604.5,284.5l23.4,50.5l-121.5-26.1L604.5,284.5z"/>
	<path class="st1" d="M585.2,255.1L471,285.5l1.5-30.4L585.2,255.1z"/>
	<path class="st1" d="M604.5,284.5l-19.3-29.4L471,285.5l35.3,23.4L604.5,284.5z"/>
	<path class="st1" d="M832.5,497.1l-110.8,22.2l-45.6-17.4L832.5,497.1z"/>
	<path class="st1" d="M810.5,450.8l22,46.3l-156.4,4.8L810.5,450.8z"/>
	<path class="st1" d="M819,631.1l-9.6-37.1l-16.8,23.5l8.3,36.6L819,631.1z"/>
	<path class="st1" d="M832.5,497.1l-109,104.8l69.1,15.6l16.8-23.5L832.5,497.1z"/>
	<path class="st1" d="M721.7,519.3l110.8-22.2l-109,104.8l12-36.5L721.7,519.3z"/>
	<path class="st1" d="M862.4,555.5L819,631.1l-9.6-37.1L862.4,555.5z"/>
	<path class="st1" d="M832.5,497.1l29.9,58.4l-53,38.5L832.5,497.1z"/>
	<path class="st1" d="M769,387.5l41.5,63.3L659,414.4L769,387.5z"/>
	<path class="st1" d="M676.1,501.9l134.4-51.1L659,414.4L676.1,501.9z"/>
	<path class="st1" d="M731.2,322.8L627.9,335l31.2,79.3L731.2,322.8z"/>
	<path class="st1" d="M769,387.5l-37.8-64.7L659,414.4L769,387.5z"/>
	<path class="st1" d="M697.2,270.9l-92.7,13.5l23.4,50.5L697.2,270.9z"/>
	<path class="st1" d="M731.2,322.8l-34.1-51.9L627.9,335L731.2,322.8z"/>
	<path class="st1" d="M585.2,255.1l112,15.8l-92.7,13.5L585.2,255.1z"/>
	<path class="st1" d="M678.3,249.4l18.9,21.5l-112-15.8l66.5-9.3L678.3,249.4z"/>
	<path class="st1" d="M848.1,308.9l-116.8,13.9l37.8,64.7L848.1,308.9z"/>
	<path class="st1" d="M883.6,376.4L769,387.5l79.1-78.7L883.6,376.4z"/>
	<path class="st1" d="M810.5,450.8l73.1-74.4L769,387.5L810.5,450.8z"/>
	<path class="st1" d="M889.8,429.6l-6.2-53.1l-73.1,74.4L889.8,429.6z"/>
	<path class="st1" d="M876.8,482.6l13-53l-79.3,21.3L876.8,482.6z"/>
	<path class="st1" d="M892.7,505l-15.9-22.5l-44.3,14.6l29.9,58.4L892.7,505z"/>
	<path class="st1" d="M810.5,450.8l66.3,31.7l-44.3,14.6L810.5,450.8z"/>
	<path class="st1" d="M916.8,470.6l-26.9-41l-13,53l15.9,22.5L916.8,470.6z"/>
	<path class="st1" d="M883.6,376.4l58.2,13.2l-25.1,80.9l-26.9-41L883.6,376.4z"/>
	<path class="st1" d="M814.4,257.7l-117.3,13.3l150.9,38L814.4,257.7z"/>
	<path class="st1" d="M731.2,322.8l116.8-13.9l-150.9-38L731.2,322.8z"/>
	<path class="st1" d="M814.4,257.7l-55.8-19.6l-80.4,11.3l18.9,21.5L814.4,257.7z"/>
	<path class="st1" d="M848.1,308.9l70.4,10.3l-34.9,57.3L848.1,308.9z"/>
	<path class="st1" d="M865.9,260.7l52.6,58.4l-104.1-61.5L865.9,260.7z"/>
	<path class="st1" d="M848.1,308.9l70.4,10.3l-104.1-61.5L848.1,308.9z"/>
	<path class="st1" d="M941.9,389.6l-23.4-70.5l-34.9,57.3L941.9,389.6z"/>
	<path class="st1" d="M758.7,238.1l51.5-0.2l55.7,22.9l-51.5-3.1L758.7,238.1z"/>
	<path class="st1" d="M979.1,317l-37.3,72.6l-23.4-70.5L979.1,317z"/>
	<path class="st1" d="M921.4,256.7l57.7,60.3l-60.6,2.1L921.4,256.7z"/>
	<path class="st1" d="M865.9,260.7l55.5-4l-3,62.4L865.9,260.7z"/>
	<path class="st1" d="M810.2,237.8l58.9,6l52.4,12.9l-55.5,4L810.2,237.8z"/>
	<path class="st1" d="M992.1,393l-13-76l-37.3,72.6L992.1,393z"/>
	<path class="st1" d="M959.4,455.2l32.8-62.3l-50.3-3.3L959.4,455.2z"/>
	<path class="st1" d="M916.8,470.6l42.6-15.3l-17.5-65.6L916.8,470.6z"/>
	<path class="st1" d="M1060.2,382.2l-100.8,73l74.4-7.7L1060.2,382.2z"/>
	<path class="st1" d="M1048.6,305.9l11.5,76.3l-68,10.8L1048.6,305.9z"/>
	<path class="st1" d="M959.4,455.2l32.8-62.3l68-10.8L959.4,455.2z"/>
	<path class="st1" d="M921.4,256.7l127.2,49.2L979.1,317L921.4,256.7z"/>
	<path class="st1" d="M992.1,393l56.5-87L979.1,317L992.1,393z"/>
	<path class="st1" d="M995.4,239.8l53.3,66.1l-127.2-49.2L995.4,239.8z"/>
	<path class="st1" d="M869.1,243.9L959,228l36.4,11.8l-73.9,16.9L869.1,243.9z"/>
	<path class="st2" d="M30.4,608.5l90.3-50l6.7,50.3L30.4,608.5z"/>
	<path class="st3" d="M72.9,633.8l55.8-22.4l-97-0.3l18.9,19.5L72.9,633.8z"/>
	<path class="st4" d="M122.6,555.1l-22.6-8.6l-63.8,41.6l-3.9,17L122.6,555.1z"/>
	<path class="st2" d="M173.6,524.8l-31.8,16.3l53.3,31.2L173.6,524.8z"/>
	<path class="st4" d="M128.1,609.2l67-36.9l-53.3-31.2l-20.4,17.8L128.1,609.2z"/>
	<path class="st0" d="M172.9,524.4l-6.9-16.3l-18.7,9.7l-49.2,32.1l22.6,8.6l20.4-17.8L172.9,524.4z"/>
	<path class="st2" d="M174.2,525.2l77.4-50.5l20.3,50.7L174.2,525.2z"/>
	<path class="st4" d="M165.8,508.4l39.6-35.3l44.7,1.1l-77.4,50.5L165.8,508.4z"/>
	<path class="st4" d="M204.6,584.2l-6.3-9.6l-21.5-47.5l97.7,0.1L204.6,584.2z"/>
	<path class="st4" d="M128.8,614.2l73.3-27.3l-6.3-9.6L128.8,614.2z"/>
	<path class="st4" d="M263.8,470.9l88.1-43.2l-58.1,0.2l-43.9,21.8l-30.8,20.1L263.8,470.9z"/>
	<path class="st2" d="M203.2,587.5l75.1-38.6l-5.2-18.4L203.2,587.5z"/>
	<path class="st3" d="M314.5,543.2l-7.8-27.5l-31.3,16.2l5.2,18.4L314.5,543.2z"/>
	<path class="st5" d="M411,489.2l-99.9,52.1l-7.8-27.5L411,466.3L411,489.2z"/>
	<path class="st3" d="M395.9,411.1l-52.8,22.4L255,476.7l20.2,50.7l31.3-16.2l107.8-47.5L395.9,411.1z"/>
	<path class="st2" d="M381.1,391.1l12.1,18.5l-52.8,22.4l-58.1,0.2L381.1,391.1z"/>
	<path class="st6" d="M407.6,487.2l29-3.3l13.9-14.4l-8.7-17.7l-34.1,12.5L407.6,487.2z"/>
	<path class="st2" d="M390.6,409.4l47.8-31.2l4.8,71.3L409,462L390.6,409.4z"/>
	<path class="st3" d="M379,389.9l29.1-19l30.8,6.3l-47.8,31.2L379,389.9z"/>
	<path class="st4" d="M126.9,709.6l89.4-56.6l7.5,52.5L126.9,709.6z"/>
	<path class="st0" d="M180.9,636.9l31,14.5l-89.4,56.6L180.9,636.9z"/>
	<path class="st2" d="M145.2,735.1l24.5,2.6l50.8-27.8l-97,4.1L145.2,735.1z"/>
	<path class="st7" d="M126.3,671.7l49.5-32.3l-58.4,71l-4.2-18.2L126.3,671.7z"/>
	<path class="st2" d="M235,641.8l27.9,45.5l-41.5,22.7l-7.5-52.5L235,641.8z"/>
	<path class="st7" d="M219.6,613.6l15.1,23.1l-21.2,15.6l-31-14.5L219.6,613.6z"/>
	<path class="st3" d="M268.1,623.3l-34.1,17l27.9,45.4L268.1,623.3z"/>
	<path class="st0" d="M247.8,593.2l-29.8,19.5l15.1,23.1L247.8,593.2z"/>
	<path class="st2" d="M362.5,640.4l-97.7,48.3l6.2-62.5L362.5,640.4z"/>
	<path class="st7" d="M337.9,529.9l-66.6,81.6l-34.1,17l14.7-42.5L337.9,529.9z"/>
	<path class="st0" d="M355.6,561.1l-22-23.7L266.9,619L355.6,561.1z"/>
	<path class="st3" d="M386.6,609.3l-31-47.2l-88.7,57.9l91.6,14.1L386.6,609.3z"/>
	<path class="st6" d="M414.9,610.6l-26.6,15.2l-29.9,12.2l28.1-24.8L414.9,610.6z"/>
	<path class="st7" d="M477.8,486.2l-122,67.4l-22-23.7l104.6-56.2L477.8,486.2z"/>
	<path class="st2" d="M516.8,544.9l-129.2,60.9l-31-47.2l121.9-67.4L516.8,544.9z"/>
	<path class="st6" d="M587.2,561l-172.4,52.8l-28.4,2.7l129.2-60.9l37.8-10.3L587.2,561z"/>
	<path class="st0" d="M522.6,463.1L476,496.4l-39.4-12.5l13.9-14.4L522.6,463.1z"/>
	<path class="st3" d="M556.4,541l-29.5-76.8l-46.6,33.3l38.2,53.8L556.4,541z"/>
	<path class="st4" d="M118.3,471.1l-63.6,54.4l76.2-12.1L118.3,471.1z"/>
	<path class="st2" d="M102.9,464.8l13.1,5.5l-63.6,54.4L102.9,464.8z"/>
	<path class="st2" d="M68.7,539.3l25.8,1.6L129,515l-76.2,12.1L68.7,539.3z"/>
	<path class="st3" d="M53.4,511l47-44.1l-50.5,59.9L53.4,511z"/>
	<path class="st3" d="M170,481.9l-40.6,35.6l-34.6,25.9l44.8-19.8l48-33.6L170,481.9z"/>
	<path class="st2" d="M144.1,444.7l-28.3,26.8l12.6,42.3L144.1,444.7z"/>
	<path class="st2" d="M102.6,464.6l26.5-19.4l11.3-14.9l3.6,13.1L115.7,470L102.6,464.6z"/>
	<path class="st2" d="M170.3,482.1l-24.9-33.5l-15.7,69L170.3,482.1z"/>
	<path class="st2" d="M214.8,400.9l-71.4,44.2l87.7-4.1L214.8,400.9z"/>
	<path class="st4" d="M142.7,427.9l64.5-42.1l10.6,10.9L146.3,441L142.7,427.9z"/>
	<path class="st3" d="M185.9,486.7l45.2-45.7l-87.7,4.1l24.9,33.5L185.9,486.7z"/>
	<path class="st5" d="M294.1,412.9L238.6,439l-45.2,45.7l18.7-12.2l30.8-20.1L294.1,412.9z"/>
	<path class="st0" d="M215.7,400.1l-10.6-10.9l60.7-27.8l53.1-5.9l-40.7,19.9L215.7,400.1z"/>
	<path class="st2" d="M379.9,328l-40.6,61.1l-48.6,25.5l-71.7-13.9l62.5-24.7L379.9,328z"/>
	<path class="st3" d="M231.9,439.7l55.4-26.2l-71.7-13.9L231.9,439.7z"/>
	<path class="st0" d="M378.9,367.5l-1.4,24.2l-98.7,41.1L238,452.5l48-37.5L378.9,367.5z"/>
	<path class="st0" d="M405.1,367l-26.6,2l-1.4,24.2l29.1-19L405.1,367z"/>
	<path class="st0" d="M426.3,300.3L382,325.1l-40.6,61.1l44.4-22l26.6-2L426.3,300.3z"/>
	<path class="st0" d="M410,298.9l-33.7,7.5l-107.4,52.2l53.1-5.9l57.6-28.1l44.2-24.8L410,298.9z"/>
	<path class="st0" d="M647.9,845.7L632,747.6l52.3,6.4L647.9,845.7z"/>
	<path class="st0" d="M690.2,803.2l-4.3-46.6l-36.4,91.8L690.2,803.2z"/>
	<path class="st0" d="M614.2,809.3l32.4,38.8L630.7,750L614.2,809.3z"/>
	<path class="st0" d="M663.6,856.4l8.5-26l17.1-26.3l-40.7,45.2L663.6,856.4z"/>
	<path class="st2" d="M606.5,844l24.5,7.5l13.2-1.6l-32.4-38.8L596,791.5l3.1,27.7L606.5,844z"/>
	<path class="st3" d="M646,695.2l-17.1,51.5l-16.5,59.3l-15.8-19.6l18.4-81.9l11.4-19.7L646,695.2z"/>
	<path class="st2" d="M702.2,731.7l-54.4-35l-17.1,51.5l52.3,6.4L702.2,731.7z"/>
	<path class="st4" d="M688.3,803.5l32-47.2L703.1,734l-19.2,22.9L688.3,803.5z"/>
	<path class="st0" d="M730.6,686.7l-24.4,45.9l17.1,22.3L730.6,686.7z"/>
	<path class="st4" d="M649.3,695.7l78.7-11l-24.4,45.9L649.3,695.7z"/>
	<path class="st3" d="M723.5,601.9l-56.6,59.7l-7,18.7l-13.1,19.8l78.7-11L723.5,601.9z"/>
	<path class="st4" d="M799.6,612.5l-67.1,71.6l-2-87.2L799.6,612.5z"/>
	<path class="st3" d="M805.1,651.5l-8.3-36.6l-67.1,71.6L805.1,651.5z"/>
	<path class="st6" d="M723.9,757.1l16.4-37.3l66.2-66l-75.4,35.1L723.9,757.1z"/>
	<path class="st5" d="M673.1,606.8l46.7-6.2l-56.6,59.7l-14.9-1.4L673.1,606.8z"/>
	<path class="st6" d="M630,685.9l24.7-29.5l14.9,1.4l-7,18.7l-13.1,19.8L630,685.9z"/>
	<path class="st4" d="M718.6,519.3l-44.9,88.8l-13.2-41.8L718.6,519.3z"/>
	<path class="st3" d="M727.2,599.5l12-36.5l-13.8-46.1l-44.9,88.8L727.2,599.5z"/>
	<path class="st4" d="M664.1,567.9l-35.6-16l93.6-31L664.1,567.9z"/>
	<path class="st3" d="M553.1,542.7l124.1-38l-48,48.4l-42.3,5.4L553.1,542.7z"/>
	<path class="st2" d="M722.4,520.6l-45.6-17.4l-48,48.4L722.4,520.6z"/>
	<path class="st0" d="M113.1,383.3l46.9-25l5.4,33.8L113.1,383.3z"/>
	<path class="st8" d="M146,353.7L159,360l-46.9,25l5.4-12.7L146,353.7z"/>
	<path class="st4" d="M160.4,401.9l4.3-7.9l-52.3-8.8l13.9,14.9l22.4,6.1L160.4,401.9z"/>
	<path class="st8" d="M178.3,348.4l24.1-15.7l5.1-18L178.3,348.4z"/>
	<path class="st0" d="M184.6,383.1l-4.5-39.5l24.1-15.7l33.9,25.8L184.6,383.1z"/>
	<path class="st9" d="M198.6,322.2l-52.8,29.6l12.9,6.2l20.3-13.2L198.6,322.2z"/>
	<path class="st7" d="M164,394.5l19.4-7.6l-4.5-39.5l-20.3,13.2L164,394.5z"/>
	<path class="st2" d="M162,405.5l34.5-9.4l32.7-17.4l9.9-18.1L185.6,390l-19.4,7.6L162,405.5z"/>
	<path class="st9" d="M279.8,286.2l-71,27l-5.1,18L279.8,286.2z"/>
	<path class="st7" d="M281,340.3l1.6-52l-76.1,45.1l33.9,25.8L281,340.3z"/>
	<path class="st2" d="M227.4,377.2l37.7-12.7l107.4-52.2l-94.6,28l-40.6,18.8L227.4,377.2z"/>
	<path class="st10" d="M301.9,281.2l-23.2,60.1l1.6-52.1L301.9,281.2z"/>
	<path class="st10" d="M374.2,307l-94.6,28l23.2-60.1L374.2,307z"/>
	<path class="st9" d="M378.6,263.4l-4.8,46.5l-71.4-32.1L378.6,263.4z"/>
	<path class="st0" d="M406.1,302.5l-33.7,7.5l4.8-46.5L406.1,302.5z"/>
	<path class="st9" d="M421.7,252.8l-14.7,48l-28.9-39.1l27-1.4L421.7,252.8z"/>
	<path class="st4" d="M572.3,435.2L528.5,355l-25.9,77.5L572.3,435.2z"/>
	<path class="st0" d="M507.5,306.9l20.9,49.9l-64.7-19.8L507.5,306.9z"/>
	<path class="st9" d="M473,282.1l35.3,23.4l-87.4-3.8L473,282.1z"/>
	<path class="st0" d="M602.2,499.1l-30.1-62.7l-48.4,24.1l29.5,76.8L602.2,499.1z"/>
	<path class="st0" d="M676.1,501.9l-75-0.2l-49.1,38.2L676.1,501.9z"/>
	<path class="st4" d="M440.9,373.8l90.3-21.7l-85.5,93L440.9,373.8z"/>
	<path class="st2" d="M406.3,365l122.2-8.2l-90.3,21.7l-30.8-6.3L406.3,365z"/>
	<path class="st0" d="M507.3,309.5l-43.7,30.1l-57.5,28l13.8-61.9L507.3,309.5z"/>
	<path class="st0" d="M529.4,355.1l-64.7-19.8l-57.5,28L529.4,355.1z"/>
	<path class="st2" d="M450.6,467.8l50.9-33.3l25.9-77.5l-85.5,93L450.6,467.8z"/>
	<path class="st0" d="M573,432.4l-69.6-2.7L452.4,463l72.1-6.4L573,432.4z"/>
	<path class="st8" d="M426.4,251.9l52.8-1.1l-1.5,30.4l-52.1,19.7l-13.8-0.9L426.4,251.9z"/>
	<path class="st0" d="M575,432.2l56.8-103.9L531.2,352L575,432.2z"/>
	<path class="st0" d="M661,411l-31.2-79.3L573,435.6L661,411z"/>
	<path class="st0" d="M680.1,495.1L663,407.6l-88,24.6L680.1,495.1z"/>
	<path class="st0" d="M603.1,498.3l75,0.2L573,435.6L603.1,498.3z"/>
	<path class="st0" d="M510.8,298l121.5,26.1l-100.6,23.8L510.8,298z"/>
	<path class="st7" d="M607,280.1l23.4,50.5l-121.5-26.1L607,280.1z"/>
	<path class="st9" d="M586.2,253.4L472,283.8l1.5-30.4L586.2,253.4z"/>
	<path class="st10" d="M606.4,281.1l-19.3-29.4L473,282.1l35.3,23.4L606.4,281.1z"/>
	<path class="st2" d="M832.5,497.1l-110.8,22.2l-45.6-17.4L832.5,497.1z"/>
	<path class="st4" d="M812,449l22,46.3l-156.4,4.8L812,449z"/>
	<path class="st3" d="M822.9,624.3l-9.6-37.1l-16.8,23.5l8.3,36.6L822.9,624.3z"/>
	<path class="st2" d="M838.4,487l-109,104.8l69.1,15.6l16.8-23.5L838.4,487z"/>
	<path class="st4" d="M723.3,516.6l110.8-22.2l-109,104.8l12-36.5L723.3,516.6z"/>
	<path class="st6" d="M864.4,552.1L821,627.7l-9.6-37.1L864.4,552.1z"/>
	<path class="st3" d="M833.7,495.1l29.9,58.4l-53,38.5L833.7,495.1z"/>
	<path class="st4" d="M772.5,381.4l41.5,63.3l-151.5-36.5L772.5,381.4z"/>
	<path class="st0" d="M678.1,498.5l134.4-51.1L661,411L678.1,498.5z"/>
	<path class="st0" d="M737.1,312.6l-103.4,12.2l31.2,79.3L737.1,312.6z"/>
	<path class="st0" d="M770.9,384.2l-37.8-64.7L661,411L770.9,384.2z"/>
	<path class="st10" d="M698.5,268.6l-92.7,13.5l23.4,50.5L698.5,268.6z"/>
	<path class="st7" d="M732.4,321.6l-34.1-51.9L629,333.9L732.4,321.6z"/>
	<path class="st9" d="M585.8,254.1l112,15.8l-92.7,13.5L585.8,254.1z"/>
	<path class="st8" d="M673,245.9l18.9,21.6l-112-15.8l66.5-9.3L673,245.9z"/>
	<path class="st0" d="M854.9,297l-116.8,13.9l37.8,64.7L854.9,297z"/>
	<path class="st4" d="M897.7,368.2l-125.9,12.2l86.8-86.4L897.7,368.2z"/>
	<path class="st2" d="M814.5,444.1l73.1-74.4l-114.6,11.1L814.5,444.1z"/>
	<path class="st3" d="M891,427.5l-6.2-53.2l-73.1,74.4L891,427.5z"/>
	<path class="st2" d="M878.5,478.1l13-53l-79.3,21.3L878.5,478.1z"/>
	<path class="st6" d="M897.1,502.1l-15.9-22.5l-44.3,14.6l29.9,58.4L897.1,502.1z"/>
	<path class="st3" d="M811.1,449.8l66.3,31.7l-44.3,14.6L811.1,449.8z"/>
	<path class="st6" d="M921.8,471.2l-26.9-41l-13,53l15.9,22.5L921.8,471.2z"/>
	<path class="st3" d="M887.4,370l58.3,13.2l-25.1,80.9l-26.9-41L887.4,370z"/>
	<path class="st10" d="M816.4,254.3l-117.3,13.3l150.9,38L816.4,254.3z"/>
	<path class="st7" d="M735,316.4l116.8-13.9l-150.9-38L735,316.4z"/>
	<path class="st8" d="M810.6,254.1l-55.7-19.6l-80.4,11.3l18.9,21.5L810.6,254.1z"/>
	<path class="st7" d="M851.6,301.9l70.4,10.3l-34.9,57.3L851.6,301.9z"/>
	<path class="st10" d="M867.3,258.4l52.6,58.4l-104.1-61.5L867.3,258.4z"/>
	<path class="st9" d="M849.2,306.8l70.4,10.3l-104.1-61.5L849.2,306.8z"/>
	<path class="st0" d="M943.8,386.2l-23.4-70.5L885.6,373L943.8,386.2z"/>
	<path class="st8" d="M755.3,232.9l51.5-0.2l55.7,22.9l-51.5-3.1L755.3,232.9z"/>
	<path class="st7" d="M982.8,306l-37.2,72.6l-23.4-70.5L982.8,306z"/>
	<path class="st10" d="M923.2,253.7l57.7,60.3l-60.6,2.1L923.2,253.7z"/>
	<path class="st9" d="M869.1,255.3l55.5-4l-3,62.4L869.1,255.3z"/>
	<path class="st9" d="M807.1,234.7l58.9,6l52.4,12.9l-55.5,4L807.1,234.7z"/>
	<path class="st0" d="M996,387.9l-13-76l-37.2,72.6L996,387.9z"/>
	<path class="st4" d="M958.9,445.9l32.8-62.3l-50.3-3.3L958.9,445.9z"/>
	<path class="st6" d="M919.2,473.4l42.6-15.3l-17.5-65.6L919.2,473.4z"/>
	<path class="st5" d="M1066.8,380.1l-100.8,73l74.4-7.7L1066.8,380.1z"/>
	<path class="st0" d="M1056.5,301.8l11.5,76.3l-68,10.8L1056.5,301.8z"/>
	<path class="st6" d="M962.8,457.2l32.8-62.3l68-10.8L962.8,457.2z"/>
	<path class="st10" d="M925.4,249.9l127.2,49.2L983,310.2L925.4,249.9z"/>
	<path class="st7" d="M999.5,379.5l56.5-87l-69.5,11.1L999.5,379.5z"/>
	<path class="st9" d="M995.5,235.7l53.3,66.2l-127.2-49.2L995.5,235.7z"/>
	<path class="st8" d="M862,238.9l89.9-15.8l36.4,11.7l-73.9,16.9L862,238.9z"/>
</g>
</svg>
