<?xml version="1.0" encoding="utf-8"?>
<!-- Generator: Adobe Illustrator 24.3.0, SVG Export Plug-In . SVG Version: 6.00 Build 0)  -->
<svg version="1.1" id="Layer_1" xmlns="http://www.w3.org/2000/svg" xmlns:xlink="http://www.w3.org/1999/xlink" x="0px" y="0px"
	 viewBox="0 0 596.5 424.3" style="enable-background:new 0 0 596.5 424.3;" xml:space="preserve">
<style type="text/css">
	.st0{fill:none;stroke:#0064FB;stroke-miterlimit:10;}
	.st1{fill:none;stroke:#0064FB;stroke-width:0.8786;stroke-miterlimit:10;}
	.st2{fill:none;stroke:#0064FB;stroke-width:0.9174;stroke-miterlimit:10;}
	.st3{fill:none;stroke:#0064FB;stroke-width:0.762;stroke-miterlimit:10;}
	.st4{opacity:0.5;fill:#0064FA;enable-background:new    ;}
	.st5{opacity:0.5;fill:#0064FB;enable-background:new    ;}
	.st6{opacity:0.65;fill:#0064FA;enable-background:new    ;}
	.st7{opacity:0.35;fill:#0064FA;enable-background:new    ;}
	.st8{opacity:0.25;fill:#0064FA;enable-background:new    ;}
	.st9{opacity:0.3;fill:#0064FA;enable-background:new    ;}
	.st10{opacity:0.6;fill:#0064FA;enable-background:new    ;}
	.st11{opacity:0.7;fill:#0064FA;enable-background:new    ;}
	.st12{opacity:0.75;fill:#0064FA;enable-background:new    ;}
	.st13{opacity:0.4;fill:#0064FA;enable-background:new    ;}
	.st14{opacity:0.45;fill:#0064FA;enable-background:new    ;}
	.st15{opacity:0.55;fill:#0064FA;enable-background:new    ;}
	.st16{opacity:0.8;fill:#0064FA;enable-background:new    ;}
	.st17{fill:#FFFFFF;}
</style>
<path class="st0" d="M521.5,388.8l65-41.1l-100.7-75.8L521.5,388.8z"/>
<path class="st0" d="M440.3,297.7l45.6-25.9l35.7,116.9L440.3,297.7z"/>
<path class="st0" d="M491.2,402.6l-50.9-104.9l81.2,91L491.2,402.6z"/>
<path class="st0" d="M319.2,226.1l121.1,71.6l50.9,104.9L319.2,226.1z"/>
<path class="st0" d="M420.2,196.5l20.1,101.2l45.6-25.9L420.2,196.5z"/>
<path class="st0" d="M521.9,251.8l-101.8-55.3l65.7,75.3L521.9,251.8z"/>
<path class="st0" d="M586.5,347.6l-64.6-95.8l-36.1,20L586.5,347.6z"/>
<path class="st0" d="M597.1,336.1l-75.2-84.3l64.6,95.8L597.1,336.1z"/>
<path class="st0" d="M593.5,294.7L459.6,156.6l83.2,46.3L593.5,294.7z"/>
<path class="st0" d="M222.8,375.9l96.4-149.8l59.2,198.1L222.8,375.9z"/>
<path class="st0" d="M593.5,294.7l3.6,41.4L459.6,156.6L593.5,294.7z"/>
<path class="st0" d="M319.2,226.1l101-29.6l20.1,101.2L319.2,226.1z"/>
<path class="st0" d="M459.6,156.6l-39.5,39.9l101.8,55.3L459.6,156.6z"/>
<path class="st0" d="M597.1,336.1l-75.2-84.3l-62.3-95.2L597.1,336.1z"/>
<path class="st0" d="M233.3,118.8l83-17.8l103.8,95.5L233.3,118.8z"/>
<path class="st0" d="M349.3,69l-32.9,32l103.8,95.5L349.3,69z"/>
<path class="st0" d="M459.6,156.6L349.3,69l70.9,127.5L459.6,156.6z"/>
<path class="st0" d="M319.2,226.1l-85.8-107.4l186.8,77.7L319.2,226.1z"/>
<path class="st0" d="M121.3,136l112-17.2l85.8,107.4L121.3,136z"/>
<path class="st0" d="M89.6,236.3L121.3,136l197.9,90.2L197.7,250L89.6,236.3z"/>
<path class="st0" d="M222.8,375.9L197.7,250l121.5-23.9L222.8,375.9z"/>
<path class="st0" d="M74.6,283.1L197.7,250l25.1,125.9L74.6,283.1z"/>
<path class="st0" d="M89.6,236.3l-14.9,46.8L197.7,250L89.6,236.3z"/>
<path class="st0" d="M75.3,159.3l14.3,77l-14.9,46.8L75.3,159.3z"/>
<path class="st0" d="M11.7,212l63.5-52.6l-0.7,123.8L11.7,212z"/>
<path class="st0" d="M50.7,125.8L11.7,212l63.5-52.6L50.7,125.8z"/>
<path class="st0" d="M121.3,136l-70.6-10.2l24.6,33.6L121.3,136z"/>
<path class="st0" d="M89.6,236.3l-14.3-77l46-23.3L89.6,236.3z"/>
<path class="st0" d="M457.1,127.4l85.7,75.5l-83.2-46.3L457.1,127.4z"/>
<path class="st0" d="M352.9,39.4l106.7,117.2l-2.5-29.2l-29.9-43.8l-63.3-43.3L352.9,39.4z"/>
<path class="st0" d="M349.3,69l3.6-29.6l106.7,117.2L349.3,69z"/>
<path class="st0" d="M316.4,101l-47.6-38l80.5,6.1L316.4,101z"/>
<path class="st0" d="M233.3,118.8L268.8,63l47.6,38L233.3,118.8z"/>
<path class="st0" d="M136.2,99.8c0,0-11.8-13.8,9.6-26.5c21.4-12.8,31-1.8,31-1.8s11,13-9.6,25.2C146.5,108.8,136.2,99.8,136.2,99.8
	z"/>
<path class="st1" d="M138.7,98c0,0-10.3-12.1,8.5-23.3c18.8-11.2,27.2-1.6,27.2-1.6s9.7,11.4-8.5,22.1
	C147.7,105.9,138.7,98,138.7,98z"/>
<path class="st2" d="M292.5,35.6c0,0-20-5.5-17.4-11.3c2.6-5.8,23.9,1.1,23.9,1.1s17.4,5.4,16.6,11.2
	C314.8,42.4,292.5,35.6,292.5,35.6z"/>
<path class="st3" d="M292.5,34.3c0,0-17.5-4.9-14.9-9.3c2.6-4.4,21.2,1.7,21.2,1.7s15.1,4.8,14.1,9.2
	C312,40.3,292.5,34.3,292.5,34.3z"/>
<path class="st0" d="M121.3,136l96.2-52.2l-84.3-42.3L121.3,136z"/>
<path class="st0" d="M233.3,118.8l-15.8-35L121.3,136L233.3,118.8z"/>
<path class="st0" d="M268.8,63l-51.3,20.8l15.8,35L268.8,63z"/>
<path class="st0" d="M306.7,47.8L268.8,63l80.5,6.1L306.7,47.8z"/>
<path class="st0" d="M352.9,39.4l-46.2,8.4L349.3,69L352.9,39.4z"/>
<path class="st0" d="M232.2,4.4l74.5,43.4l46.2-8.4L232.2,4.4z"/>
<path class="st2" d="M217.5,83.8l-19-38.8c0,0,11.7,3.4,29-5.7L268.8,63L217.5,83.8z"/>
<path class="st2" d="M306.7,47.8l-69.4-19.7c0,0,0.7,6.7-9.8,11.1L268.8,63L306.7,47.8z"/>
<path class="st2" d="M133.2,41.5L183.1,12l5.3,12.1c0,0-6.8,5.9-2.4,12.7c4.4,6.8,12.6,8.1,12.6,8.1l19,38.8L133.2,41.5z"/>
<path class="st2" d="M232.2,4.4L183.1,12l22.2,4.4c0,0,12.6-1.5,22.3,3.7c9.8,5.2,9.6,8.1,9.6,8.1l69.4,19.7L232.2,4.4z"/>
<path class="st2" d="M188.4,24.1c0,0,5.4-6.8,17-7.7L183.1,12L188.4,24.1z"/>
<path class="st2" d="M50.7,125.8l82.5-84.3L121.3,136L50.7,125.8z"/>
<path class="st2" d="M28.9,108L11.7,212l38.9-86.2L28.9,108z"/>
<path class="st2" d="M0.7,183.8l11,28.2l17.2-104L0.7,183.8z"/>
<path class="st2" d="M8.4,132.3l-7.7,51.5L28.9,108L8.4,132.3z"/>
<path class="st2" d="M133.2,41.5L28.9,108l21.7,17.8L133.2,41.5z"/>
<path class="st2" d="M78.6,55.1L28.9,108l104.3-66.5L78.6,55.1z"/>
<path class="st2" d="M144.7,13.7l-11.5,27.8L78.6,55.1L144.7,13.7z"/>
<path class="st2" d="M183.1,12l-38.5,1.7l-11.5,27.8L183.1,12z"/>
<path class="st2" d="M220.2,2.3L183.1,12l-38.5,1.7L220.2,2.3z"/>
<path class="st2" d="M232.2,4.4l-12-2.2L183.1,12L232.2,4.4z"/>
<path class="st2" d="M352.9,39.4L287,8.2l-66.8-5.9l12,2.2L352.9,39.4z"/>
<path class="st2" d="M363.9,40.3l-42.5-20.8L287,8.2l65.9,31.2L363.9,40.3z"/>
<path class="st2" d="M491.2,402.6l-112.8,21.6l-59.2-198.1L491.2,402.6z"/>
<path class="st1" d="M226.2,38.1c0,0-15.5,7.9-27.4,5.4C187,41,186.5,32.1,186.5,32.1S185.9,25,198.2,20c12.3-5,24.2-0.3,24.2-0.3
	s15.5,6,12,11.6C231.9,35.5,226.2,38.1,226.2,38.1z"/>
<path class="st4" d="M520.5,380.8l65-41.1l-100.7-75.8L520.5,380.8z"/>
<path class="st5" d="M440,295.5l45.6-25.9l35.7,116.9L440,295.5z"/>
<path class="st6" d="M490.6,398.1l-50.9-104.9l81.2,91L490.6,398.1z"/>
<path class="st5" d="M318.6,221.6l121.1,71.6l50.9,104.9L318.6,221.6z"/>
<path class="st5" d="M419.6,192l20.1,101.2l45.6-25.9L419.6,192z"/>
<path class="st5" d="M521.6,249.5l-101.8-55.3l65.7,75.3L521.6,249.5z"/>
<path class="st5" d="M585.9,343.1l-64.6-95.8l-36.1,20L585.9,343.1z"/>
<path class="st7" d="M596.5,331.6l-75.2-84.3l64.6,95.8L596.5,331.6z"/>
<path class="st8" d="M592.6,287.8L458.8,149.7l83.2,46.3L592.6,287.8z"/>
<path class="st4" d="M221.9,369.1l96.4-149.8l59.2,198.1L221.9,369.1z"/>
<path class="st9" d="M593.2,292.4l3.6,41.4L459.3,154.3L593.2,292.4z"/>
<path class="st5" d="M320.9,221.3l101-29.6L442,292.9L320.9,221.3z"/>
<path class="st5" d="M459.6,156.6l-39.5,39.9l101.8,55.3L459.6,156.6z"/>
<path class="st5" d="M596.5,331.6l-75.2-84.3L459,152L596.5,331.6z"/>
<path class="st5" d="M232.9,115.4l83-17.8l103.8,95.5L232.9,115.4z"/>
<path class="st5" d="M348.7,64.5l-32.9,32L419.6,192L348.7,64.5z"/>
<path class="st5" d="M459.6,156.6L349.3,69l70.9,127.5L459.6,156.6z"/>
<path class="st5" d="M318.3,219.3l-85.8-107.4l186.8,77.7L318.3,219.3z"/>
<path class="st5" d="M121,133.7l112-17.2l85.8,107.4L121,133.7z"/>
<path class="st10" d="M91.2,231.5L123,131.1l197.9,90.2l-121.5,23.9L91.2,231.5z"/>
<path class="st10" d="M222.6,374.6l-25.1-125.9L319,224.8L222.6,374.6z"/>
<path class="st11" d="M74,278.6l123.1-33.1l25.1,125.9L74,278.6z"/>
<path class="st12" d="M89,231.8L74,278.6l123.1-33.1L89,231.8z"/>
<path class="st11" d="M75,157l14.3,77l-14.9,46.8L75,157z"/>
<path class="st11" d="M9.7,205.3l63.5-52.6l-0.7,123.8L9.7,205.3z"/>
<path class="st10" d="M50.4,123.5l-38.9,86.2L75,157L50.4,123.5z"/>
<path class="st5" d="M120.4,129.1l-70.6-10.2l24.6,33.6L120.4,129.1z"/>
<path class="st10" d="M93.5,231.2l-14.3-77l46-23.3L93.5,231.2z"/>
<path class="st7" d="M456.5,122.9l85.7,75.5L459,152L456.5,122.9z"/>
<path class="st13" d="M355.8,37l106.7,117.2l-2.5-29.2l-29.9-43.8l-63.3-43.3L355.8,37z"/>
<path class="st5" d="M349.9,66.6l3.6-29.6l106.7,117.2L349.9,66.6z"/>
<path class="st5" d="M315.9,97.6l-47.6-38l80.5,6.1L315.9,97.6z"/>
<path class="st5" d="M232.6,113.3l35.5-55.8l47.6,38L232.6,113.3z"/>
<path class="st11" d="M121,133.7l96.2-52.2l-84.3-42.3L121,133.7z"/>
<path class="st5" d="M233,114.2l-15.8-35l-96.2,52.2L233,114.2z"/>
<path class="st5" d="M267.6,53.9l-51.3,20.8l15.8,35L267.6,53.9z"/>
<path class="st5" d="M305.9,41.7L268,56.8l80.5,6.1L305.9,41.7z"/>
<path class="st5" d="M352.3,34.9l-46.2,8.4l42.6,21.2L352.3,34.9z"/>
<path class="st7" d="M231.9,2.2l74.5,43.4l46.2-8.4L231.9,2.2z"/>
<path class="st4" d="M217.2,81.5l-19-38.8c0,0,11.7,3.4,29-5.7l41.3,23.7L217.2,81.5z"/>
<path class="st14" d="M306.1,43.2l-69.4-19.7c0,0,0.7,6.7-9.8,11.1l41.3,23.7L306.1,43.2z"/>
<path class="st15" d="M132.6,36.9l49.9-29.5l5.3,12.1c0,0-6.8,5.9-2.4,12.7c4.4,6.8,12.6,8.1,12.6,8.1l19,38.8L132.6,36.9z"/>
<path class="st14" d="M231.9,2.2l-49.1,7.6l22.2,4.4c0,0,12.6-1.5,22.3,3.7c9.8,5.2,9.6,8.1,9.6,8.1l69.4,19.7L231.9,2.2z"/>
<path class="st5" d="M188.2,23c0,0,5.4-6.8,17-7.7L183,10.9L188.2,23z"/>
<path class="st10" d="M50.2,122.3l82.6-84.3l-11.9,94.5L50.2,122.3z"/>
<path class="st16" d="M28.4,103.4l-17.2,104l38.9-86.2L28.4,103.4z"/>
<path class="st11" d="M0.4,181.5l11,28.2l17.2-104L0.4,181.5z"/>
<path class="st10" d="M7.7,126.8L0,178.3l28.2-75.8L7.7,126.8z"/>
<path class="st11" d="M132.9,39.2L28.7,105.7l21.7,17.8L132.9,39.2z"/>
<path class="st5" d="M78,50.6l-49.6,52.9l104.3-66.5L78,50.6z"/>
<path class="st5" d="M144.4,11.9L133,39.7L78.3,53.3L144.4,11.9z"/>
<path class="st5" d="M182.8,9.8l-38.5,1.7l-11.5,27.8L182.8,9.8z"/>
<path class="st5" d="M219.9,0l-37.1,9.8l-38.5,1.7L219.9,0z"/>
<path class="st5" d="M232.2,4.4l-12-2.2L183.1,12L232.2,4.4z"/>
<path class="st7" d="M352.9,39.4L287,8.2l-66.8-5.9l12,2.2L352.9,39.4z"/>
<path class="st7" d="M363.9,40.3l-42.5-20.8L287,8.2l65.9,31.2L363.9,40.3z"/>
<path class="st15" d="M490.9,400.4L378.1,422l-59.2-198.1L490.9,400.4z"/>
<path class="st4" d="M225.4,31.3c0,0-15.5,7.9-27.4,5.4c-11.9-2.5-12.3-11.4-12.3-11.4s-0.6-7.2,11.7-12.1c12.3-5,24.2-0.3,24.2-0.3
	s15.5,6,12,11.6C231,28.6,225.4,31.3,225.4,31.3z"/>
<path class="st17" d="M136.2,99.8c0,0-11.8-13.8,9.6-26.5c21.4-12.8,31-1.8,31-1.8s11,13-9.6,25.2
	C146.5,108.8,136.2,99.8,136.2,99.8z"/>
<path class="st12" d="M138.1,93.4c0,0-10.3-12.1,8.5-23.3c18.8-11.2,27.2-1.6,27.2-1.6s9.7,11.4-8.5,22.1
	C147.1,101.4,138.1,93.4,138.1,93.4z"/>
<path class="st17" d="M292.5,35.6c0,0-20-5.5-17.4-11.3c2.6-5.8,23.9,1.1,23.9,1.1s17.4,5.4,16.6,11.2
	C314.8,42.4,292.5,35.6,292.5,35.6z"/>
<path class="st8" d="M291.9,29.8c0,0-17.5-4.9-14.9-9.3c2.6-4.4,21.2,1.7,21.2,1.7s15.1,4.8,14.1,9.2
	C311.4,35.8,291.9,29.8,291.9,29.8z"/>
</svg>
