<?xml version="1.0" encoding="utf-8"?>
<!-- Generator: Adobe Illustrator 24.3.0, SVG Export Plug-In . SVG Version: 6.00 Build 0)  -->
<svg version="1.1" id="Layer_1" xmlns="http://www.w3.org/2000/svg" xmlns:xlink="http://www.w3.org/1999/xlink" x="0px" y="0px"
	 viewBox="0 0 1080 1080" style="enable-background:new 0 0 1080 1080;" xml:space="preserve">
<style type="text/css">
	.st0{display:none;}
	.st1{fill:none;stroke:#0064FA;stroke-miterlimit:10;}
	.st2{opacity:0.7;fill:#0064FA;enable-background:new    ;}
	.st3{opacity:0.3;fill:#0064FA;enable-background:new    ;}
	.st4{opacity:0.8;fill:#0064FA;enable-background:new    ;}
	.st5{opacity:0.5;fill:#0064FA;enable-background:new    ;}
	.st6{opacity:0.6;fill:#0064FA;enable-background:new    ;}
	.st7{opacity:0.45;fill:#0064FA;enable-background:new    ;}
	.st8{opacity:0.65;fill:#0064FA;enable-background:new    ;}
</style>
<g class="st0">
	
		<image style="display:inline;overflow:visible;opacity:0.35;enable-background:new    ;" width="1294" height="1129" xlink:href="2BCE9912.png"  transform="matrix(0.9991 0 0 0.9991 776.3896 -904.9396)">
	</image>
</g>
<g>
	<polygon class="st1" points="565.2,289.3 579.5,267.4 612.9,280.6 	"/>
	<polygon class="st1" points="598.6,302.5 565.2,289.3 612.9,280.6 	"/>
	<polygon class="st1" points="643.2,318.9 657.5,297 690.9,310.2 	"/>
	<polygon class="st1" points="676.6,332 643.2,318.9 690.9,310.2 	"/>
	<polygon class="st1" points="516.9,329.4 596.2,199.4 751.1,258.2 667.1,381.9 	"/>
	<polyline class="st1" points="596.2,199.4 592,166.9 509.8,297 516.9,329.4 	"/>
	<polygon class="st1" points="592,166.9 744.4,226.6 660.8,352.3 509.8,297 	"/>
	<polygon class="st1" points="751.1,258.2 744.4,226.6 660.8,352.3 667.1,381.9 	"/>
	<polygon class="st1" points="502.4,291.5 509.8,337.9 395.3,513.3 389.4,470.5 	"/>
	<polygon class="st1" points="509.8,337.9 673.9,393.1 555.6,561.9 395.3,513.3 	"/>
	<polygon class="st1" points="502.4,291.5 667.1,351 550.7,521.4 389.4,470.5 	"/>
	<polygon class="st1" points="673.9,393.1 667.1,351 550.7,521.4 555.6,561.9 	"/>
	<polygon class="st1" points="398.7,557.4 395.3,513.3 391.6,539.4 	"/>
	<polygon class="st1" points="389.4,470.5 391.6,539.4 395.3,513.3 	"/>
	<polygon class="st1" points="498.7,589.3 398.7,557.4 395.3,513.3 	"/>
	<polygon class="st1" points="555.6,561.9 395.3,513.3 498.7,589.3 	"/>
	<polygon class="st1" points="390,541 387.3,561.9 393.6,575.4 396.7,557.4 	"/>
	<polygon class="st1" points="384.3,564.7 381.7,586.4 388.7,599.9 391,579.1 	"/>
	<polygon class="st1" points="379,589 376,610.7 382.2,624.2 385.3,602.6 	"/>
	<polygon class="st1" points="372.9,614 371.5,635.7 377.8,648.4 378.9,626.4 	"/>
	<polygon class="st1" points="367.3,638.8 365.9,661 370.9,672.9 373.2,650.9 	"/>
	<polygon class="st1" points="362.8,666.6 362.2,688.3 366,699.8 367.9,678.6 	"/>
	<polygon class="st1" points="396.9,577.2 482.6,603.7 498.7,589.3 398.7,557.4 	"/>
	<polygon class="st1" points="392.4,602.9 467.4,623 477.8,609.7 393,581.9 	"/>
	<polygon class="st1" points="385,626 457.4,643.3 465.5,628 387.3,606.2 	"/>
	<polygon class="st1" points="381.7,650 448.8,661.2 454.8,648 381.7,630.4 	"/>
	<polygon class="st1" points="373.7,675.5 440.5,681.4 446,666 375.5,655.7 	"/>
	<polygon class="st1" points="368.7,702 435.1,702.4 438.7,687.6 370.5,682.2 	"/>
	<path class="st1" d="M362.2,717.9c0,0,18.3,17.3,56.1,9.5c0,0-27.7,97.8-3.8,262.3h-55.8C358.6,989.7,339.4,809.7,362.2,717.9z"/>
</g>
<g>
	<polygon class="st2" points="516.9,333.4 596.2,203.4 751.1,262.2 667.1,385.9 	"/>
	<polygon class="st3" points="592,162.9 744.4,222.6 660.8,348.3 509.8,293 	"/>
	<polygon class="st4" points="569.2,293.3 583.5,271.4 616.9,284.6 	"/>
	<polygon class="st4" points="606.6,310.5 573.2,297.3 620.9,288.6 	"/>
	<polygon class="st4" points="647.2,322.9 661.5,301 694.9,314.2 	"/>
	<polygon class="st4" points="684.6,340 651.2,326.9 698.9,318.2 	"/>
	<polyline class="st5" points="592.2,199.4 588,166.9 505.8,297 512.9,329.4 	"/>
	<polygon class="st5" points="755.1,258.2 748.4,226.6 664.8,352.3 671.1,381.9 	"/>
	<polygon class="st5" points="498.4,291.5 505.8,337.9 391.3,513.3 385.4,470.5 	"/>
	<polygon class="st2" points="513.8,341.9 677.9,397.1 559.6,565.9 399.3,517.3 	"/>
	<polygon class="st3" points="498.4,287.5 663.1,347 546.7,517.4 385.4,466.5 	"/>
	<polygon class="st5" points="677.9,393.1 671.1,351 554.7,521.4 559.6,561.9 	"/>
	<polygon class="st5" points="394.7,557.4 391.3,513.3 387.6,539.4 	"/>
	<polygon class="st5" points="387.4,470.5 389.6,539.4 393.3,513.3 	"/>
	<polygon class="st6" points="502.7,593.3 402.7,561.4 399.3,517.3 	"/>
	<polygon class="st6" points="561.6,568.3 401.3,519.7 504.7,595.7 	"/>
	<polygon class="st7" points="390,541 387.3,561.9 393.6,575.4 396.7,557.4 	"/>
	<polygon class="st7" points="384.3,564.7 381.7,586.4 388.7,599.9 391,579.1 	"/>
	<polygon class="st7" points="379,589 376,610.7 382.2,624.2 385.3,602.6 	"/>
	<polygon class="st7" points="372.9,614 371.5,635.7 377.8,648.4 378.9,626.4 	"/>
	<polygon class="st7" points="367.3,638.8 365.9,661 370.9,672.9 373.2,650.9 	"/>
	<polygon class="st7" points="362.8,666.6 362.2,688.3 366,699.8 367.9,678.6 	"/>
	<polygon class="st8" points="400.1,580.4 485.8,606.9 501.9,592.5 401.9,560.6 	"/>
	<polygon class="st8" points="394.8,605.3 469.8,625.4 480.2,612.1 395.4,584.3 	"/>
	<polygon class="st8" points="386.6,627.6 459,644.9 467.1,629.6 388.9,607.8 	"/>
	<polygon class="st8" points="382.9,650.8 450,662 456,648.8 382.9,631.2 	"/>
	<polygon class="st8" points="374.1,675.9 440.9,681.8 446.4,666.4 375.9,656.1 	"/>
	<polygon class="st8" points="368.7,702 435.1,702.4 438.7,687.6 370.5,682.2 	"/>
	<path class="st5" d="M366.2,713.9c0,0,18.3,17.3,56.1,9.5c0,0-27.7,97.8-3.8,262.3h-55.8C362.6,985.7,343.4,805.7,366.2,713.9z"/>
</g>
</svg>
