<?xml version="1.0" encoding="utf-8"?>
<!-- Generator: Adobe Illustrator 24.3.0, SVG Export Plug-In . SVG Version: 6.00 Build 0)  -->
<svg version="1.1" id="Layer_1" xmlns="http://www.w3.org/2000/svg" xmlns:xlink="http://www.w3.org/1999/xlink" x="0px" y="0px"
	 viewBox="0 0 988.9 493" style="enable-background:new 0 0 988.9 493;" xml:space="preserve">
<style type="text/css">
	.st0{fill:#0064FB;}
	.st1{opacity:0.4;fill:#0064FB;enable-background:new    ;}
	.st2{opacity:0.25;fill:#0064FB;enable-background:new    ;}
	.st3{opacity:0.45;fill:#0064FB;enable-background:new    ;}
	.st4{opacity:0.5;fill:#0064FB;enable-background:new    ;}
	.st5{opacity:0.7;fill:#0064FB;enable-background:new    ;}
	.st6{opacity:0.54;fill:#0064FB;enable-background:new    ;}
	.st7{opacity:0.6;fill:#0064FB;enable-background:new    ;}
	.st8{opacity:0.3;fill:#0064FB;enable-background:new    ;}
	.st9{opacity:0.2;fill:#0064FB;enable-background:new    ;}
	.st10{opacity:0.8;fill:#0064FB;enable-background:new    ;}
	.st11{fill:none;stroke:#0064FB;stroke-miterlimit:10;}
	.st12{fill:none;stroke:#0064FB;}
</style>
<path class="st0" d="M440.4,5h-0.3l-2.5,3h-1l-2.5-3h-0.3V14H433V4.2h1.5l2.5,3h0.2l2.5-3h1.5V14h-0.8V5z M447.7,9l-0.9-1.1h-2
	l-1,1.3l-0.5-0.7l1.2-1.4h2.8l1.4,1.7V14h-0.8V9z M445.6,14.1c-0.9,0-1.7-0.2-2.1-0.5c-0.5-0.4-0.7-0.9-0.7-1.6
	c0-0.7,0.2-1.2,0.7-1.5c0.5-0.3,1.2-0.5,2.1-0.5c0.9,0,1.6,0.2,2,0.5c0.5,0.3,0.7,0.8,0.7,1.5c0,0.7-0.2,1.2-0.7,1.6
	C447.2,13.9,446.5,14.1,445.6,14.1z M445.6,13.3c0.7,0,1.2-0.1,1.5-0.3c0.3-0.2,0.5-0.6,0.5-1c0-0.4-0.2-0.8-0.5-1
	c-0.3-0.2-0.8-0.3-1.5-0.3c-0.7,0-1.2,0.1-1.5,0.3c-0.3,0.2-0.5,0.5-0.5,1c0,0.4,0.2,0.8,0.5,1C444.5,13.2,445,13.3,445.6,13.3z
	 M449.9,12.5l0.5-0.6l1.1,1.3h2.5l0.6-0.7v-0.8l-0.7-0.8h-2.8l-1-1.2V8.2l1-1.2h2.8l1.2,1.5l-0.5,0.6l-1.1-1.3h-2.1L451,8.5v0.9
	l0.5,0.6h2.8l1.1,1.3v1.4l-1,1.2h-3.3L449.9,12.5z M456.7,12.2V8.8l1.5-1.8h3.1l1.1,1.3l-0.5,0.7l-0.9-1.1h-2.3l-1.1,1.3v2.8
	l1.1,1.3h2.4l0.9-1.1l0.6,0.7l-1.1,1.3h-3.2L456.7,12.2z M463.9,4.2h0.8v3.7l0.7-0.9h2.6l1.5,1.8V14h-0.8V9.1l-1.1-1.3h-1.8
	l-1.1,1.3V14h-0.8V4.2z M470.8,12.2v-1.8c0-1.2,0.3-2,0.8-2.6c0.5-0.6,1.3-0.9,2.2-0.9s1.7,0.3,2.2,0.8s0.8,1.4,0.8,2.5v0.6h-5.2
	v1.1l1.1,1.3h2.2l1-1.2l0.5,0.6l-1.2,1.4h-2.9L470.8,12.2z M476,10c0-0.7-0.2-1.3-0.5-1.7c-0.4-0.4-0.9-0.6-1.6-0.6
	c-0.7,0-1.2,0.2-1.6,0.6c-0.4,0.4-0.5,0.9-0.5,1.7H476z M478.2,7h0.8v0.9l0.7-0.9h1.6l1.2,1.4L482,9.1l-1-1.2h-0.8l-1,1.3V14h-0.8V7
	z M488,9l-0.9-1.1h-2l-1,1.3l-0.5-0.7l1.2-1.4h2.8l1.4,1.7V14H488V9z M486,14.1c-0.9,0-1.7-0.2-2.1-0.5c-0.5-0.4-0.7-0.9-0.7-1.6
	c0-0.7,0.2-1.2,0.7-1.5c0.5-0.3,1.2-0.5,2.1-0.5c0.9,0,1.6,0.2,2,0.5c0.5,0.3,0.7,0.8,0.7,1.5c0,0.7-0.2,1.2-0.7,1.6
	C487.6,13.9,486.9,14.1,486,14.1z M486,13.3c0.7,0,1.2-0.1,1.5-0.3c0.3-0.2,0.5-0.6,0.5-1c0-0.4-0.2-0.8-0.5-1
	c-0.3-0.2-0.8-0.3-1.5-0.3c-0.7,0-1.2,0.1-1.5,0.3c-0.3,0.2-0.5,0.5-0.5,1c0,0.4,0.2,0.8,0.5,1C484.8,13.2,485.3,13.3,486,13.3z
	 M497.2,14.1c1,0,1.8-0.3,2.3-0.9c0.5-0.6,0.8-1.5,0.8-2.7c0-1.2-0.3-2.1-0.8-2.7c-0.5-0.6-1.3-0.9-2.3-0.9c-1.1,0-1.9,0.3-2.4,0.9
	c-0.5,0.6-0.8,1.5-0.8,2.7c0,1.2,0.3,2.1,0.8,2.7C495.4,13.8,496.2,14.1,497.2,14.1z M500.4,4.2h-0.8V14h0.8V4.2z M497.2,13.3
	c-0.8,0-1.4-0.2-1.8-0.7c-0.4-0.5-0.6-1.2-0.6-2.1c0-0.9,0.2-1.6,0.6-2.1c0.4-0.5,1-0.7,1.8-0.7c0.8,0,1.4,0.2,1.8,0.7
	c0.4,0.5,0.6,1.2,0.6,2.1c0,0.9-0.2,1.6-0.6,2.1C498.6,13,498,13.3,497.2,13.3z M501.8,13.2h1.1V7h0.8v6.2h1.1V14h-3.1V13.2z
	 M503.4,5.5c-0.2,0-0.3-0.1-0.5-0.2c-0.1-0.1-0.2-0.3-0.2-0.5s0.1-0.3,0.2-0.5c0.1-0.1,0.3-0.2,0.5-0.2s0.3,0.1,0.5,0.2
	c0.1,0.1,0.2,0.3,0.2,0.5s-0.1,0.3-0.2,0.5C503.7,5.4,503.5,5.5,503.4,5.5z M506.3,15.1l0.5-0.7l1.3,1.5h2.3l0.9-1.1V7h0.8v8.2
	l-1.4,1.6h-3.1L506.3,15.1z M508.9,14.1c-1.1,0-1.9-0.3-2.4-0.9c-0.5-0.6-0.8-1.5-0.8-2.7c0-1.2,0.3-2.1,0.8-2.7
	c0.5-0.6,1.3-0.9,2.4-0.9c1,0,1.8,0.3,2.3,0.9c0.5,0.6,0.8,1.5,0.8,2.7c0,1.2-0.3,2.1-0.8,2.7C510.7,13.8,509.9,14.1,508.9,14.1z
	 M508.9,13.3c0.8,0,1.4-0.2,1.8-0.7c0.4-0.5,0.6-1.2,0.6-2.1c0-0.9-0.2-1.6-0.6-2.1c-0.4-0.5-1-0.7-1.8-0.7c-0.8,0-1.4,0.2-1.8,0.7
	c-0.4,0.5-0.6,1.2-0.6,2.1c0,0.9,0.2,1.6,0.6,2.1C507.6,13,508.2,13.3,508.9,13.3z M513.5,13.2h1.1V7h0.8v6.2h1.1V14h-3.1V13.2z
	 M515.1,5.5c-0.2,0-0.3-0.1-0.5-0.2c-0.1-0.1-0.2-0.3-0.2-0.5s0.1-0.3,0.2-0.5c0.1-0.1,0.3-0.2,0.5-0.2c0.2,0,0.3,0.1,0.5,0.2
	c0.1,0.1,0.2,0.3,0.2,0.5s-0.1,0.3-0.2,0.5C515.4,5.4,515.2,5.5,515.1,5.5z M518.6,12.7V7.8h-1.3V7h1.3V5.2h0.8V7h1.5v0.8h-1.5v4.6
	l0.6,0.8h0.9V14h-1.3L518.6,12.7z M526.7,9l-0.9-1.1h-2l-1,1.3l-0.5-0.7l1.2-1.4h2.8l1.4,1.7V14h-0.8V9z M524.6,14.1
	c-0.9,0-1.7-0.2-2.1-0.5c-0.5-0.4-0.7-0.9-0.7-1.6c0-0.7,0.2-1.2,0.7-1.5c0.5-0.3,1.2-0.5,2.1-0.5c0.9,0,1.6,0.2,2,0.5
	c0.5,0.3,0.7,0.8,0.7,1.5c0,0.7-0.2,1.2-0.7,1.6C526.2,13.9,525.5,14.1,524.6,14.1z M524.6,13.3c0.7,0,1.2-0.1,1.5-0.3
	c0.3-0.2,0.5-0.6,0.5-1c0-0.4-0.2-0.8-0.5-1c-0.3-0.2-0.8-0.3-1.5-0.3c-0.7,0-1.2,0.1-1.5,0.3c-0.3,0.2-0.5,0.5-0.5,1
	c0,0.4,0.2,0.8,0.5,1C523.5,13.2,524,13.3,524.6,13.3z M529.6,5h-1.1V4.2h2V14h-0.8V5z M532,12.2v-1.8c0-1.2,0.3-2,0.8-2.6
	c0.5-0.6,1.3-0.9,2.2-0.9c1,0,1.7,0.3,2.2,0.8c0.5,0.6,0.8,1.4,0.8,2.5v0.6h-5.2v1.1l1.1,1.3h2.2l1-1.2l0.5,0.6l-1.2,1.4h-2.9
	L532,12.2z M537.1,10c0-0.7-0.2-1.3-0.5-1.7c-0.4-0.4-0.9-0.6-1.6-0.6c-0.7,0-1.2,0.2-1.6,0.6c-0.4,0.4-0.5,0.9-0.5,1.7H537.1z
	 M543,12.2V8.8l1.5-1.8h3.1l1.1,1.3l-0.5,0.7l-0.9-1.1h-2.3l-1.1,1.3v2.8l1.1,1.3h2.4l0.9-1.1l0.6,0.7l-1.1,1.3h-3.2L543,12.2z
	 M550.2,4.2h0.8v3.7l0.7-0.9h2.6l1.5,1.8V14h-0.8V9.1l-1.1-1.3h-1.8L551,9.1V14h-0.8V4.2z M557.2,12.2v-1.8c0-1.2,0.3-2,0.8-2.6
	c0.5-0.6,1.3-0.9,2.2-0.9s1.7,0.3,2.2,0.8s0.8,1.4,0.8,2.5v0.6H558v1.1l1.1,1.3h2.2l1-1.2l0.5,0.6l-1.2,1.4h-2.9L557.2,12.2z
	 M562.3,10c0-0.7-0.2-1.3-0.5-1.7c-0.4-0.4-0.9-0.6-1.6-0.6s-1.2,0.2-1.6,0.6c-0.4,0.4-0.5,0.9-0.5,1.7H562.3z M568.2,11.3V7h0.8v4
	l1.8,2.2h0.3l1.8-2.2V7h0.8v4.3l-2.2,2.7h-1.1L568.2,11.3z M574.8,13.2h1.1V7h0.8v6.2h1.1V14h-3.1V13.2z M576.3,5.5
	c-0.2,0-0.3-0.1-0.5-0.2c-0.1-0.1-0.2-0.3-0.2-0.5s0.1-0.3,0.2-0.5c0.1-0.1,0.3-0.2,0.5-0.2c0.2,0,0.3,0.1,0.5,0.2
	c0.1,0.1,0.2,0.3,0.2,0.5s-0.1,0.3-0.2,0.5C576.7,5.4,576.5,5.5,576.3,5.5z M578.9,12.5l0.5-0.6l1.1,1.3h2.5l0.6-0.7v-0.8l-0.7-0.8
	h-2.8l-1-1.2V8.2l1-1.2h2.8l1.2,1.5l-0.5,0.6l-1.1-1.3h-2.1L580,8.5v0.9l0.5,0.6h2.8l1.1,1.3v1.4l-1,1.2h-3.3L578.9,12.5z M591.3,14
	h-0.8v-0.9l-0.7,0.9h-2.5l-1.5-1.8V7h0.8v4.9l1.1,1.3h1.7l1.1-1.3V7h0.8V14z M597.6,9l-0.9-1.1h-2l-1,1.3L593,8.4l1.2-1.4h2.8
	l1.4,1.7V14h-0.8V9z M595.5,14.1c-0.9,0-1.7-0.2-2.1-0.5c-0.5-0.4-0.7-0.9-0.7-1.6c0-0.7,0.2-1.2,0.7-1.5c0.5-0.3,1.2-0.5,2.1-0.5
	c0.9,0,1.6,0.2,2,0.5c0.5,0.3,0.7,0.8,0.7,1.5c0,0.7-0.2,1.2-0.7,1.6C597.1,13.9,596.4,14.1,595.5,14.1z M595.5,13.3
	c0.7,0,1.2-0.1,1.5-0.3c0.3-0.2,0.5-0.6,0.5-1c0-0.4-0.2-0.8-0.5-1c-0.3-0.2-0.8-0.3-1.5-0.3c-0.7,0-1.2,0.1-1.5,0.3
	c-0.3,0.2-0.5,0.5-0.5,1c0,0.4,0.2,0.8,0.5,1C594.4,13.2,594.9,13.3,595.5,13.3z M600.5,5h-1.1V4.2h2V14h-0.8V5z M602.8,13.2h1.1V7
	h0.8v6.2h1.1V14h-3.1V13.2z M604.3,5.5c-0.2,0-0.3-0.1-0.5-0.2c-0.1-0.1-0.2-0.3-0.2-0.5s0.1-0.3,0.2-0.5c0.1-0.1,0.3-0.2,0.5-0.2
	c0.2,0,0.3,0.1,0.5,0.2c0.1,0.1,0.2,0.3,0.2,0.5s-0.1,0.3-0.2,0.5C604.6,5.4,604.5,5.5,604.3,5.5z M607,11.8l1.5-1.7h1.8l1-1.2V7.8
	h-3.9V7h4.8v2.2l-1.5,1.7h-1.8l-1,1.2v1.1h4.5V14H607V11.8z M613.7,11.8l1.5-1.7h1.8l1-1.2V7.8H614V7h4.8v2.2l-1.5,1.7h-1.8l-1,1.2
	v1.1h4.5V14h-5.3V11.8z M625.1,9l-0.9-1.1h-2l-1,1.3l-0.5-0.7l1.2-1.4h2.8l1.4,1.7V14h-0.8V9z M623.1,14.1c-0.9,0-1.7-0.2-2.1-0.5
	c-0.5-0.4-0.7-0.9-0.7-1.6c0-0.7,0.2-1.2,0.7-1.5c0.5-0.3,1.2-0.5,2.1-0.5c0.9,0,1.6,0.2,2,0.5c0.5,0.3,0.7,0.8,0.7,1.5
	c0,0.7-0.2,1.2-0.7,1.6C624.6,13.9,623.9,14.1,623.1,14.1z M623.1,13.3c0.7,0,1.2-0.1,1.5-0.3c0.3-0.2,0.5-0.6,0.5-1
	c0-0.4-0.2-0.8-0.5-1c-0.3-0.2-0.8-0.3-1.5-0.3c-0.7,0-1.2,0.1-1.5,0.3c-0.3,0.2-0.5,0.5-0.5,1c0,0.4,0.2,0.8,0.5,1
	C621.9,13.2,622.4,13.3,623.1,13.3z M631.9,5h-1.1V4.2h2V14h-0.8V5z M634.3,12.2v-1.8c0-1.2,0.3-2,0.8-2.6c0.5-0.6,1.3-0.9,2.2-0.9
	c1,0,1.7,0.3,2.2,0.8c0.5,0.6,0.8,1.4,0.8,2.5v0.6h-5.2v1.1l1.1,1.3h2.2l1-1.2l0.5,0.6l-1.2,1.4h-2.9L634.3,12.2z M639.5,10
	c0-0.7-0.2-1.3-0.5-1.7c-0.4-0.4-0.9-0.6-1.6-0.6c-0.7,0-1.2,0.2-1.6,0.6c-0.4,0.4-0.5,0.9-0.5,1.7H639.5z M432.4,29.2v-1.8
	c0-1.2,0.3-2,0.8-2.6c0.5-0.6,1.3-0.9,2.2-0.9s1.7,0.3,2.2,0.8c0.5,0.6,0.8,1.4,0.8,2.5v0.6h-5.2v1.1l1.1,1.3h2.2l1-1.2l0.5,0.6
	l-1.2,1.4h-2.9L432.4,29.2z M437.6,27c0-0.7-0.2-1.3-0.5-1.7c-0.4-0.4-0.9-0.6-1.6-0.6s-1.2,0.2-1.6,0.6c-0.4,0.4-0.5,0.9-0.5,1.7
	H437.6z M439.8,24h0.8v0.9l0.7-0.9h2.2l1.1,1.3l1.1-1.3h2.2l1.5,1.8V31h-0.8v-4.9l-1.1-1.3h-1.4l-1.1,1.3V31h-0.8v-4.9l-1.1-1.3
	h-1.4l-1.1,1.3V31h-0.8V24z M453.8,31.1c-1.1,0-1.9-0.3-2.4-0.9c-0.5-0.6-0.8-1.5-0.8-2.7s0.3-2.1,0.8-2.7c0.5-0.6,1.3-0.9,2.4-0.9
	c1.1,0,1.8,0.3,2.4,0.9c0.5,0.6,0.8,1.5,0.8,2.7s-0.3,2.1-0.8,2.7C455.6,30.8,454.8,31.1,453.8,31.1z M453.8,30.3
	c0.8,0,1.4-0.2,1.8-0.7c0.4-0.5,0.6-1.2,0.6-2.1s-0.2-1.6-0.6-2.1c-0.4-0.5-1-0.7-1.8-0.7c-0.8,0-1.4,0.2-1.8,0.7
	c-0.4,0.5-0.6,1.2-0.6,2.1s0.2,1.6,0.6,2.1C452.4,30,453,30.3,453.8,30.3z M458.1,28.8l1.5-1.7h1.8l1-1.2v-1.1h-3.9V24h4.8v2.2
	l-1.5,1.7h-1.8l-1,1.2v1.1h4.5V31h-5.3V28.8z M464.6,30.2h1.1V24h0.8v6.2h1.1V31h-3.1V30.2z M466.1,22.5c-0.2,0-0.3-0.1-0.5-0.2
	c-0.1-0.1-0.2-0.3-0.2-0.5s0.1-0.3,0.2-0.5c0.1-0.1,0.3-0.2,0.5-0.2c0.2,0,0.3,0.1,0.5,0.2c0.1,0.1,0.2,0.3,0.2,0.5
	s-0.1,0.3-0.2,0.5C466.4,22.4,466.3,22.5,466.1,22.5z M471.7,31.1c-1.1,0-1.9-0.3-2.4-0.9c-0.5-0.6-0.8-1.5-0.8-2.7s0.3-2.1,0.8-2.7
	c0.5-0.6,1.3-0.9,2.4-0.9s1.8,0.3,2.4,0.9c0.5,0.6,0.8,1.5,0.8,2.7s-0.3,2.1-0.8,2.7C473.5,30.8,472.7,31.1,471.7,31.1z M471.7,30.3
	c0.8,0,1.4-0.2,1.8-0.7c0.4-0.5,0.6-1.2,0.6-2.1s-0.2-1.6-0.6-2.1c-0.4-0.5-1-0.7-1.8-0.7s-1.4,0.2-1.8,0.7
	c-0.4,0.5-0.6,1.2-0.6,2.1s0.2,1.6,0.6,2.1C470.3,30,470.9,30.3,471.7,30.3z M476.3,24h0.8v0.9l0.7-0.9h2.5l1.5,1.8V31h-0.8v-4.9
	l-1.1-1.3h-1.7l-1.1,1.3V31h-0.8V24z M483,30.2h1.1V24h0.8v6.2h1.1V31H483V30.2z M484.6,22.5c-0.2,0-0.3-0.1-0.5-0.2
	c-0.1-0.1-0.2-0.3-0.2-0.5s0.1-0.3,0.2-0.5c0.1-0.1,0.3-0.2,0.5-0.2c0.2,0,0.3,0.1,0.5,0.2c0.1,0.1,0.2,0.3,0.2,0.5
	s-0.1,0.3-0.2,0.5C484.9,22.4,484.7,22.5,484.6,22.5z M494.1,31.1c1,0,1.8-0.3,2.3-0.9c0.5-0.6,0.8-1.5,0.8-2.7s-0.3-2.1-0.8-2.7
	c-0.5-0.6-1.3-0.9-2.3-0.9c-1.1,0-1.9,0.3-2.4,0.9c-0.5,0.6-0.8,1.5-0.8,2.7s0.3,2.1,0.8,2.7C492.2,30.8,493,31.1,494.1,31.1z
	 M497.2,21.2h-0.8V31h0.8V21.2z M494.1,30.3c-0.8,0-1.4-0.2-1.8-0.7c-0.4-0.5-0.6-1.2-0.6-2.1s0.2-1.6,0.6-2.1
	c0.4-0.5,1-0.7,1.8-0.7c0.8,0,1.4,0.2,1.8,0.7c0.4,0.5,0.6,1.2,0.6,2.1s-0.2,1.6-0.6,2.1C495.4,30,494.8,30.3,494.1,30.3z
	 M498.8,29.2v-1.8c0-1.2,0.3-2,0.8-2.6c0.5-0.6,1.3-0.9,2.2-0.9c1,0,1.7,0.3,2.2,0.8c0.5,0.6,0.8,1.4,0.8,2.5v0.6h-5.2v1.1l1.1,1.3
	h2.2l1-1.2l0.5,0.6l-1.2,1.4h-2.9L498.8,29.2z M503.9,27c0-0.7-0.2-1.3-0.5-1.7c-0.4-0.4-0.9-0.6-1.6-0.6c-0.7,0-1.2,0.2-1.6,0.6
	c-0.4,0.4-0.5,0.9-0.5,1.7H503.9z M506.5,22h-1.1v-0.8h2V31h-0.8V22z M509.5,22h-1.1v-0.8h2V31h-0.8V22z M511.9,23.3l0.9-1v-1.1h0.8
	v1.4l-1.2,1.4L511.9,23.3z M514.8,30.2h1.1V24h0.8v6.2h1.1V31h-3.1V30.2z M516.3,22.5c-0.2,0-0.3-0.1-0.5-0.2
	c-0.1-0.1-0.2-0.3-0.2-0.5s0.1-0.3,0.2-0.5c0.1-0.1,0.3-0.2,0.5-0.2s0.3,0.1,0.5,0.2c0.1,0.1,0.2,0.3,0.2,0.5s-0.1,0.3-0.2,0.5
	C516.6,22.4,516.5,22.5,516.3,22.5z M519.3,24h0.8v0.9l0.7-0.9h2.5l1.5,1.8V31h-0.8v-4.9l-1.1-1.3h-1.7l-1.1,1.3V31h-0.8V24z
	 M527.1,29.7v-4.9h-1.3V24h1.3v-1.8h0.8V24h1.5v0.8H528v4.5l0.6,0.8h0.9V31h-1.3L527.1,29.7z M530.5,29.2v-1.8c0-1.2,0.3-2,0.8-2.6
	c0.5-0.6,1.3-0.9,2.2-0.9c1,0,1.7,0.3,2.2,0.8c0.5,0.6,0.8,1.4,0.8,2.5v0.6h-5.2v1.1l1.1,1.3h2.2l1-1.2l0.5,0.6l-1.2,1.4H532
	L530.5,29.2z M535.6,27c0-0.7-0.2-1.3-0.5-1.7c-0.4-0.4-0.9-0.6-1.6-0.6c-0.7,0-1.2,0.2-1.6,0.6c-0.4,0.4-0.5,0.9-0.5,1.7H535.6z
	 M537.9,24h0.8v0.9l0.7-0.9h1.6l1.2,1.4l-0.5,0.6l-1.1-1.2h-0.8l-1,1.3V31h-0.8V24z M543.6,22h-1.1v-0.8h2V31h-0.8V22z M549,31.1
	c-1.1,0-1.9-0.3-2.4-0.9c-0.5-0.6-0.8-1.5-0.8-2.7s0.3-2.1,0.8-2.7c0.5-0.6,1.3-0.9,2.4-0.9c1.1,0,1.8,0.3,2.4,0.9
	c0.5,0.6,0.8,1.5,0.8,2.7s-0.3,2.1-0.8,2.7C550.9,30.8,550.1,31.1,549,31.1z M549,30.3c0.8,0,1.4-0.2,1.8-0.7
	c0.4-0.5,0.6-1.2,0.6-2.1s-0.2-1.6-0.6-2.1c-0.4-0.5-1-0.7-1.8-0.7c-0.8,0-1.4,0.2-1.8,0.7c-0.4,0.5-0.6,1.2-0.6,2.1
	s0.2,1.6,0.6,2.1C547.7,30,548.3,30.3,549,30.3z M553.3,29.2v-3.4l1.5-1.8h3.1l1.1,1.3l-0.5,0.7l-0.9-1.1h-2.3l-1.1,1.3v2.8l1,1.3
	h2.4l0.9-1.1l0.6,0.7L558,31h-3.2L553.3,29.2z M565.9,31H565v-0.9l-0.7,0.9h-2.5l-1.5-1.8V24h0.8v4.9l1.1,1.3h1.7l1.1-1.3V24h0.8V31
	z M568.4,29.7v-4.9h-1.3V24h1.3v-1.8h0.8V24h1.5v0.8h-1.5v4.5l0.6,0.8h0.9V31h-1.3L568.4,29.7z M574.8,31.1c-1.1,0-1.9-0.3-2.4-0.9
	c-0.5-0.6-0.8-1.5-0.8-2.7s0.3-2.1,0.8-2.7c0.5-0.6,1.3-0.9,2.4-0.9s1.8,0.3,2.4,0.9c0.5,0.6,0.8,1.5,0.8,2.7s-0.3,2.1-0.8,2.7
	C576.6,30.8,575.9,31.1,574.8,31.1z M574.8,30.3c0.8,0,1.4-0.2,1.8-0.7c0.4-0.5,0.6-1.2,0.6-2.1s-0.2-1.6-0.6-2.1
	c-0.4-0.5-1-0.7-1.8-0.7c-0.8,0-1.4,0.2-1.8,0.7c-0.4,0.5-0.6,1.2-0.6,2.1s0.2,1.6,0.6,2.1C573.4,30,574,30.3,574.8,30.3z M579.4,24
	h0.8v0.9l0.7-0.9h1.6l1.2,1.4l-0.5,0.6l-1.1-1.2h-0.8l-1,1.3V31h-0.8V24z M584.4,29.2v-1.8c0-1.2,0.3-2,0.8-2.6
	c0.5-0.6,1.3-0.9,2.2-0.9c1,0,1.7,0.3,2.2,0.8c0.5,0.6,0.8,1.4,0.8,2.5v0.6h-5.2v1.1l1.1,1.3h2.2l1-1.2l0.5,0.6l-1.2,1.4h-2.9
	L584.4,29.2z M589.6,27c0-0.7-0.2-1.3-0.5-1.7c-0.4-0.4-0.9-0.6-1.6-0.6c-0.7,0-1.2,0.2-1.6,0.6c-0.4,0.4-0.5,0.9-0.5,1.7H589.6z"/>
<path class="st0" d="M601,426.2h3.2c1,0,1.7,0.2,2.2,0.7c0.5,0.5,0.8,1.2,0.8,2.1s-0.3,1.6-0.8,2.1c-0.5,0.5-1.3,0.7-2.2,0.7h-2.3
	v4.2H601V426.2z M606.2,434.2l-2.2-2.7l1.1-0.1l2,2.4v2.1h-0.8V434.2z M604.1,431c0.7,0,1.2-0.2,1.6-0.5c0.4-0.3,0.6-0.8,0.6-1.5
	s-0.2-1.1-0.6-1.5c-0.4-0.3-0.9-0.5-1.6-0.5h-2.3v3.9H604.1z M608.4,434.2v-1.8c0-1.2,0.3-2,0.8-2.6c0.5-0.6,1.3-0.9,2.2-0.9
	c1,0,1.7,0.3,2.2,0.8c0.5,0.6,0.8,1.4,0.8,2.5v0.6h-5.2v1.1l1.1,1.3h2.2l1-1.2l0.5,0.6l-1.2,1.4h-2.9L608.4,434.2z M613.6,432
	c0-0.7-0.2-1.3-0.5-1.7c-0.4-0.4-0.9-0.6-1.6-0.6c-0.7,0-1.2,0.2-1.6,0.6c-0.4,0.4-0.5,0.9-0.5,1.7H613.6z M615.4,434.5l0.5-0.6
	l1.1,1.3h2.5l0.6-0.7v-0.8l-0.7-0.8h-2.8l-1-1.2v-1.6l1-1.2h2.8l1.2,1.5l-0.5,0.6l-1.1-1.3h-2.1l-0.6,0.7v0.9l0.5,0.6h2.8l1.1,1.3
	v1.4l-1,1.2h-3.3L615.4,434.5z M623,434.7v-4.9h-1.3V429h1.3v-1.8h0.8v1.8h1.5v0.8h-1.5v4.6l0.6,0.8h0.9v0.8h-1.3L623,434.7z
	 M626.2,435.2h1.1V429h0.8v6.2h1.1v0.8h-3.1V435.2z M627.8,427.5c-0.2,0-0.3-0.1-0.5-0.2c-0.1-0.1-0.2-0.3-0.2-0.5s0.1-0.3,0.2-0.5
	c0.1-0.1,0.3-0.2,0.5-0.2c0.2,0,0.3,0.1,0.5,0.2c0.1,0.1,0.2,0.3,0.2,0.5s-0.1,0.3-0.2,0.5C628.1,427.4,627.9,427.5,627.8,427.5z
	 M631.3,434.7v-4.9H630V429h1.3v-1.8h0.8v1.8h1.5v0.8h-1.5v4.6l0.6,0.8h0.9v0.8h-1.3L631.3,434.7z M640.4,436h-0.8v-0.9l-0.7,0.9
	h-2.5l-1.5-1.8V429h0.8v4.9l1.1,1.3h1.7l1.1-1.3V429h0.8V436z M642.1,433.8l1.5-1.7h1.8l1-1.2v-1.1h-3.9V429h4.8v2.2l-1.5,1.7h-1.8
	l-1,1.2v1.1h4.5v0.8h-5.3V433.8z M648.5,435.2h1.1V429h0.8v6.2h1.1v0.8h-3.1V435.2z M650.1,427.5c-0.2,0-0.3-0.1-0.5-0.2
	c-0.1-0.1-0.2-0.3-0.2-0.5s0.1-0.3,0.2-0.5c0.1-0.1,0.3-0.2,0.5-0.2c0.2,0,0.3,0.1,0.5,0.2c0.1,0.1,0.2,0.3,0.2,0.5
	s-0.1,0.3-0.2,0.5C650.4,427.4,650.3,427.5,650.1,427.5z M655.7,436.1c-1.1,0-1.9-0.3-2.4-0.9c-0.5-0.6-0.8-1.5-0.8-2.7
	s0.3-2.1,0.8-2.7c0.5-0.6,1.3-0.9,2.4-0.9c1.1,0,1.8,0.3,2.4,0.9c0.5,0.6,0.8,1.5,0.8,2.7s-0.3,2.1-0.8,2.7
	C657.5,435.8,656.7,436.1,655.7,436.1z M655.7,435.3c0.8,0,1.4-0.2,1.8-0.7c0.4-0.5,0.6-1.2,0.6-2.1s-0.2-1.6-0.6-2.1
	c-0.4-0.5-1-0.7-1.8-0.7c-0.8,0-1.4,0.2-1.8,0.7c-0.4,0.5-0.6,1.2-0.6,2.1s0.2,1.6,0.6,2.1C654.3,435,654.9,435.3,655.7,435.3z
	 M660.2,429h0.8v0.9l0.7-0.9h2.5l1.5,1.8v5.2h-0.8v-4.9l-1.1-1.3h-1.7l-1.1,1.3v4.9h-0.8V429z M667.1,434.2v-1.8
	c0-1.2,0.3-2,0.8-2.6c0.5-0.6,1.3-0.9,2.2-0.9c1,0,1.7,0.3,2.2,0.8c0.5,0.6,0.8,1.4,0.8,2.5v0.6H668v1.1l1.1,1.3h2.2l1-1.2l0.5,0.6
	l-1.2,1.4h-2.9L667.1,434.2z M672.3,432c0-0.7-0.2-1.3-0.5-1.7c-0.4-0.4-0.9-0.6-1.6-0.6c-0.7,0-1.2,0.2-1.6,0.6
	c-0.4,0.4-0.5,0.9-0.5,1.7H672.3z M681.1,436.1c1,0,1.8-0.3,2.3-0.9c0.5-0.6,0.8-1.5,0.8-2.7s-0.3-2.1-0.8-2.7
	c-0.5-0.6-1.3-0.9-2.3-0.9c-1.1,0-1.9,0.3-2.4,0.9c-0.5,0.6-0.8,1.5-0.8,2.7s0.3,2.1,0.8,2.7C679.2,435.8,680,436.1,681.1,436.1z
	 M684.3,426.2h-0.8v9.8h0.8V426.2z M681.1,435.3c-0.8,0-1.4-0.2-1.8-0.7c-0.4-0.5-0.6-1.2-0.6-2.1s0.2-1.6,0.6-2.1
	c0.4-0.5,1-0.7,1.8-0.7c0.8,0,1.4,0.2,1.8,0.7c0.4,0.5,0.6,1.2,0.6,2.1s-0.2,1.6-0.6,2.1C682.4,435,681.9,435.3,681.1,435.3z
	 M685.8,434.2v-1.8c0-1.2,0.3-2,0.8-2.6c0.5-0.6,1.3-0.9,2.2-0.9c1,0,1.7,0.3,2.2,0.8c0.5,0.6,0.8,1.4,0.8,2.5v0.6h-5.2v1.1l1.1,1.3
	h2.2l1-1.2l0.5,0.6l-1.2,1.4h-2.9L685.8,434.2z M691,432c0-0.7-0.2-1.3-0.5-1.7c-0.4-0.4-0.9-0.6-1.6-0.6c-0.7,0-1.2,0.2-1.6,0.6
	c-0.4,0.4-0.5,0.9-0.5,1.7H691z M692.6,435.2h1.1V429h0.8v6.2h1.1v0.8h-3.1V435.2z M694.2,427.5c-0.2,0-0.3-0.1-0.5-0.2
	c-0.1-0.1-0.2-0.3-0.2-0.5s0.1-0.3,0.2-0.5c0.1-0.1,0.3-0.2,0.5-0.2c0.2,0,0.3,0.1,0.5,0.2c0.1,0.1,0.2,0.3,0.2,0.5
	s-0.1,0.3-0.2,0.5C694.5,427.4,694.4,427.5,694.2,427.5z M703.7,436.1c1,0,1.8-0.3,2.3-0.9c0.5-0.6,0.8-1.5,0.8-2.7
	s-0.3-2.1-0.8-2.7c-0.5-0.6-1.3-0.9-2.3-0.9c-1.1,0-1.9,0.3-2.4,0.9c-0.5,0.6-0.8,1.5-0.8,2.7s0.3,2.1,0.8,2.7
	C701.8,435.8,702.6,436.1,703.7,436.1z M706.9,426.2H706v9.8h0.8V426.2z M703.7,435.3c-0.8,0-1.4-0.2-1.8-0.7
	c-0.4-0.5-0.6-1.2-0.6-2.1s0.2-1.6,0.6-2.1c0.4-0.5,1-0.7,1.8-0.7c0.8,0,1.4,0.2,1.8,0.7c0.4,0.5,0.6,1.2,0.6,2.1s-0.2,1.6-0.6,2.1
	C705,435,704.5,435.3,703.7,435.3z M713.2,431l-0.9-1.1h-2l-1,1.3l-0.5-0.7l1.2-1.4h2.8l1.4,1.7v5.3h-0.8V431z M711.1,436.1
	c-0.9,0-1.7-0.2-2.1-0.5c-0.5-0.4-0.7-0.9-0.7-1.6c0-0.7,0.2-1.2,0.7-1.5c0.5-0.3,1.2-0.5,2.1-0.5c0.9,0,1.6,0.2,2,0.5
	c0.5,0.3,0.7,0.8,0.7,1.5c0,0.7-0.2,1.2-0.7,1.6C712.7,435.9,712,436.1,711.1,436.1z M711.1,435.3c0.7,0,1.2-0.1,1.5-0.3
	c0.3-0.2,0.5-0.6,0.5-1c0-0.4-0.2-0.8-0.5-1c-0.3-0.2-0.8-0.3-1.5-0.3s-1.2,0.1-1.5,0.3c-0.3,0.2-0.5,0.5-0.5,1c0,0.4,0.2,0.8,0.5,1
	C710,435.2,710.5,435.3,711.1,435.3z M716.4,434.7v-4.9h-1.3V429h1.3v-1.8h0.8v1.8h1.5v0.8h-1.5v4.6l0.6,0.8h0.9v0.8h-1.3
	L716.4,434.7z M719.6,435.2h1.1V429h0.8v6.2h1.1v0.8h-3.1V435.2z M721.1,427.5c-0.2,0-0.3-0.1-0.5-0.2c-0.1-0.1-0.2-0.3-0.2-0.5
	s0.1-0.3,0.2-0.5c0.1-0.1,0.3-0.2,0.5-0.2s0.3,0.1,0.5,0.2c0.1,0.1,0.2,0.3,0.2,0.5s-0.1,0.3-0.2,0.5
	C721.5,427.4,721.3,427.5,721.1,427.5z M600.8,446h0.8v0.9l0.7-0.9h1.6l1.2,1.4l-0.5,0.6l-1-1.2h-0.8l-1,1.3v4.9h-0.8V446z
	 M605.9,451.2v-1.8c0-1.2,0.3-2,0.8-2.6c0.5-0.6,1.3-0.9,2.2-0.9c1,0,1.7,0.3,2.2,0.8s0.8,1.4,0.8,2.5v0.6h-5.2v1.1l1.1,1.3h2.2
	l1-1.2l0.5,0.6l-1.2,1.4h-2.9L605.9,451.2z M611,449c0-0.7-0.2-1.3-0.5-1.7c-0.4-0.4-0.9-0.6-1.6-0.6c-0.7,0-1.2,0.2-1.6,0.6
	c-0.4,0.4-0.5,0.9-0.5,1.7H611z M613.5,444h-1.1v-0.8h2v9.8h-0.8V444z M620.7,448l-0.9-1.1h-2l-1,1.3l-0.5-0.7l1.2-1.4h2.8l1.4,1.7
	v5.3h-0.8V448z M618.6,453.1c-0.9,0-1.7-0.2-2.1-0.5c-0.5-0.4-0.7-0.9-0.7-1.6c0-0.7,0.2-1.2,0.7-1.5c0.5-0.3,1.2-0.5,2.1-0.5
	c0.9,0,1.6,0.2,2,0.5c0.5,0.3,0.7,0.8,0.7,1.5c0,0.7-0.2,1.2-0.7,1.6C620.2,452.9,619.5,453.1,618.6,453.1z M618.6,452.3
	c0.7,0,1.2-0.1,1.5-0.3c0.3-0.2,0.5-0.6,0.5-1c0-0.4-0.2-0.8-0.5-1c-0.3-0.2-0.8-0.3-1.5-0.3c-0.7,0-1.2,0.1-1.5,0.3
	c-0.3,0.2-0.5,0.5-0.5,1c0,0.4,0.2,0.8,0.5,1C617.5,452.2,618,452.3,618.6,452.3z M623.9,451.7v-4.9h-1.3V446h1.3v-1.8h0.8v1.8h1.5
	v0.8h-1.5v4.6l0.6,0.8h0.9v0.8H625L623.9,451.7z M627.1,452.2h1.1V446h0.8v6.2h1.1v0.8h-3.1V452.2z M628.6,444.5
	c-0.2,0-0.3-0.1-0.5-0.2c-0.1-0.1-0.2-0.3-0.2-0.5s0.1-0.3,0.2-0.5c0.1-0.1,0.3-0.2,0.5-0.2c0.2,0,0.3,0.1,0.5,0.2
	c0.1,0.1,0.2,0.3,0.2,0.5s-0.1,0.3-0.2,0.5C629,444.4,628.8,444.5,628.6,444.5z M631.3,450.3V446h0.8v4l1.8,2.2h0.3l1.8-2.2v-4h0.8
	v4.3l-2.2,2.7h-1.1L631.3,450.3z M637.9,452.2h1.1V446h0.8v6.2h1.1v0.8h-3.1V452.2z M639.4,444.5c-0.2,0-0.3-0.1-0.5-0.2
	c-0.1-0.1-0.2-0.3-0.2-0.5s0.1-0.3,0.2-0.5c0.1-0.1,0.3-0.2,0.5-0.2c0.2,0,0.3,0.1,0.5,0.2c0.1,0.1,0.2,0.3,0.2,0.5
	s-0.1,0.3-0.2,0.5C639.8,444.4,639.6,444.5,639.4,444.5z M650.6,448l-0.9-1.1h-2l-1,1.3l-0.5-0.7l1.2-1.4h2.8l1.4,1.7v5.3h-0.8V448z
	 M648.6,453.1c-0.9,0-1.7-0.2-2.1-0.5c-0.5-0.4-0.7-0.9-0.7-1.6c0-0.7,0.2-1.2,0.7-1.5c0.5-0.3,1.2-0.5,2.1-0.5c0.9,0,1.6,0.2,2,0.5
	c0.5,0.3,0.7,0.8,0.7,1.5c0,0.7-0.2,1.2-0.7,1.6C650.2,452.9,649.5,453.1,648.6,453.1z M648.6,452.3c0.7,0,1.2-0.1,1.5-0.3
	c0.3-0.2,0.5-0.6,0.5-1c0-0.4-0.2-0.8-0.5-1c-0.3-0.2-0.8-0.3-1.5-0.3c-0.7,0-1.2,0.1-1.5,0.3c-0.3,0.2-0.5,0.5-0.5,1
	c0,0.4,0.2,0.8,0.5,1C647.4,452.2,647.9,452.3,648.6,452.3z M656.9,450.3V446h0.8v4l1.8,2.2h0.3l1.8-2.2v-4h0.8v4.3l-2.2,2.7h-1.1
	L656.9,450.3z M668.4,448l-0.9-1.1h-2l-1,1.3l-0.5-0.7l1.2-1.4h2.8l1.4,1.7v5.3h-0.8V448z M666.4,453.1c-0.9,0-1.7-0.2-2.1-0.5
	c-0.5-0.4-0.7-0.9-0.7-1.6c0-0.7,0.2-1.2,0.7-1.5c0.5-0.3,1.2-0.5,2.1-0.5c0.9,0,1.6,0.2,2,0.5c0.5,0.3,0.7,0.8,0.7,1.5
	c0,0.7-0.2,1.2-0.7,1.6C668,452.9,667.3,453.1,666.4,453.1z M666.4,452.3c0.7,0,1.2-0.1,1.5-0.3c0.3-0.2,0.5-0.6,0.5-1
	c0-0.4-0.2-0.8-0.5-1c-0.3-0.2-0.8-0.3-1.5-0.3c-0.7,0-1.2,0.1-1.5,0.3c-0.3,0.2-0.5,0.5-0.5,1c0,0.4,0.2,0.8,0.5,1
	C665.2,452.2,665.7,452.3,666.4,452.3z M671.4,444h-1.1v-0.8h2v9.8h-0.8V444z M673.7,451.2v-1.8c0-1.2,0.3-2,0.8-2.6
	c0.5-0.6,1.3-0.9,2.2-0.9c1,0,1.7,0.3,2.2,0.8c0.5,0.6,0.8,1.4,0.8,2.5v0.6h-5.2v1.1l1.1,1.3h2.2l1-1.2l0.5,0.6l-1.2,1.4h-2.9
	L673.7,451.2z M678.9,449c0-0.7-0.2-1.3-0.5-1.7c-0.4-0.4-0.9-0.6-1.6-0.6c-0.7,0-1.2,0.2-1.6,0.6c-0.4,0.4-0.5,0.9-0.5,1.7H678.9z
	 M681.1,446h0.8v0.9l0.7-0.9h2.5l1.5,1.8v5.2h-0.8v-4.9l-1.1-1.3H683l-1.1,1.3v4.9h-0.8V446z M688.2,451.2v-3.4l1.5-1.8h3.1l1.1,1.3
	l-0.5,0.7l-0.9-1.1h-2.3l-1.1,1.3v2.8l1,1.3h2.4l0.9-1.1l0.6,0.7l-1.1,1.3h-3.2L688.2,451.2z M694.9,451.2v-1.8c0-1.2,0.3-2,0.8-2.6
	c0.5-0.6,1.3-0.9,2.2-0.9c1,0,1.7,0.3,2.2,0.8c0.5,0.6,0.8,1.4,0.8,2.5v0.6h-5.2v1.1l1.1,1.3h2.2l1-1.2l0.5,0.6l-1.2,1.4h-2.9
	L694.9,451.2z M700.1,449c0-0.7-0.2-1.3-0.5-1.7c-0.4-0.4-0.9-0.6-1.6-0.6c-0.7,0-1.2,0.2-1.6,0.6c-0.4,0.4-0.5,0.9-0.5,1.7H700.1z
	 M701.8,453.8l0.9-1v-1.1h0.8v1.4l-1.2,1.4L701.8,453.8z M713.7,448l-0.9-1.1h-2l-1.1,1.3l-0.5-0.7l1.2-1.4h2.8l1.4,1.7v5.3h-0.8
	V448z M711.7,453.1c-0.9,0-1.7-0.2-2.1-0.5c-0.5-0.4-0.7-0.9-0.7-1.6c0-0.7,0.2-1.2,0.7-1.5c0.5-0.3,1.2-0.5,2.1-0.5
	c0.9,0,1.6,0.2,2,0.5c0.5,0.3,0.7,0.8,0.7,1.5c0,0.7-0.2,1.2-0.7,1.6C713.3,452.9,712.6,453.1,711.7,453.1z M711.7,452.3
	c0.7,0,1.2-0.1,1.5-0.3c0.3-0.2,0.5-0.6,0.5-1c0-0.4-0.2-0.8-0.5-1c-0.3-0.2-0.8-0.3-1.5-0.3c-0.7,0-1.2,0.1-1.5,0.3
	c-0.3,0.2-0.5,0.5-0.5,1c0,0.4,0.2,0.8,0.5,1C710.5,452.2,711,452.3,711.7,452.3z M716.4,446h0.8v0.9l0.7-0.9h1.6l1.2,1.4l-0.5,0.6
	l-1-1.2h-0.8l-1,1.3v4.9h-0.8V446z M724.5,453.1c-1.1,0-1.9-0.3-2.4-0.9c-0.5-0.6-0.8-1.5-0.8-2.7s0.3-2.1,0.8-2.7
	c0.5-0.6,1.3-0.9,2.4-0.9c1.1,0,1.8,0.3,2.4,0.9c0.5,0.6,0.8,1.5,0.8,2.7s-0.3,2.1-0.8,2.7C726.3,452.8,725.5,453.1,724.5,453.1z
	 M724.5,452.3c0.8,0,1.4-0.2,1.8-0.7c0.4-0.5,0.6-1.2,0.6-2.1s-0.2-1.6-0.6-2.1c-0.4-0.5-1-0.7-1.8-0.7c-0.8,0-1.4,0.2-1.8,0.7
	c-0.4,0.5-0.6,1.2-0.6,2.1s0.2,1.6,0.6,2.1C723.1,452,723.7,452.3,724.5,452.3z M734.4,453h-0.8v-0.9l-0.7,0.9h-2.5l-1.5-1.8V446
	h0.8v4.9l1.1,1.3h1.7l1.1-1.3V446h0.8V453z M735.9,451.5l0.5-0.6l1.1,1.3h2.5l0.6-0.7v-0.8l-0.7-0.8h-2.8l-1-1.2v-1.6l1-1.2h2.8
	l1.2,1.5l-0.5,0.6l-1.1-1.3h-2.1l-0.6,0.7v0.9l0.5,0.6h2.8l1.1,1.3v1.4l-1,1.2h-3.3L735.9,451.5z M747.3,448l-0.9-1.1h-2l-1,1.3
	l-0.5-0.7l1.2-1.4h2.8l1.4,1.7v5.3h-0.8V448z M745.3,453.1c-0.9,0-1.7-0.2-2.1-0.5c-0.5-0.4-0.7-0.9-0.7-1.6c0-0.7,0.2-1.2,0.7-1.5
	c0.5-0.3,1.2-0.5,2.1-0.5c0.9,0,1.6,0.2,2,0.5c0.5,0.3,0.7,0.8,0.7,1.5c0,0.7-0.2,1.2-0.7,1.6C746.9,452.9,746.2,453.1,745.3,453.1z
	 M745.3,452.3c0.7,0,1.2-0.1,1.5-0.3c0.3-0.2,0.5-0.6,0.5-1c0-0.4-0.2-0.8-0.5-1c-0.3-0.2-0.9-0.3-1.5-0.3c-0.7,0-1.2,0.1-1.5,0.3
	c-0.3,0.2-0.5,0.5-0.5,1c0,0.4,0.2,0.8,0.5,1C744.2,452.2,744.7,452.3,745.3,452.3z M750.3,444h-1.1v-0.8h2v9.8h-0.8V444z
	 M600.4,468.2v-1.8c0-1.2,0.3-2,0.8-2.6c0.5-0.6,1.3-0.9,2.2-0.9c1,0,1.7,0.3,2.2,0.8c0.5,0.6,0.8,1.4,0.8,2.5v0.6h-5.2v1.1l1.1,1.3
	h2.2l1-1.2l0.5,0.6l-1.2,1.4h-2.9L600.4,468.2z M605.6,466c0-0.7-0.2-1.3-0.5-1.7c-0.4-0.4-0.9-0.6-1.6-0.6c-0.7,0-1.2,0.2-1.6,0.6
	c-0.4,0.4-0.5,0.9-0.5,1.7H605.6z M614.4,470.1c1,0,1.8-0.3,2.3-0.9c0.5-0.6,0.8-1.5,0.8-2.7s-0.3-2.1-0.8-2.7
	c-0.5-0.6-1.3-0.9-2.3-0.9c-1.1,0-1.9,0.3-2.4,0.9c-0.5,0.6-0.8,1.5-0.8,2.7s0.3,2.1,0.8,2.7C612.5,469.8,613.3,470.1,614.4,470.1z
	 M617.6,460.2h-0.8v9.8h0.8V460.2z M614.4,469.3c-0.8,0-1.4-0.2-1.8-0.7c-0.4-0.5-0.6-1.2-0.6-2.1s0.2-1.6,0.6-2.1
	c0.4-0.5,1-0.7,1.8-0.7c0.8,0,1.4,0.2,1.8,0.7c0.4,0.5,0.6,1.2,0.6,2.1s-0.2,1.6-0.6,2.1C615.7,469,615.1,469.3,614.4,469.3z
	 M622.1,470.1c-1.1,0-1.9-0.3-2.4-0.9c-0.5-0.6-0.8-1.5-0.8-2.7s0.3-2.1,0.8-2.7c0.5-0.6,1.3-0.9,2.4-0.9c1.1,0,1.8,0.3,2.4,0.9
	c0.5,0.6,0.8,1.5,0.8,2.7s-0.3,2.1-0.8,2.7C624,469.8,623.2,470.1,622.1,470.1z M622.1,469.3c0.8,0,1.4-0.2,1.8-0.7
	c0.4-0.5,0.6-1.2,0.6-2.1s-0.2-1.6-0.6-2.1c-0.4-0.5-1-0.7-1.8-0.7c-0.8,0-1.4,0.2-1.8,0.7c-0.4,0.5-0.6,1.2-0.6,2.1
	s0.2,1.6,0.6,2.1C620.8,469,621.4,469.3,622.1,469.3z M626.7,463h0.8v0.9l0.7-0.9h2.2l1.1,1.3l1.1-1.3h2.2l1.5,1.8v5.2h-0.8v-4.9
	l-1.1-1.3H633l-1.1,1.3v4.9h-0.8v-4.9l-1.1-1.3h-1.4l-1.1,1.3v4.9h-0.8V463z M637.5,469.2h1.1V463h0.8v6.2h1.1v0.8h-3.1V469.2z
	 M639,461.5c-0.2,0-0.3-0.1-0.5-0.2c-0.1-0.1-0.2-0.3-0.2-0.5s0.1-0.3,0.2-0.5c0.1-0.1,0.3-0.2,0.5-0.2c0.2,0,0.3,0.1,0.5,0.2
	c0.1,0.1,0.2,0.3,0.2,0.5s-0.1,0.3-0.2,0.5C639.4,461.4,639.2,461.5,639,461.5z M642,463h0.8v0.9l0.7-0.9h2.5l1.5,1.8v5.2h-0.8v-4.9
	l-1.1-1.3h-1.7l-1.1,1.3v4.9H642V463z M653.6,465l-0.9-1.1h-2l-1,1.3l-0.5-0.7l1.2-1.4h2.8l1.4,1.7v5.3h-0.8V465z M651.6,470.1
	c-0.9,0-1.7-0.2-2.1-0.5c-0.5-0.4-0.7-0.9-0.7-1.6c0-0.7,0.2-1.2,0.7-1.5c0.5-0.3,1.2-0.5,2.1-0.5c0.9,0,1.6,0.2,2,0.5
	c0.5,0.3,0.7,0.8,0.7,1.5c0,0.7-0.2,1.2-0.7,1.6C653.2,469.9,652.5,470.1,651.6,470.1z M651.6,469.3c0.7,0,1.2-0.1,1.5-0.3
	c0.3-0.2,0.5-0.6,0.5-1c0-0.4-0.2-0.8-0.5-1c-0.3-0.2-0.8-0.3-1.5-0.3c-0.7,0-1.2,0.1-1.5,0.3c-0.3,0.2-0.5,0.5-0.5,1
	c0,0.4,0.2,0.8,0.5,1C650.4,469.2,650.9,469.3,651.6,469.3z M656.3,463h0.8v0.9l0.7-0.9h2.5l1.5,1.8v5.2H661v-4.9l-1.1-1.3h-1.7
	l-1.1,1.3v4.9h-0.8V463z M663.3,468.2v-3.4l1.5-1.8h3.1l1.1,1.3l-0.5,0.7l-0.9-1.1h-2.3l-1.1,1.3v2.8l1,1.3h2.4l0.9-1.1l0.6,0.7
	L668,470h-3.2L663.3,468.2z M670.1,468.2v-1.8c0-1.2,0.3-2,0.8-2.6c0.5-0.6,1.3-0.9,2.2-0.9c1,0,1.7,0.3,2.2,0.8
	c0.5,0.6,0.8,1.4,0.8,2.5v0.6h-5.2v1.1l1.1,1.3h2.2l1-1.2l0.5,0.6l-1.2,1.4h-2.9L670.1,468.2z M675.3,466c0-0.7-0.2-1.3-0.5-1.7
	c-0.4-0.4-0.9-0.6-1.6-0.6c-0.7,0-1.2,0.2-1.6,0.6c-0.4,0.4-0.5,0.9-0.5,1.7H675.3z"/>
<path class="st0" d="M0,410.9v-7.7h0.8v7.4l1.4,1.6h1l1.4-1.6v-6.8h0.8v6.8l1.4,1.6h1l1.4-1.6v-7.4h0.8v7.7L8.1,413H6.4L5,411.4H4.9
	L3.6,413H1.8L0,410.9z M11.5,411.2v-1.8c0-1.2,0.3-2,0.8-2.6c0.5-0.6,1.3-0.9,2.2-0.9s1.7,0.3,2.2,0.8c0.5,0.6,0.8,1.4,0.8,2.5v0.6
	h-5.2v1.1l1.1,1.3h2.2l1-1.2l0.5,0.6l-1.2,1.4H13L11.5,411.2z M16.6,409c0-0.7-0.2-1.3-0.5-1.7c-0.4-0.4-0.9-0.6-1.6-0.6
	c-0.7,0-1.2,0.2-1.6,0.6c-0.4,0.4-0.5,0.9-0.5,1.7H16.6z M22.1,413.1c-1,0-1.8-0.3-2.3-0.9c-0.5-0.6-0.8-1.5-0.8-2.7
	s0.3-2.1,0.8-2.7c0.5-0.6,1.3-0.9,2.3-0.9c1.1,0,1.8,0.3,2.4,0.9c0.5,0.6,0.8,1.5,0.8,2.7s-0.3,2.1-0.8,2.7
	C23.9,412.8,23.1,413.1,22.1,413.1z M18.9,403.2h0.8v9.8h-0.8V403.2z M22.1,412.3c0.8,0,1.4-0.2,1.8-0.7c0.4-0.5,0.6-1.2,0.6-2.1
	s-0.2-1.6-0.6-2.1c-0.4-0.5-1-0.7-1.8-0.7c-0.8,0-1.4,0.2-1.8,0.7c-0.4,0.5-0.6,1.2-0.6,2.1s0.2,1.6,0.6,2.1
	C20.7,412,21.3,412.3,22.1,412.3z M26.4,411.2v-3.4l1.5-1.8h3.1l1.1,1.3l-0.5,0.7l-0.9-1.1h-2.3l-1.1,1.3v2.8l1.1,1.3h2.4l0.9-1.1
	l0.6,0.7l-1.1,1.3h-3.2L26.4,411.2z M37.9,408l-0.9-1.1h-2l-1.1,1.3l-0.5-0.7l1.2-1.4h2.8l1.4,1.7v5.3h-0.8V408z M35.9,413.1
	c-0.9,0-1.7-0.2-2.1-0.5c-0.5-0.4-0.7-0.9-0.7-1.6c0-0.7,0.2-1.2,0.7-1.5c0.5-0.3,1.2-0.5,2.1-0.5c0.9,0,1.6,0.2,2,0.5
	c0.5,0.3,0.7,0.8,0.7,1.5c0,0.7-0.2,1.2-0.7,1.6C37.4,412.9,36.8,413.1,35.9,413.1z M35.9,412.3c0.7,0,1.2-0.1,1.5-0.3
	c0.3-0.2,0.5-0.6,0.5-1c0-0.4-0.2-0.8-0.5-1c-0.3-0.2-0.8-0.3-1.5-0.3c-0.7,0-1.2,0.1-1.5,0.3c-0.3,0.2-0.5,0.5-0.5,1
	c0,0.4,0.2,0.8,0.5,1C34.7,412.2,35.2,412.3,35.9,412.3z M40.6,406h0.8v0.9L42,406h2.2l1.1,1.3l1.1-1.3h2.2l1.5,1.8v5.2h-0.8v-4.9
	l-1.1-1.3h-1.4l-1.1,1.3v4.9h-0.8v-4.9l-1.1-1.3h-1.4l-1.1,1.3v4.9h-0.8V406z M55.5,411.2v-3.4L57,406h3.1l1.1,1.3l-0.5,0.7
	l-0.9-1.1h-2.3l-1.1,1.3v2.8l1,1.3h2.4l0.9-1.1l0.6,0.7l-1.1,1.3H57L55.5,411.2z M62.7,403.2h0.8v3.7l0.7-0.9h2.6l1.5,1.8v5.2h-0.8
	v-4.9l-1.1-1.3h-1.8l-1.1,1.3v4.9h-0.8V403.2z M69.7,411.2v-1.8c0-1.2,0.3-2,0.8-2.6c0.5-0.6,1.3-0.9,2.2-0.9c1,0,1.7,0.3,2.2,0.8
	s0.8,1.4,0.8,2.5v0.6h-5.2v1.1l1.1,1.3h2.2l1-1.2l0.5,0.6l-1.2,1.4h-2.9L69.7,411.2z M74.8,409c0-0.7-0.2-1.3-0.5-1.7
	c-0.4-0.4-0.9-0.6-1.6-0.6c-0.7,0-1.2,0.2-1.6,0.6c-0.4,0.4-0.5,0.9-0.5,1.7H74.8z M81,406h0.8v0.9l0.7-0.9h2.2l1.1,1.3l1.1-1.3H89
	l1.5,1.8v5.2h-0.8v-4.9l-1.1-1.3h-1.4l-1.1,1.3v4.9h-0.8v-4.9l-1.1-1.3h-1.4l-1.1,1.3v4.9H81V406z M95,413.1c-1.1,0-1.9-0.3-2.4-0.9
	c-0.5-0.6-0.8-1.5-0.8-2.7s0.3-2.1,0.8-2.7c0.5-0.6,1.3-0.9,2.4-0.9c1.1,0,1.8,0.3,2.4,0.9c0.5,0.6,0.8,1.5,0.8,2.7
	s-0.3,2.1-0.8,2.7C96.8,412.8,96,413.1,95,413.1z M95,412.3c0.8,0,1.4-0.2,1.8-0.7c0.4-0.5,0.6-1.2,0.6-2.1s-0.2-1.6-0.6-2.1
	c-0.4-0.5-1-0.7-1.8-0.7c-0.8,0-1.4,0.2-1.8,0.7c-0.4,0.5-0.6,1.2-0.6,2.1s0.2,1.6,0.6,2.1C93.6,412,94.2,412.3,95,412.3z
	 M99.1,411.5l0.5-0.6l1.1,1.3h2.5l0.6-0.7v-0.8l-0.7-0.8h-2.8l-1-1.2v-1.6l1-1.2h2.8l1.2,1.5l-0.5,0.6l-1.1-1.3h-2.1l-0.6,0.7v0.9
	l0.5,0.6h2.8l1.1,1.3v1.4l-1,1.2h-3.3L99.1,411.5z M106.7,411.7v-4.9h-1.3V406h1.3v-1.8h0.8v1.8h1.5v0.8h-1.5v4.6l0.6,0.8h0.9v0.8
	h-1.3L106.7,411.7z M110.5,406h0.8v0.9l0.7-0.9h1.6l1.2,1.4l-0.5,0.6l-1.1-1.2h-0.8l-1.1,1.3v4.9h-0.8V406z M120.3,408l-0.9-1.1h-2
	l-1,1.3l-0.5-0.7l1.2-1.4h2.8l1.4,1.7v5.3h-0.8V408z M118.3,413.1c-0.9,0-1.7-0.2-2.1-0.5c-0.5-0.4-0.7-0.9-0.7-1.6
	c0-0.7,0.2-1.2,0.7-1.5c0.5-0.3,1.2-0.5,2.1-0.5c0.9,0,1.6,0.2,2,0.5c0.5,0.3,0.7,0.8,0.7,1.5c0,0.7-0.2,1.2-0.7,1.6
	C119.8,412.9,119.2,413.1,118.3,413.1z M118.3,412.3c0.7,0,1.2-0.1,1.5-0.3c0.3-0.2,0.5-0.6,0.5-1c0-0.4-0.2-0.8-0.5-1
	c-0.3-0.2-0.8-0.3-1.5-0.3c-0.7,0-1.2,0.1-1.5,0.3c-0.3,0.2-0.5,0.5-0.5,1c0,0.4,0.2,0.8,0.5,1C117.1,412.2,117.6,412.3,118.3,412.3
	z M126.5,411.2v-1.8c0-1.2,0.3-2,0.8-2.6c0.5-0.6,1.3-0.9,2.2-0.9c1,0,1.7,0.3,2.2,0.8s0.8,1.4,0.8,2.5v0.6h-5.2v1.1l1.1,1.3h2.2
	l1-1.2l0.5,0.6l-1.2,1.4H128L126.5,411.2z M131.6,409c0-0.7-0.2-1.3-0.5-1.7c-0.4-0.4-0.9-0.6-1.6-0.6c-0.7,0-1.2,0.2-1.6,0.6
	c-0.4,0.4-0.5,0.9-0.5,1.7H131.6z M133.9,406h0.8v0.9l0.7-0.9h2.5l1.5,1.8v5.2h-0.8v-4.9l-1.1-1.3h-1.7l-1.1,1.3v4.9h-0.8V406z
	 M141.7,411.7v-4.9h-1.3V406h1.3v-1.8h0.8v1.8h1.5v0.8h-1.5v4.6l0.6,0.8h0.9v0.8h-1.3L141.7,411.7z M145.5,406h0.8v0.9l0.7-0.9h1.6
	l1.2,1.4l-0.5,0.6l-1.1-1.2h-0.8l-1.1,1.3v4.9h-0.8V406z M155.3,408l-0.9-1.1h-2l-1.1,1.3l-0.5-0.7l1.2-1.4h2.8l1.4,1.7v5.3h-0.8
	V408z M153.3,413.1c-0.9,0-1.7-0.2-2.1-0.5c-0.5-0.4-0.7-0.9-0.7-1.6c0-0.7,0.2-1.2,0.7-1.5c0.5-0.3,1.2-0.5,2.1-0.5
	c0.9,0,1.6,0.2,2,0.5c0.5,0.3,0.7,0.8,0.7,1.5c0,0.7-0.2,1.2-0.7,1.6C154.8,412.9,154.2,413.1,153.3,413.1z M153.3,412.3
	c0.7,0,1.2-0.1,1.5-0.3c0.3-0.2,0.5-0.6,0.5-1c0-0.4-0.2-0.8-0.5-1c-0.3-0.2-0.8-0.3-1.5-0.3c-0.7,0-1.2,0.1-1.5,0.3
	c-0.3,0.2-0.5,0.5-0.5,1c0,0.4,0.2,0.8,0.5,1C152.1,412.2,152.6,412.3,153.3,412.3z M158,406h0.8v0.9l0.7-0.9h2.2l1.1,1.3l1.1-1.3
	h2.2l1.5,1.8v5.2h-0.8v-4.9l-1.1-1.3h-1.4l-1.1,1.3v4.9h-0.8v-4.9l-1.1-1.3h-1.4l-1.1,1.3v4.9H158V406z M172.5,413.1
	c-1,0-1.8-0.3-2.3-0.9c-0.5-0.6-0.8-1.5-0.8-2.7s0.3-2.1,0.8-2.7c0.5-0.6,1.3-0.9,2.3-0.9c1.1,0,1.8,0.3,2.4,0.9
	c0.5,0.6,0.8,1.5,0.8,2.7s-0.3,2.1-0.8,2.7C174.3,412.8,173.5,413.1,172.5,413.1z M169.3,403.2h0.8v9.8h-0.8V403.2z M172.5,412.3
	c0.8,0,1.4-0.2,1.8-0.7c0.4-0.5,0.6-1.2,0.6-2.1s-0.2-1.6-0.6-2.1c-0.4-0.5-1-0.7-1.8-0.7c-0.8,0-1.4,0.2-1.8,0.7
	c-0.4,0.5-0.6,1.2-0.6,2.1s0.2,1.6,0.6,2.1C171.1,412,171.7,412.3,172.5,412.3z M176.5,412.2h1.1V406h0.8v6.2h1.1v0.8h-3.1V412.2z
	 M178,404.5c-0.2,0-0.3-0.1-0.5-0.2c-0.1-0.1-0.2-0.3-0.2-0.5s0.1-0.3,0.2-0.5c0.1-0.1,0.3-0.2,0.5-0.2c0.2,0,0.3,0.1,0.5,0.2
	c0.1,0.1,0.2,0.3,0.2,0.5s-0.1,0.3-0.2,0.5C178.4,404.4,178.2,404.5,178,404.5z M184.4,412.2h1.1V406h0.8v6.2h1.1v0.8h-3.1V412.2z
	 M185.9,404.5c-0.2,0-0.3-0.1-0.5-0.2c-0.1-0.1-0.2-0.3-0.2-0.5s0.1-0.3,0.2-0.5c0.1-0.1,0.3-0.2,0.5-0.2c0.2,0,0.3,0.1,0.5,0.2
	c0.1,0.1,0.2,0.3,0.2,0.5s-0.1,0.3-0.2,0.5C186.2,404.4,186.1,404.5,185.9,404.5z M35.9,422.9c-1,0-1.8,0.3-2.3,0.9
	c-0.5,0.6-0.8,1.5-0.8,2.7s0.3,2.1,0.8,2.7c0.5,0.6,1.3,0.9,2.3,0.9c1.1,0,1.8-0.3,2.4-0.9c0.5-0.6,0.8-1.5,0.8-2.7
	s-0.3-2.1-0.8-2.7C37.7,423.2,36.9,422.9,35.9,422.9z M32.7,432.8h0.8V423h-0.8V432.8z M35.9,423.7c0.8,0,1.4,0.2,1.8,0.7
	c0.4,0.5,0.6,1.2,0.6,2.1s-0.2,1.6-0.6,2.1c-0.4,0.5-1,0.7-1.8,0.7c-0.8,0-1.4-0.2-1.8-0.7c-0.4-0.5-0.6-1.2-0.6-2.1
	s0.2-1.6,0.6-2.1C34.5,424,35.1,423.7,35.9,423.7z M45.1,425l-0.9-1.1h-2l-1,1.3l-0.5-0.7l1.2-1.4h2.8l1.4,1.7v5.3h-0.8V425z
	 M43.1,430.1c-0.9,0-1.7-0.2-2.1-0.5c-0.5-0.4-0.7-0.9-0.7-1.6c0-0.7,0.2-1.2,0.7-1.5c0.5-0.3,1.2-0.5,2.1-0.5c0.9,0,1.6,0.2,2,0.5
	c0.5,0.3,0.7,0.8,0.7,1.5c0,0.7-0.2,1.2-0.7,1.6C44.6,429.9,44,430.1,43.1,430.1z M43.1,429.3c0.7,0,1.2-0.1,1.5-0.3
	c0.3-0.2,0.5-0.6,0.5-1c0-0.4-0.2-0.8-0.5-1c-0.3-0.2-0.8-0.3-1.5-0.3c-0.7,0-1.2,0.1-1.5,0.3c-0.3,0.2-0.5,0.5-0.5,1
	c0,0.4,0.2,0.8,0.5,1C41.9,429.2,42.4,429.3,43.1,429.3z M47.8,423h0.8v0.9l0.7-0.9h1.6l1.2,1.4l-0.5,0.6l-1.1-1.2h-0.8l-1.1,1.3
	v4.9h-0.8V423z M53.8,428.7v-4.9h-1.3V423h1.3v-1.8h0.8v1.8h1.5v0.8h-1.5v4.6l0.6,0.8h0.9v0.8h-1.3L53.8,428.7z M57.1,428.2v-1.8
	c0-1.2,0.3-2,0.8-2.6c0.5-0.6,1.3-0.9,2.2-0.9c1,0,1.7,0.3,2.2,0.8c0.5,0.6,0.8,1.4,0.8,2.5v0.6H58v1.1l1.1,1.3h2.2l1-1.2l0.5,0.6
	l-1.2,1.4h-2.9L57.1,428.2z M62.3,426c0-0.7-0.2-1.3-0.5-1.7c-0.4-0.4-0.9-0.6-1.6-0.6c-0.7,0-1.2,0.2-1.6,0.6
	c-0.4,0.4-0.5,0.9-0.5,1.7H62.3z M64.2,428.2v-3.4l1.5-1.8h3.1l1.1,1.3l-0.5,0.7l-0.9-1.1h-2.3l-1.1,1.3v2.8l1.1,1.3h2.4l0.9-1.1
	l0.6,0.7l-1.1,1.3h-3.2L64.2,428.2z M70.8,429.2H72V423h0.8v6.2h1.1v0.8h-3.1V429.2z M72.4,421.5c-0.2,0-0.3-0.1-0.5-0.2
	c-0.1-0.1-0.2-0.3-0.2-0.5s0.1-0.3,0.2-0.5c0.1-0.1,0.3-0.2,0.5-0.2c0.2,0,0.3,0.1,0.5,0.2c0.1,0.1,0.2,0.3,0.2,0.5
	s-0.1,0.3-0.2,0.5C72.7,421.4,72.6,421.5,72.4,421.5z M78.5,422.9c-1,0-1.8,0.3-2.3,0.9c-0.5,0.6-0.8,1.5-0.8,2.7s0.3,2.1,0.8,2.7
	c0.5,0.6,1.3,0.9,2.3,0.9c1.1,0,1.8-0.3,2.4-0.9c0.5-0.6,0.8-1.5,0.8-2.7s-0.3-2.1-0.8-2.7C80.4,423.2,79.6,422.9,78.5,422.9z
	 M75.3,432.8h0.8V423h-0.8V432.8z M78.5,423.7c0.8,0,1.4,0.2,1.8,0.7c0.4,0.5,0.6,1.2,0.6,2.1s-0.2,1.6-0.6,2.1
	c-0.4,0.5-1,0.7-1.8,0.7c-0.8,0-1.4-0.2-1.8-0.7c-0.4-0.5-0.6-1.2-0.6-2.1s0.2-1.6,0.6-2.1C77.2,424,77.7,423.7,78.5,423.7z
	 M87.7,425l-0.9-1.1h-2l-1.1,1.3l-0.5-0.7l1.2-1.4h2.8l1.4,1.7v5.3h-0.8V425z M85.7,430.1c-0.9,0-1.7-0.2-2.1-0.5
	c-0.5-0.4-0.7-0.9-0.7-1.6c0-0.7,0.2-1.2,0.7-1.5c0.5-0.3,1.2-0.5,2.1-0.5c0.9,0,1.6,0.2,2,0.5c0.5,0.3,0.7,0.8,0.7,1.5
	c0,0.7-0.2,1.2-0.7,1.6C87.3,429.9,86.6,430.1,85.7,430.1z M85.7,429.3c0.7,0,1.2-0.1,1.5-0.3c0.3-0.2,0.5-0.6,0.5-1
	c0-0.4-0.2-0.8-0.5-1c-0.3-0.2-0.8-0.3-1.5-0.3c-0.7,0-1.2,0.1-1.5,0.3c-0.3,0.2-0.5,0.5-0.5,1c0,0.4,0.2,0.8,0.5,1
	C84.5,429.2,85,429.3,85.7,429.3z M90.4,423h0.8v0.9l0.7-0.9h2.5l1.5,1.8v5.2H95v-4.9l-1.1-1.3h-1.7l-1.1,1.3v4.9h-0.8V423z
	 M98.3,428.7v-4.9H97V423h1.3v-1.8h0.8v1.8h1.5v0.8h-1.5v4.6l0.6,0.8h0.9v0.8h-1.3L98.3,428.7z M101.5,429.2h1.1V423h0.8v6.2h1.1
	v0.8h-3.1V429.2z M103,421.5c-0.2,0-0.3-0.1-0.5-0.2c-0.1-0.1-0.2-0.3-0.2-0.5s0.1-0.3,0.2-0.5c0.1-0.1,0.3-0.2,0.5-0.2
	c0.2,0,0.3,0.1,0.5,0.2c0.1,0.1,0.2,0.3,0.2,0.5s-0.1,0.3-0.2,0.5C103.3,421.4,103.2,421.5,103,421.5z M114.2,425l-0.9-1.1h-2
	l-1.1,1.3l-0.5-0.7l1.2-1.4h2.8l1.4,1.7v5.3h-0.8V425z M112.2,430.1c-0.9,0-1.7-0.2-2.1-0.5c-0.5-0.4-0.7-0.9-0.7-1.6
	c0-0.7,0.2-1.2,0.7-1.5c0.5-0.3,1.2-0.5,2.1-0.5c0.9,0,1.6,0.2,2,0.5c0.5,0.3,0.7,0.8,0.7,1.5c0,0.7-0.2,1.2-0.7,1.6
	C113.8,429.9,113.1,430.1,112.2,430.1z M112.2,429.3c0.7,0,1.2-0.1,1.5-0.3c0.3-0.2,0.5-0.6,0.5-1c0-0.4-0.2-0.8-0.5-1
	c-0.3-0.2-0.8-0.3-1.5-0.3c-0.7,0-1.2,0.1-1.5,0.3c-0.3,0.2-0.5,0.5-0.5,1c0,0.4,0.2,0.8,0.5,1C111,429.2,111.5,429.3,112.2,429.3z
	 M117.2,421H116v-0.8h2v9.8h-0.8V421z M120.2,421h-1.1v-0.8h2v9.8h-0.8V421z M127.4,425l-0.9-1.1h-2l-1.1,1.3l-0.5-0.7l1.2-1.4h2.8
	l1.4,1.7v5.3h-0.8V425z M125.3,430.1c-0.9,0-1.7-0.2-2.1-0.5c-0.5-0.4-0.7-0.9-0.7-1.6c0-0.7,0.2-1.2,0.7-1.5
	c0.5-0.3,1.2-0.5,2.1-0.5c0.9,0,1.6,0.2,2,0.5c0.5,0.3,0.7,0.8,0.7,1.5c0,0.7-0.2,1.2-0.7,1.6C126.9,429.9,126.2,430.1,125.3,430.1z
	 M125.3,429.3c0.7,0,1.2-0.1,1.5-0.3c0.3-0.2,0.5-0.6,0.5-1c0-0.4-0.2-0.8-0.5-1c-0.3-0.2-0.8-0.3-1.5-0.3c-0.7,0-1.2,0.1-1.5,0.3
	c-0.3,0.2-0.5,0.5-0.5,1c0,0.4,0.2,0.8,0.5,1C124.2,429.2,124.7,429.3,125.3,429.3z M133.7,428.2v-3.4l1.5-1.8h3.1l1.1,1.3l-0.5,0.7
	l-0.9-1.1h-2.3l-1.1,1.3v2.8l1.1,1.3h2.4l0.9-1.1l0.6,0.7l-1.1,1.3h-3.2L133.7,428.2z M140.9,420.2h0.8v3.7l0.7-0.9h2.6l1.5,1.8v5.2
	h-0.8v-4.9l-1.1-1.3h-1.8l-1.1,1.3v4.9h-0.8V420.2z M147.7,429.2h1.1V423h0.8v6.2h1.1v0.8h-3.1V429.2z M149.2,421.5
	c-0.2,0-0.3-0.1-0.5-0.2c-0.1-0.1-0.2-0.3-0.2-0.5s0.1-0.3,0.2-0.5c0.1-0.1,0.3-0.2,0.5-0.2c0.2,0,0.3,0.1,0.5,0.2
	c0.1,0.1,0.2,0.3,0.2,0.5s-0.1,0.3-0.2,0.5C149.6,421.4,149.4,421.5,149.2,421.5z M156.5,425l-0.9-1.1h-2l-1.1,1.3l-0.5-0.7l1.2-1.4
	h2.8l1.4,1.7v5.3h-0.8V425z M154.5,430.1c-0.9,0-1.7-0.2-2.1-0.5c-0.5-0.4-0.7-0.9-0.7-1.6c0-0.7,0.2-1.2,0.7-1.5
	c0.5-0.3,1.2-0.5,2.1-0.5c0.9,0,1.6,0.2,2,0.5c0.5,0.3,0.7,0.8,0.7,1.5c0,0.7-0.2,1.2-0.7,1.6C156.1,429.9,155.4,430.1,154.5,430.1z
	 M154.5,429.3c0.7,0,1.2-0.1,1.5-0.3c0.3-0.2,0.5-0.6,0.5-1c0-0.4-0.2-0.8-0.5-1c-0.3-0.2-0.8-0.3-1.5-0.3c-0.7,0-1.2,0.1-1.5,0.3
	c-0.3,0.2-0.5,0.5-0.5,1c0,0.4,0.2,0.8,0.5,1C153.3,429.2,153.8,429.3,154.5,429.3z M159.2,423h0.8v0.9l0.7-0.9h2.2l1.1,1.3l1.1-1.3
	h2.2l1.5,1.8v5.2h-0.8v-4.9l-1.1-1.3h-1.4l-1.1,1.3v4.9h-0.8v-4.9l-1.1-1.3h-1.4l-1.1,1.3v4.9h-0.8V423z M174.8,425l-0.9-1.1h-2
	l-1.1,1.3l-0.5-0.7l1.2-1.4h2.8l1.4,1.7v5.3h-0.8V425z M172.8,430.1c-0.9,0-1.7-0.2-2.1-0.5c-0.5-0.4-0.7-0.9-0.7-1.6
	c0-0.7,0.2-1.2,0.7-1.5c0.5-0.3,1.2-0.5,2.1-0.5c0.9,0,1.6,0.2,2,0.5c0.5,0.3,0.7,0.8,0.7,1.5c0,0.7-0.2,1.2-0.7,1.6
	C174.4,429.9,173.7,430.1,172.8,430.1z M172.8,429.3c0.7,0,1.2-0.1,1.5-0.3c0.3-0.2,0.5-0.6,0.5-1c0-0.4-0.2-0.8-0.5-1
	c-0.3-0.2-0.8-0.3-1.5-0.3c-0.7,0-1.2,0.1-1.5,0.3c-0.3,0.2-0.5,0.5-0.5,1c0,0.4,0.2,0.8,0.5,1C171.6,429.2,172.1,429.3,172.8,429.3
	z M178.1,428.7v-4.9h-1.3V423h1.3v-1.8h0.8v1.8h1.5v0.8h-1.5v4.6l0.6,0.8h0.9v0.8h-1.3L178.1,428.7z M186.2,425l-0.9-1.1h-2
	l-1.1,1.3l-0.5-0.7l1.2-1.4h2.8l1.4,1.7v5.3h-0.8V425z M184.1,430.1c-0.9,0-1.7-0.2-2.1-0.5c-0.5-0.4-0.7-0.9-0.7-1.6
	c0-0.7,0.2-1.2,0.7-1.5c0.5-0.3,1.2-0.5,2.1-0.5c0.9,0,1.6,0.2,2,0.5c0.5,0.3,0.7,0.8,0.7,1.5c0,0.7-0.2,1.2-0.7,1.6
	C185.7,429.9,185,430.1,184.1,430.1z M184.1,429.3c0.7,0,1.2-0.1,1.5-0.3c0.3-0.2,0.5-0.6,0.5-1c0-0.4-0.2-0.8-0.5-1
	c-0.3-0.2-0.8-0.3-1.5-0.3c-0.7,0-1.2,0.1-1.5,0.3c-0.3,0.2-0.5,0.5-0.5,1c0,0.4,0.2,0.8,0.5,1C183,429.2,183.5,429.3,184.1,429.3z"
	/>
<path class="st1" d="M681.4,74.7l-26-1.6l-219.8,85.6l297.1,114.6l37.2,5.6l204.7-118.4L681.4,74.7z"/>
<path class="st2" d="M988.9,163.4L427.8,491.7L59.9,276.4L636.4,61L988.9,163.4z"/>
<path class="st3" d="M277.5,377l-167.3-95.8L430,156.7L277.5,377z"/>
<path class="st4" d="M600.2,226.6L430,160.5L277.5,380.8L600.2,226.6z"/>
<path class="st4" d="M499.6,267l-44.5-25.5l85-33.1L499.6,267z"/>
<path class="st5" d="M585.4,223.3l-45.2-17.6l-40.5,58.6L585.4,223.3z"/>
<path class="st6" d="M285.1,385.1l48.2,27.6l31.9,4.8l309.5-162l-47.8-18.6l-28.6-3.8L285.1,385.1z"/>
<path class="st7" d="M361.3,428.7l53.2,30.5l34,5.3l307.1-177.6l-51.9-20.2l-30.2-4.1L361.3,428.7z"/>
<path class="st1" d="M572.1,296.1l-48.4,25l-22.3-33.7L572.1,296.1z"/>
<path class="st5" d="M560.3,294l-31.7,12.4l-15.9-17.6L560.3,294z"/>
<path class="st1" d="M653.9,331.7L605.9,359L579,322.2L653.9,331.7z"/>
<path class="st5" d="M624.4,331.8l-16.5,17.1l-9.4-21.7L624.4,331.8z"/>
<path class="st1" d="M648.3,132.9l-30.2-13.5l-15.9,6.5"/>
<path class="st4" d="M625.6,140.4l-40.6-9.6l17.2-7.1"/>
<path class="st4" d="M589.1,136.5l-4.1-4.3l40.6,9.6l-21,10.4l-7.4-7.6L589.1,136.5z"/>
<path class="st4" d="M632.5,125.9l-14.4-1.3l30.2,13.5l23.2-8.6l-17.6-1.6L632.5,125.9z"/>
<path class="st1" d="M562.8,128l18.1-7.6l21.4,7l-17.2,7.1L562.8,128z"/>
<path class="st4" d="M547.9,141.3l14.8-14.4l22.2,6.5L547.9,141.3z"/>
<path class="st4" d="M599.4,109.5l-18.6,7.1l21.4,7l15.9-6.5L599.4,109.5z"/>
<path class="st8" d="M634.1,107.4l-34.7,5.8l18.7,7.6L634.1,107.4z"/>
<path class="st7" d="M589.1,139.5l-4.1-4.3l-37.1,7.9l32.1,14.5l24.6-2.4l-7.4-7.6L589.1,139.5z"/>
<path class="st8" d="M632.5,124.4l-14.4-1.3l16-13.4l41.6,9.5l-4.2,8.8l-17.6-1.6L632.5,124.4z"/>
<path class="st4" d="M664.5,134.4l-20.6,9l-18.4-5.4l22.7-9.8L664.5,134.4z"/>
<path class="st7" d="M643.9,148.4l-20.3,8.9l-19.1-3.9l21-10.3L643.9,148.4z"/>
<path class="st1" d="M664.5,144.2l19.2-8.4l-12.3-6.2l-23.2,8.6L664.5,144.2z"/>
<path class="st4" d="M623.7,162.1l-43.7-1.5l24.6-2.4L623.7,162.1z"/>
<path class="st8" d="M683.7,132.7l-8.1-15l-4.2,8.8L683.7,132.7z"/>
<path class="st8" d="M562.8,128l-14.3-4.4l38-15l12.9,4.7l-18.6,7.1L562.8,128z"/>
<path class="st8" d="M536.1,138.8l12.4-13.3l14.3,4.4l-14.8,14.4L536.1,138.8z"/>
<path class="st1" d="M541.7,147.3l6.3-4.9l-11.8-5.5L541.7,147.3z"/>
<path class="st7" d="M552.7,156.4l-4.7-12.2l-6.3,4.9L552.7,156.4z"/>
<path class="st7" d="M594.6,168.2L580,156.9l11.6,13.6L594.6,168.2z"/>
<path class="st5" d="M639.7,174.8l-45.1-5.1l-3.1,2.2L639.7,174.8z"/>
<path class="st7" d="M552.7,154.6l38.9,15.9L580,156.9l-32.1-14.5L552.7,154.6z"/>
<path class="st4" d="M643.9,145l28.7,8.7l18.1-8.2l-26.1-9.5L643.9,145z"/>
<path class="st7" d="M623.7,155l77.9,15.6l-28.9-15.8l-28.7-8.6L623.7,155z"/>
<path class="st1" d="M683.7,135.7l50.3,26.5l-43.3-8.6l-26.1-9.5L683.7,135.7z"/>
<path class="st9" d="M675.6,117l27,4.1l4.8-1.3L675.6,117z"/>
<path class="st9" d="M721.7,137.8L702.6,123l4.8-1.3L721.7,137.8z"/>
<path class="st9" d="M619.2,105.5l-32.7,5l12.9,4.7l34.7-5.8L619.2,105.5z"/>
<path class="st9" d="M645.4,104.8l-11.4,2.6l-14.9-3.8L645.4,104.8z"/>
<path class="st4" d="M663.2,111.6l-29.1-0.4l11.4-2.6L663.2,111.6z"/>
<path class="st9" d="M707.4,121.7l-44.2-11.9l-29.1-0.4l41.6,9.5L707.4,121.7z"/>
<path class="st4" d="M701.5,172.5l17.7-7.2L734,157l-43.3-8.6l-18.1,8.2L701.5,172.5z"/>
<path class="st7" d="M772,192.6l-19.1-14.8l38.6,4.8L772,192.6z"/>
<path class="st4" d="M734,160.4l57.4,24.1l-38.6-4.8l-33.6-11L734,160.4z"/>
<path class="st5" d="M701.5,173.9l70.4,18.7l-19.1-14.8l-33.6-11L701.5,173.9z"/>
<path class="st4" d="M794,180.1l-27.6-6l24.9,10.5L794,180.1z"/>
<path class="st5" d="M762.2,196.5l-19-9.6l28.8,7.6L762.2,196.5z"/>
<path class="st10" d="M722.3,195.4l-20.8-21.4l41.6,11l19,9.6L722.3,195.4z"/>
<path class="st10" d="M660.8,191.1l40.7-14.5l20.8,21.4L660.8,191.1z"/>
<path class="st10" d="M591.6,172.3l48.1,2.9l61.8,0.6l-40.7,14.5L591.6,172.3z"/>
<path class="st1" d="M787,163.2l-53-4.7l32.5,13.6l27.6,6L787,163.2z"/>
<path class="st8" d="M759.5,143.8L734,160.4l53,4.7L759.5,143.8z"/>
<path class="st9" d="M707.4,119.8l14.3,16.2l12.4,22.6l25.5-16.6L707.4,119.8z"/>
<path class="st4" d="M881.9,186.2l-55,30.9l-18.8-6.5L881.9,186.2z"/>
<path class="st5" d="M863.2,184.1l-55.1,30.2l73.8-24.4L863.2,184.1z"/>
<path class="st5" d="M373.6,368.1c9.8,5.2,9.3,13.8-1.2,19.1c-10.7,5.4-27.4,5.4-37.1,0c-9.6-5.4-8.6-13.9,2-19.1
	C347.8,363,363.9,363,373.6,368.1z"/>
<path class="st5" d="M453.4,410.7c10.8,5.7,11.1,15.2,0.6,21.1c-10.7,6-28.3,6-39,0c-10.6-5.9-10.4-15.4,0.3-21.1
	C425.8,405,442.8,405,453.4,410.7z"/>
<path class="st4" d="M485.6,383.9c4.7,2.4,5,6.3,0.6,8.7c-4.4,2.4-11.9,2.4-16.6,0c-4.7-2.4-4.9-6.3-0.4-8.7
	C473.6,381.5,481,381.5,485.6,383.9z"/>
<path class="st4" d="M507.5,395c4.8,2.5,5.2,6.5,0.8,8.9c-4.4,2.5-12,2.5-16.8,0c-4.8-2.5-5.1-6.5-0.6-8.9
	C495.3,392.6,502.7,392.6,507.5,395z"/>
<path class="st4" d="M409.8,345.4c4.3,2.2,4.2,5.7-0.2,8c-4.4,2.2-11.6,2.2-15.9,0c-4.3-2.2-4.1-5.8,0.3-8
	C398.5,343.2,405.5,343.2,409.8,345.4z"/>
<path class="st4" d="M429.8,355.6c4.4,2.2,4.4,5.9,0,8.2c-4.4,2.3-11.7,2.3-16.1,0c-4.4-2.3-4.3-5.9,0.1-8.2
	C418.3,353.3,425.4,353.3,429.8,355.6z"/>
<path class="st4" d="M411.5,339.5l5.9,3l51.5-25.6L411.5,339.5z"/>
<path class="st4" d="M435.3,351.4l50.1-25.4l6,2.9L435.3,351.4z"/>
<path class="st4" d="M488.4,374.4l6.4,3.2l51.3-28L488.4,374.4z"/>
<path class="st4" d="M514.5,387.5l49.9-27.9l6.6,3.1L514.5,387.5z"/>
<path class="st4" d="M85.7,287.8L663.1,65l-2.3-0.7L83.5,286.5L85.7,287.8z"/>
<path class="st5" d="M87.1,271.8l5.4,3.1l55.4-21.1L87.1,271.8z"/>
<path class="st4" d="M208.2,230.8l-5.5-2.7l-46.1,17.4L208.2,230.8z"/>
<path class="st4" d="M442.9,142.2L393.4,161l-8-3.2L442.9,142.2z"/>
<path class="st4" d="M435,141.4l-49.5,18.7l57.5-15.7L435,141.4z"/>
<path class="st4" d="M650.2,64l-9.7-2.8l4.6,4.8L650.2,64z"/>
<path class="st4" d="M634.3,68.3l-24.3,9.2l18.2-11L634.3,68.3z"/>
<path class="st4" d="M561.3,91.8l39.4-14.9l-33.3,16.8L561.3,91.8z"/>
<path class="st4" d="M585,136.8l33.1-13.6l28.8,12.9L624.3,146L585,136.8z"/>
<path class="st5" d="M580,158.7l24.6-2.4l97,19.5l-106.9-5.7L580,158.7z"/>
<path class="st8" d="M675.6,119.2l27,4.1l19.1,14.8l12.4,22.6l-50.3-26.5L675.6,119.2z"/>
<path class="st11" d="M988.9,163.4L427.8,491.7L59.9,276.4L636.4,61L988.9,163.4z"/>
<path class="st11" d="M277.5,384.5l-167.3-95.8L430,164.2L277.5,384.5z"/>
<path class="st11" d="M600.2,230.3L430,164.2L277.5,384.5L600.2,230.3z"/>
<path class="st11" d="M499.6,270.8l-44.5-25.5l85-33.1L499.6,270.8z"/>
<path class="st11" d="M585.4,230.8l-45.2-17.6l-40.5,58.6L585.4,230.8z"/>
<path class="st11" d="M285.1,388.9l48.2,27.6l31.9,4.8l309.5-162l-47.8-18.6l-28.6-3.8L285.1,388.9z"/>
<path class="st11" d="M361.3,432.5l53.2,30.5l34,5.3l307.1-177.6l-51.9-20.2l-30.2-4.1L361.3,432.5z"/>
<path class="st11" d="M572.1,303.6l-48.4,25l-22.3-33.7L572.1,303.6z"/>
<path class="st11" d="M560.3,305.2l-31.7,12.4L512.7,300L560.3,305.2z"/>
<path class="st11" d="M653.9,339.1l-47.9,27.4L579,329.7L653.9,339.1z"/>
<path class="st11" d="M624.4,343l-16.5,17.1l-9.4-21.7L624.4,343z"/>
<path class="st11" d="M625.6,147.9l22.7-9.8"/>
<path class="st11" d="M648.3,138.1l-30.2-13.5l-15.9,6.5"/>
<path class="st11" d="M625.6,147.9l-40.6-9.6l17.2-7.1"/>
<path class="st11" d="M589.1,142.5l-4.1-4.2l40.6,9.6l-21,10.3l-7.4-7.6L589.1,142.5z"/>
<path class="st11" d="M632.5,125.9l-14.4-1.3l30.2,13.5l23.2-8.6l-17.6-1.6L632.5,125.9z"/>
<path class="st11" d="M562.8,131.8l18.1-7.6l21.4,7l-17.2,7.1L562.8,131.8z"/>
<path class="st11" d="M547.9,146.1l14.8-14.4l22.2,6.5L547.9,146.1z"/>
<path class="st11" d="M599.4,117l-18.6,7.1l21.4,7l15.9-6.5L599.4,117z"/>
<path class="st11" d="M634.1,111.2l-34.7,5.8l18.7,7.6L634.1,111.2z"/>
<path class="st11" d="M589.1,142.5l-4.1-4.2l-37.1,7.9l32.1,14.5l24.6-2.4l-7.4-7.6L589.1,142.5z"/>
<path class="st11" d="M632.5,125.9l-14.4-1.3l16-13.4l41.6,9.5l-4.2,8.8l-17.6-1.6L632.5,125.9z"/>
<path class="st11" d="M653.9,127.9l-21.3-2"/>
<path class="st11" d="M664.5,144.2l-20.6,9l-18.4-5.4l22.7-9.8L664.5,144.2z"/>
<path class="st11" d="M643.9,153.2l-20.3,8.9l-19.1-3.9l21-10.3L643.9,153.2z"/>
<path class="st11" d="M664.5,144.2l19.2-8.4l-12.3-6.2l-23.2,8.6L664.5,144.2z"/>
<path class="st11" d="M623.7,162.1l-43.7-1.5l24.6-2.4L623.7,162.1z"/>
<path class="st11" d="M683.7,135.7l-8.1-15l-4.2,8.8L683.7,135.7z"/>
<path class="st11" d="M562.8,131.8l-14.3-4.4l38-15l12.9,4.7l-18.6,7.1L562.8,131.8z"/>
<path class="st11" d="M536.1,140.6l12.4-13.3l14.3,4.4l-14.8,14.4L536.1,140.6z"/>
<path class="st11" d="M541.7,151l6.3-4.9l-11.8-5.5L541.7,151z"/>
<path class="st11" d="M552.7,158.3l-4.7-12.2l-6.3,4.9L552.7,158.3z"/>
<path class="st11" d="M594.6,171.9L580,160.6l11.6,13.6L594.6,171.9z"/>
<path class="st11" d="M639.7,177.1l-45.1-5.1l-3.1,2.2L639.7,177.1z"/>
<path class="st11" d="M552.6,158.3l38.9,15.9L580,160.6l-32.1-14.5L552.6,158.3z"/>
<path class="st11" d="M643.9,153.2l28.7,8.7l18.1-8.2l-26.1-9.5L643.9,153.2z"/>
<path class="st11" d="M623.7,162.1l77.9,15.6l-28.9-15.8l-28.7-8.7L623.7,162.1z"/>
<path class="st11" d="M683.7,135.7l50.3,26.5l-43.3-8.6l-26.1-9.5L683.7,135.7z"/>
<path class="st11" d="M675.6,120.7l27,4.1l4.8-1.3L675.6,120.7z"/>
<path class="st11" d="M721.7,139.7l-19.1-14.9l4.8-1.3L721.7,139.7z"/>
<path class="st11" d="M619.2,107.4l-32.7,5l12.9,4.7l34.7-5.8L619.2,107.4z"/>
<path class="st11" d="M645.4,108.5l-11.4,2.6l-14.9-3.8L645.4,108.5z"/>
<path class="st11" d="M663.2,111.6l-29.1-0.4l11.4-2.6L663.2,111.6z"/>
<path class="st11" d="M707.4,123.5l-44.2-11.9l-29.1-0.4l41.6,9.5L707.4,123.5z"/>
<path class="st11" d="M701.5,177.7l17.7-7.2l14.8-8.2l-43.3-8.6l-18.1,8.2L701.5,177.7z"/>
<path class="st11" d="M772,196.4l-19.1-14.8l38.6,4.8L772,196.4z"/>
<path class="st11" d="M734,162.3l57.4,24.1l-38.6-4.8l-33.6-11L734,162.3z"/>
<path class="st11" d="M701.5,177.7l70.4,18.7l-19.1-14.8l-33.6-11L701.5,177.7z"/>
<path class="st11" d="M794,181.9l-27.6-6l24.9,10.5L794,181.9z"/>
<path class="st11" d="M762.2,198.3l-19-9.6l28.8,7.6L762.2,198.3z"/>
<path class="st11" d="M722.3,199.1l-20.8-21.4l41.6,11l19,9.6L722.3,199.1z"/>
<path class="st11" d="M660.8,192.2l40.7-14.5l20.8,21.4L660.8,192.2z"/>
<path class="st11" d="M591.6,174.2l48.1,2.9l61.8,0.6l-40.7,14.5L591.6,174.2z"/>
<path class="st11" d="M787,166.9l-53-4.7l32.5,13.6l27.6,6L787,166.9z"/>
<path class="st11" d="M759.5,145.7L734,162.3l53,4.7L759.5,145.7z"/>
<path class="st11" d="M707.4,123.5l14.3,16.2l12.3,22.6l25.5-16.6L707.4,123.5z"/>
<path class="st11" d="M681.4,78.2l-26-1.6l-219.8,85.6l297.1,114.6l37.2,5.6L974.5,164L681.4,78.2z"/>
<path class="st11" d="M881.9,197.4l-55,30.9l-18.8-6.5L881.9,197.4z"/>
<path class="st11" d="M863.2,191.6l-55.1,30.2l73.8-24.4L863.2,191.6z"/>
<path class="st11" d="M373.6,375.6c9.8,5.2,9.3,13.8-1.2,19.1c-10.7,5.4-27.4,5.4-37.1,0c-9.6-5.4-8.6-13.9,2-19.1
	C347.8,370.5,363.9,370.5,373.6,375.6z"/>
<path class="st11" d="M453.4,418.1c10.8,5.7,11.1,15.2,0.6,21.1c-10.7,6-28.3,6-39,0c-10.6-5.9-10.4-15.4,0.3-21.1
	C425.8,412.5,442.8,412.5,453.4,418.1z"/>
<path class="st11" d="M485.6,391.4c4.7,2.4,5,6.3,0.6,8.7c-4.4,2.4-11.9,2.4-16.6,0c-4.7-2.4-4.9-6.3-0.4-8.7
	C473.6,389,481,389,485.6,391.4z"/>
<path class="st11" d="M507.5,402.5c4.8,2.5,5.2,6.5,0.8,8.9c-4.4,2.5-12,2.5-16.8,0c-4.8-2.5-5.1-6.5-0.6-8.9
	C495.3,400,502.7,400,507.5,402.5z"/>
<path class="st11" d="M409.8,352.9c4.3,2.2,4.2,5.7-0.2,8c-4.4,2.2-11.6,2.2-15.9,0c-4.3-2.2-4.1-5.8,0.3-8
	C398.5,350.7,405.5,350.7,409.8,352.9z"/>
<path class="st11" d="M429.8,363c4.4,2.2,4.4,5.9,0,8.2c-4.4,2.3-11.7,2.3-16.1,0c-4.4-2.3-4.3-5.9,0.1-8.2
	C418.3,360.8,425.4,360.8,429.8,363z"/>
<path class="st11" d="M411.5,346.9l5.9,3l51.5-25.6L411.5,346.9z"/>
<path class="st11" d="M435.3,358.9l50.1-25.4l6,2.9L435.3,358.9z"/>
<path class="st11" d="M488.4,385.6l6.4,3.2l51.3-28L488.4,385.6z"/>
<path class="st11" d="M514.5,398.7l49.9-27.9l6.6,3.1L514.5,398.7z"/>
<path class="st11" d="M85.7,291.6L663.1,68.7l-2.3-0.7L83.5,290.2L85.7,291.6z"/>
<path class="st11" d="M87.1,275.5l5.4,3.1l55.4-21.1L87.1,275.5z"/>
<path class="st11" d="M208.2,234.5l-5.5-2.7l-46.1,17.4L208.2,234.5z"/>
<path class="st11" d="M442.9,145.9l-49.5,18.9l-8-3.2L442.9,145.9z"/>
<path class="st11" d="M435,142.9l-49.5,18.7l57.5-15.7L435,142.9z"/>
<path class="st11" d="M650.2,67.8l-9.7-2.8l4.6,4.8L650.2,67.8z"/>
<path class="st11" d="M634.3,72l-24.3,9.2l18.2-11L634.3,72z"/>
<path class="st11" d="M561.3,95.5l39.4-14.9l-33.3,16.8L561.3,95.5z"/>
<path class="st12" d="M515.4,149.5V73l-35-35h-47.5"/>
<path class="st12" d="M219.4,323.5v56l-22,22v32"/>
<path class="st12" d="M665.4,324.5v67l-26,26h-39"/>
</svg>
