<?xml version="1.0" encoding="utf-8"?>
<!-- Generator: Adobe Illustrator 24.3.0, SVG Export Plug-In . SVG Version: 6.00 Build 0)  -->
<svg version="1.1" id="Layer_1" xmlns="http://www.w3.org/2000/svg" xmlns:xlink="http://www.w3.org/1999/xlink" x="0px" y="0px"
	 viewBox="0 0 153.2 32" style="enable-background:new 0 0 153.2 32;" xml:space="preserve">
<style type="text/css">
	.st0{fill:#FFFFFF;}
</style>
<g>
	<polygon class="st0" points="12.5,6 6.5,15 2,15 2,10.3 7.5,2 25,2 25,0 6.5,0 0,9.7 0,17 7.5,17 13.5,8 18.5,8 24,16.3 24,21.7 
		18.5,30 7.5,30 1.8,21.4 0.2,22.6 6.5,32 19.5,32 26,22.3 26,15.7 19.5,6 	"/>
	<polygon class="st0" points="31.9,9.9 34.9,16 32,21.8 32,32 57,32 57,30 34,30 34,22.2 36.7,17 50.7,17 50.7,15 36.7,15 
		34.2,10.1 39.6,2 57,2 57,0 38.5,0 	"/>
	<polygon class="st0" points="108.6,6 102.6,15 98.1,15 98.1,10.3 103.7,2 121.1,2 121.1,0 102.6,0 96.1,9.7 96.1,17 103.7,17 
		109.7,8 114.6,8 120.1,16.3 120.1,21.7 114.6,30 103.7,30 98,21.4 96.3,22.6 102.6,32 115.7,32 122.1,22.3 122.1,15.7 115.7,6 	"/>
	<polygon class="st0" points="153.2,2 153.2,0 134.6,0 128,9.9 131.1,16 128.2,21.8 128.2,32 153.2,32 153.2,30 130.2,30 
		130.2,22.2 132.8,17 146.8,17 146.8,15 132.8,15 130.3,10.1 135.7,2 	"/>
	<polygon class="st0" points="87.1,30 82.6,30 77.1,21.7 77.1,15.7 71.1,6.7 71.1,0 63.1,0 63.1,32 65.1,32 65.1,2 69.1,2 69.1,7.3 
		75.1,16.3 75.1,22.3 81.6,32 89.1,32 89.1,0 87.1,0 	"/>
</g>
</svg>
