<svg id="Layer_1" data-name="Layer 1" xmlns="http://www.w3.org/2000/svg" viewBox="0 0 403.65 67.06"><defs><style>.cls-1{fill:#fff;}</style></defs><path class="cls-1" d="M0,53.72l7-8.31L16.1,56.5H55.7l3.83-4.62v-7.4l-4.22-5.14h-43L2.64,27.85V12.67L13.73,1.06H58.21L70,15.05l-6.73,8.18L53.46,11.62H18.74l-5.41,5V24l3.83,4.76h43l9.9,11.74V55.84L60.46,67.06H11.09Z"/><path class="cls-1" d="M79.86,48.84V35.51q0-18.09,9.5-26.8t28-8.71q18.48,0,28,8.38t9.51,24.75v5.68H90.42v5.94l10,11.75H134l10-11.88,6.87,8.31-12,14.13H95.44Zm63.76-20.72q0-8.58-6.67-13.07t-19.6-4.49q-12.81,0-19.54,4.49T91.08,28.12Z"/><path class="cls-1" d="M166.71,1.06h10.56v10l7.53-10h33.92l18.22,21.38V67.06H226.38V26.4L213.57,11.48H190L177.27,26.4V67.06H166.71Z"/><path class="cls-1" d="M248.82,53.72l7-8.31,9.11,11.09h39.6l3.83-4.62v-7.4l-4.23-5.14h-43l-9.63-11.49V12.67L262.54,1.06H307l11.75,14L312,23.23l-9.76-11.61H267.56l-5.41,5V24L266,28.78h43l9.9,11.74V55.84l-9.64,11.22H259.91Z"/><path class="cls-1" d="M328.68,48.84V35.51q0-18.09,9.5-26.8t28-8.71q18.48,0,28,8.38t9.5,24.75v5.68H339.24v5.94l10,11.75H382.8l10-11.88,6.86,8.31-12,14.13H344.25Zm63.75-20.72q0-8.58-6.66-13.07t-19.61-4.49q-12.8,0-19.53,4.49T339.9,28.12Z"/></svg>