<?xml version="1.0" encoding="utf-8"?>
<!-- Generator: Adobe Illustrator 24.3.0, SVG Export Plug-In . SVG Version: 6.00 Build 0)  -->
<svg version="1.1" id="Layer_1" xmlns="http://www.w3.org/2000/svg" xmlns:xlink="http://www.w3.org/1999/xlink" x="0px" y="0px"
	 viewBox="0 0 793.8 149.2" style="enable-background:new 0 0 793.8 149.2;" xml:space="preserve">
<style type="text/css">
	.st0{fill:#0064FB;}
</style>
<g>
	<path class="st0" d="M88.8,36.8c-8.6-7.6-21.2-11.5-37.9-11.5c-15.6,0-27.5,3.8-35.4,11.4c-0.5,0.5-1,1-1.5,1.5V26.7H0v122.5h14
		v-46.5c0.5,0.5,1,1,1.5,1.5c8,7.6,19.8,11.4,35.4,11.4c16.7,0,29.3-3.8,37.9-11.5c8.6-7.6,12.9-18.9,12.9-33.7S97.4,44.4,88.8,36.8
		z M78.3,93.7c-6.2,5.3-15.4,8-27.4,8c-12.1,0-21.3-2.7-27.6-8S14,80.7,14,70.5c0-10.1,3.1-17.9,9.4-23.2s15.4-8,27.6-8
		c12,0,21.2,2.6,27.4,8s9.4,13,9.4,23.2C87.7,80.7,84.5,88.4,78.3,93.7z"/>
	<path class="st0" d="M215.1,95.5l-9.1-11l-13.3,15.8h-44.5l-13.3-15.6v-7.9h85.4v-7.5c0-14.5-4.2-25.4-12.6-32.8
		c-8.4-7.4-20.8-11.1-37.1-11.1s-28.7,3.8-37.1,11.5c-8.4,7.7-12.6,19.5-12.6,35.5v17.7l20.7,24.2h57.6L215.1,95.5z M144.7,45.3
		c5.9-4,14.6-6,25.9-6c11.4,0,20.1,2,26,6c5.9,4,8.8,9.8,8.8,17.3h-69.7C135.8,55,138.8,49.3,144.7,45.3z"/>
	<polygon class="st0" points="258.8,60.2 275.5,40.7 300.1,40.7 315.2,58.2 324.3,47.4 306.8,26.7 268.8,26.7 258.8,40 258.8,26.7 
		244.8,26.7 244.8,114.2 258.8,114.2 	"/>
	<polygon class="st0" points="413.9,100.2 361.4,100.2 349.3,85.5 340,96.6 354.7,114.3 420.2,114.3 433,99.4 433,79.1 419.8,63.5 
		362.8,63.5 357.7,57.2 357.7,47.4 364.9,40.8 410.9,40.8 423.9,56.2 432.8,45.3 417.2,26.8 358.2,26.8 343.5,42.2 343.5,62.3 
		356.3,77.5 413.4,77.5 419,84.3 419,94.1 	"/>
	<path class="st0" d="M557.2,70.3c0-14.8-4.4-26-13.2-33.7S522.2,25.2,505,25.2c-17,0-30,3.8-38.8,11.5
		c-8.9,7.6-13.3,18.9-13.3,33.7c0,14.9,4.4,26.2,13.3,33.9c8.9,7.6,21.8,11.5,38.8,11.5c17.2,0,30.1-3.8,38.9-11.5
		C552.8,96.5,557.2,85.3,557.2,70.3z M533.5,93.7c-6.5,5.3-16,8-28.4,8c-12.4,0-21.8-2.7-28.3-8c-6.5-5.3-9.8-13.1-9.8-23.4
		c0-10.2,3.3-17.9,9.8-23.2c6.5-5.3,16-8,28.3-8c12.5,0,22,2.7,28.4,8c6.5,5.3,9.7,13,9.7,23.2C543.2,80.6,539.9,88.4,533.5,93.7z"
		/>
	<polygon class="st0" points="595.7,60.3 612.5,40.6 643.8,40.6 660.8,60.3 660.8,114.2 674.8,114.2 674.8,55.1 650.6,26.7 
		605.7,26.7 595.7,40 595.7,26.7 581.7,26.7 581.7,114.2 595.7,114.2 	"/>
	<path class="st0" d="M779.8,108.3v5.9h14V51.1l-20.7-24.3h-54.6l-18.4,20.8l9.3,11.2l15.9-18.2h41l13.5,15.6h0v13.1
		c-0.3-0.2-0.5-0.3-0.8-0.5c-7.5-4.4-18.6-6.7-33.3-6.7c-15.9,0-27.9,2.2-36,6.7s-12.2,10.9-12.2,19.4c0,9.1,4,16,12.2,20.7
		c8.1,4.7,20.1,7,36,7c14.7,0,25.8-2.3,33.3-7C779.3,108.7,779.5,108.5,779.8,108.3z M771.1,98.4c-5.8,2.3-14.3,3.4-25.5,3.4
		c-11.2,0-19.7-1.1-25.5-3.4c-5.8-2.3-8.7-5.7-8.7-10.2c0-4.4,2.9-7.8,8.7-10.1c5.8-2.3,14.3-3.4,25.5-3.4c11.2,0,19.7,1.1,25.5,3.4
		c5.8,2.3,8.7,5.6,8.7,10.1C779.8,92.7,776.9,96.1,771.1,98.4z"/>
</g>
</svg>
