<?xml version="1.0" encoding="utf-8"?>
<!-- Generator: Adobe Illustrator 24.3.0, SVG Export Plug-In . SVG Version: 6.00 Build 0)  -->
<svg version="1.1" id="Layer_1" xmlns="http://www.w3.org/2000/svg" xmlns:xlink="http://www.w3.org/1999/xlink" x="0px" y="0px"
	 viewBox="0 0 801.6 183.9" style="enable-background:new 0 0 801.6 183.9;" xml:space="preserve">
<style type="text/css">
	.st0{fill:#FFFFFF;}
</style>
<g>
	<path class="st0" d="M126.5,139.5c-5.8,0-9.9,2.6-12,7.3v-6.3h-3.7v43.4h3.7v-18.7c2.1,4.6,6.2,7.3,12,7.3
		c9.4,0,13.9-6.6,13.9-16.5C140.4,146.2,136,139.5,126.5,139.5z M125.9,169.4c-6.6,0-11.3-4-11.3-13.5s4.6-13.3,11.3-13.3
		c7.1,0,10.7,4.3,10.7,13.4C136.6,165,133,169.4,125.9,169.4z"/>
	<path class="st0" d="M165,139.5c-10.1,0-15.2,6.9-15.2,16.4c0,9.6,5.1,16.6,15.2,16.5c10.2,0,15.3-7,15.3-16.5
		C180.3,146.5,175.2,139.5,165,139.5z M165,169.4c-7.3,0-11.3-4.2-11.3-13.5c0-9.2,4-13.3,11.3-13.3s11.4,4.2,11.4,13.3
		C176.5,165.1,172.4,169.4,165,169.4z"/>
	<polygon class="st0" points="226.1,168.6 215.5,140.5 211.5,140.5 200.9,168.6 192.4,140.5 188.5,140.5 198,171.5 203.4,171.5 
		213.5,144.8 223.5,171.5 228.8,171.5 238.5,140.5 234.7,140.5 	"/>
	<path class="st0" d="M261.8,169.5c-7,0-11.4-3.9-11.5-13.1h25.4c0.1-0.6,0.1-1.2,0.1-1.9c0-9.3-5.3-15.1-14.1-15.1
		c-10,0-15.1,6.9-15.1,16.4c0,9.6,4.8,16.5,15.1,16.5c9.5,0,13.4-5.6,14.1-10.7h-3.5C271.5,166.3,268.4,169.5,261.8,169.5z
		 M261.7,142.4c6,0,10.2,3.1,10.3,11h-21.6C251.1,145.8,255.2,142.5,261.7,142.4z"/>
	<path class="st0" d="M290.3,149.7v-9.2h-3.7v31h3.7v-11c0-8.9,1.9-17.1,12-16.6l1.1,0.1v-3.7h-1.3
		C296,140.2,292.2,143.6,290.3,149.7z"/>
	<path class="st0" d="M326.8,169.5c-7,0-11.4-3.9-11.5-13.1h25.4c0.1-0.6,0.1-1.2,0.1-1.9c0-9.3-5.3-15.1-14.1-15.1
		c-10,0-15.1,6.9-15.1,16.4c0,9.6,4.8,16.5,15.1,16.5c9.5,0,13.4-5.6,14.1-10.7h-3.5C336.5,166.3,333.4,169.5,326.8,169.5z
		 M326.7,142.4c6,0,10.2,3.1,10.3,11h-21.6C316.1,145.8,320.2,142.5,326.7,142.4z"/>
	<path class="st0" d="M376,146.7c-2.1-4.6-6.2-7.3-12-7.3c-9.4,0-13.9,6.6-13.9,16.5c0,9.9,4.5,16.5,13.9,16.5c5.8,0,9.9-2.6,12-7.3
		v6.3h3.7v-43.4H376V146.7z M364.7,169.3c-7.1,0-10.7-4.3-10.7-13.4c0-9,3.6-13.4,10.7-13.4c6.6,0,11.3,4,11.3,13.5
		C376,165.5,371.3,169.3,364.7,169.3z"/>
	<path class="st0" d="M423.6,139.4c-5.8,0-9.9,2.7-12,7.3v-18.7h-3.7v43.4h3.7v-6.3c2.1,4.6,6.2,7.3,12,7.3
		c9.4,0,13.9-6.6,13.9-16.5C437.5,146,433,139.4,423.6,139.4z M422.9,169.3c-6.6,0-11.3-3.8-11.3-13.3c0-9.5,4.7-13.5,11.3-13.5
		c7.1,0,10.7,4.4,10.7,13.4C433.6,165,430,169.3,422.9,169.3z"/>
	<path class="st0" d="M461.8,166.1l-0.7,2.2l-0.8-2.2l-10.7-25.7h-3.9l12.8,31h1.2l-3.9,9.4h-7.9v3h6.4c3.7,0,4.5-1.5,5.8-4.8
		l16.2-38.6v0h-3.7L461.8,166.1z"/>
	<polygon class="st0" points="526.3,146 523.8,142.8 523.8,137.9 527.4,134.5 550.5,134.5 557,142.3 561.5,136.8 553.7,127.5 
		524,127.5 516.6,135.2 516.6,145.3 523.1,153 551.8,153 554.6,156.4 554.6,161.4 552,164.4 525.6,164.4 519.5,157 514.9,162.6 
		522.3,171.5 555.2,171.5 561.6,164 561.6,153.8 555,146 	"/>
	<path class="st0" d="M616.2,132.4c-4.2-3.7-10.4-5.6-18.7-5.6c-8.2,0-14.4,1.9-18.7,5.8s-6.3,9.8-6.3,17.9v8.9l10.4,12.1h29l8-9.4
		l-4.6-5.5l-6.7,7.9h-22.3l-6.7-7.8v-4h42.9v-3.8C622.5,141.6,620.4,136.1,616.2,132.4z M580,145.5c0-3.8,1.5-6.7,4.5-8.7
		s7.3-3,13-3c5.8,0,10.1,1,13.1,3s4.4,4.9,4.4,8.7H580z"/>
	<polygon class="st0" points="646.9,127.5 641.9,134.2 641.9,127.5 634.8,127.5 634.8,171.5 641.9,171.5 641.9,144.4 650.3,134.4 
		666.1,134.4 674.6,144.4 674.6,171.5 681.6,171.5 681.6,141.7 669.5,127.5 	"/>
	<polygon class="st0" points="705.4,146 702.8,142.8 702.8,137.9 706.5,134.5 729.6,134.5 736.1,142.3 740.6,136.8 732.8,127.5 
		703.1,127.5 695.7,135.2 695.7,145.3 702.1,153 730.8,153 733.6,156.4 733.6,161.4 731.1,164.4 704.7,164.4 698.6,157 694,162.6 
		701.4,171.5 734.3,171.5 740.7,164 740.7,153.8 734.1,146 	"/>
	<path class="st0" d="M801.6,152.6v-3.8c0-7.3-2.1-12.8-6.3-16.5c-4.2-3.7-10.5-5.6-18.7-5.6c-8.2,0-14.4,1.9-18.7,5.8
		s-6.3,9.8-6.3,17.9v8.9l10.4,12.1H791l8-9.4l-4.6-5.5l-6.7,7.9h-22.3l-6.7-7.8v-4H801.6z M763.6,136.8c3-2,7.3-3,13-3
		c5.8,0,10.1,1,13.1,3s4.4,4.9,4.4,8.7h-35C759.1,141.7,760.6,138.8,763.6,136.8z"/>
	<path class="st0" d="M88.8,11.6C80.2,4,67.6,0.2,50.9,0.2c-15.6,0-27.5,3.8-35.4,11.4c-0.5,0.5-1,1-1.5,1.5V1.6H0v122.5h14V77.6
		c0.5,0.5,1,1,1.5,1.5c8,7.6,19.8,11.4,35.4,11.4c16.7,0,29.3-3.8,37.9-11.5c8.6-7.6,12.9-18.9,12.9-33.7S97.4,19.3,88.8,11.6z
		 M78.3,68.5c-6.2,5.3-15.4,8-27.4,8c-12.1,0-21.3-2.7-27.6-8S14,55.5,14,45.3c0-10.1,3.1-17.9,9.4-23.2s15.4-8,27.6-8
		c12,0,21.2,2.6,27.4,8s9.4,13,9.4,23.2C87.7,55.5,84.5,63.2,78.3,68.5z"/>
	<path class="st0" d="M215.1,70.3l-9.1-11l-13.3,15.8h-44.5l-13.3-15.6v-7.9h85.4v-7.5c0-14.5-4.2-25.4-12.6-32.8
		C199.3,3.9,187,0.2,170.6,0.2S141.9,4,133.5,11.7c-8.4,7.7-12.6,19.5-12.6,35.5v17.7l20.7,24.2h57.6L215.1,70.3z M144.7,20.1
		c5.9-4,14.6-6,25.9-6c11.4,0,20.1,2,26,6c5.9,4,8.8,9.8,8.8,17.3h-69.7C135.8,29.9,138.8,24.1,144.7,20.1z"/>
	<polygon class="st0" points="258.8,35 275.5,15.6 300.1,15.6 315.2,33.1 324.3,22.2 306.8,1.6 268.8,1.6 258.8,14.9 258.8,1.6 
		244.8,1.6 244.8,89.1 258.8,89.1 	"/>
	<polygon class="st0" points="413.9,75.1 361.4,75.1 349.3,60.4 340,71.4 354.7,89.1 420.2,89.1 433,74.2 433,53.9 419.8,38.3 
		362.8,38.3 357.7,32 357.7,22.2 364.9,15.6 410.9,15.6 423.9,31 432.8,20.1 417.2,1.6 358.2,1.6 343.5,17 343.5,37.1 356.3,52.3 
		413.4,52.3 419,59.2 419,68.9 	"/>
	<path class="st0" d="M557.2,45.2c0-14.8-4.4-26-13.2-33.7S522.2,0,505,0c-17,0-30,3.8-38.8,11.5c-8.9,7.6-13.3,18.9-13.3,33.7
		c0,14.9,4.4,26.2,13.3,33.9C475,86.7,488,90.5,505,90.5c17.2,0,30.1-3.8,38.9-11.5C552.8,71.4,557.2,60.1,557.2,45.2z M533.5,68.5
		c-6.5,5.3-16,8-28.4,8c-12.4,0-21.8-2.7-28.3-8c-6.5-5.3-9.8-13.1-9.8-23.4c0-10.2,3.3-17.9,9.8-23.2c6.5-5.3,16-8,28.3-8
		c12.5,0,22,2.7,28.4,8c6.5,5.3,9.7,13,9.7,23.2C543.2,55.4,539.9,63.2,533.5,68.5z"/>
	<polygon class="st0" points="595.7,35.2 612.5,15.4 643.8,15.4 660.8,35.2 660.8,89.1 674.8,89.1 674.8,29.9 650.6,1.6 605.7,1.6 
		595.7,14.9 595.7,1.6 581.7,1.6 581.7,89.1 595.7,89.1 	"/>
	<path class="st0" d="M779.8,83.1v5.9h14V25.9L773.2,1.6h-54.6l-18.4,20.8l9.3,11.2l15.9-18.2h41L779.8,31h0v13.1
		c-0.3-0.2-0.5-0.3-0.8-0.5c-7.5-4.4-18.6-6.7-33.3-6.7c-15.9,0-27.9,2.2-36,6.7S697.5,54.5,697.5,63c0,9.1,4,16,12.2,20.7
		c8.1,4.7,20.1,7,36,7c14.7,0,25.8-2.3,33.3-7C779.3,83.5,779.5,83.3,779.8,83.1z M771.1,73.2c-5.8,2.3-14.3,3.4-25.5,3.4
		c-11.2,0-19.7-1.1-25.5-3.4c-5.8-2.3-8.7-5.7-8.7-10.2c0-4.4,2.9-7.8,8.7-10.1c5.8-2.3,14.3-3.4,25.5-3.4c11.2,0,19.7,1.1,25.5,3.4
		c5.8,2.3,8.7,5.6,8.7,10.1C779.8,67.5,776.9,71,771.1,73.2z"/>
</g>
</svg>
