<?xml version="1.0" encoding="utf-8"?>
<!-- Generator: Adobe Illustrator 24.3.0, SVG Export Plug-In . SVG Version: 6.00 Build 0)  -->
<svg version="1.1" id="Layer_1" xmlns="http://www.w3.org/2000/svg" xmlns:xlink="http://www.w3.org/1999/xlink" x="0px" y="0px"
	 viewBox="0 0 288.4 62" style="enable-background:new 0 0 288.4 62;" xml:space="preserve">
<style type="text/css">
	.st0{fill:#313132;}
</style>
<g>
	<path class="st0" d="M59.7,19l4.5,8.9c0.9,2,0.9,4.2,0,6.2l-4.3,8.7V62h49.5v-2H64.8c-1.7,0-3-1.3-3-3v-6c0.2-5,1.4-9.9,3.4-14.5
		l1.1-2.2c0.7-1.4,2.1-2.2,3.6-2.2h27.4v-2H69.9c-1.5,0-2.9-0.9-3.6-2.2l-1-2c-1.8-4.2-1.5-9,0.8-12.9l3.1-4.7c2.7-3.7,7-6,11.6-6.2
		h28.5V0h-37L59.7,19z"/>
	<path class="st0" d="M45.1,24l0.4-0.3L37.6,12h-13l-7.8,11.7c-2.3,3.4-6.7,6.2-9.6,6.2c-1.3,0-2.6-0.5-3.6-1.5
		c-0.9-0.9-1.4-2.1-1.4-3.4c0-3.1,1.9-8.4,4.3-12l3.1-4.8c2.8-3.7,7-5.9,11.6-6.1h28.5v-2h-37L0.1,18.9v13h13.5l7.8-11.7
		c2.3-3.4,6.7-6.2,9.6-6.2s7.3,2.8,9.6,6.1l3.2,4.8C46.1,28.4,48,33.8,48,37s-1.9,8.5-4.2,12.1l-3.2,4.8c-2.8,3.6-7,5.9-11.6,6.1
		h-7.7c-4.6-0.3-8.8-2.5-11.6-6.1l-8.1-12L0,43.1l12.9,18.8L37.7,62l12.5-18.6V30.6l-4.6-6.9L45.1,24z"/>
	<path class="st0" d="M248.3,8.2c2.7-3.7,7-6,11.6-6.2h28.5V0h-37l-12.6,19l4.4,8.9c1,2,1,4.2,0,6.2l-4.3,8.7l0,19.2h49.5v-2h-44.5
		c-0.8,0-1.5-0.3-2.1-0.9c-0.5-0.6-0.9-1.3-0.9-2.1v-6c0.2-5.1,1.4-10,3.4-14.6l1-2.1c0.7-1.4,2.1-2.2,3.6-2.2h27.4v-2H249
		c-1.5,0-2.9-0.9-3.6-2.2l-1-2c-1.8-4.2-1.5-8.9,0.8-12.8L248.3,8.2z"/>
	<path class="st0" d="M224.2,24l0.4-0.3L216.7,12h-13.1l-7.9,11.7c-2.3,3.4-6.7,6.2-9.6,6.2c-1.3,0-2.6-0.5-3.6-1.5
		c-0.9-0.9-1.4-2.1-1.4-3.4c0-3,1.9-8.3,4.2-11.9l3.3-4.9c2.8-3.6,7-5.9,11.6-6.1h28.5v-2h-37l-12.5,18.7v13h13.5l7.9-11.7
		c2.3-3.3,6.6-6.1,9.6-6.1s7.4,2.8,9.6,6.2l3.1,4.7c2.3,3.5,4.3,8.9,4.3,12.1s-1.9,8.5-4.3,12.1l-3.1,4.6c-2.8,3.7-7,5.9-11.6,6.2
		h-7.8c-4.6-0.3-8.8-2.5-11.6-6.1L180.7,42l-1.6,1.1L192,61.9l24.8,0.1l7.9-11.8l4.6-6.8V30.6l-4.6-6.9L224.2,24z"/>
	<path class="st0" d="M167.5,56c0,2.2-1.8,4-4,4c-3.6,0-8.3-2.8-10.6-6.2l-3.1-4.7c-2.3-3.5-4.3-9-4.3-12.1v-6.4l-7.7-11.5
		c-2.4-3.5-4.3-9.4-4.3-13.1V0h-14v61.5h2V6c0-2.2,1.8-4,4-4h2c2.2,0,4,1.8,4,4v7.3l7.7,11.6c2.4,3.5,4.3,9,4.3,12.1v6.3L156,62
		h13.5V0.5h-2V56z"/>
</g>
</svg>
