<svg id="Layer_1" data-name="Layer 1" xmlns="http://www.w3.org/2000/svg" viewBox="0 0 288.41 62">
  <defs>
    <style>
      .cls-1 {
        fill: #0064fb;
      }
    </style>
  </defs>
  <g>
    <path class="cls-1" d="M59.7,19l4.45,8.93a7.06,7.06,0,0,1,0,6.18l-4.31,8.72V62h49.5V60H64.8a3,3,0,0,1-3-3V51a40.11,40.11,0,0,1,3.41-14.54l1.08-2.2A4,4,0,0,1,69.88,32H97.3V30H69.9a4,4,0,0,1-3.58-2.22l-1-2a14.23,14.23,0,0,1,.78-12.87l3.12-4.72A15.53,15.53,0,0,1,80.8,2h28.5V0h-37Z" transform="translate(0 0)"/>
    <path class="cls-1" d="M45.08,24l.42-.28L37.65,12H24.58l-7.84,11.7c-2.26,3.36-6.67,6.21-9.62,6.22a5.24,5.24,0,0,1-3.59-1.47A4.71,4.71,0,0,1,2.11,25C2.11,22,4,16.61,6.37,13L9.52,8.29A15.56,15.56,0,0,1,21.11,2.14h28.5v-2h-37L.11,18.88v13H13.65l7.84-11.74c2.25-3.36,6.66-6.2,9.62-6.2s7.32,2.81,9.57,6.13l3.19,4.77c2.34,3.53,4.24,8.94,4.24,12.07S46.21,45.45,43.87,49l-3.18,4.76a15.65,15.65,0,0,1-11.58,6.13H21.37A16,16,0,0,1,9.74,53.73L1.65,41.92,0,43.05,12.87,61.83l24.77.07L50.11,43.26V30.6l-4.6-6.88Z" transform="translate(0 0)"/>
    <path class="cls-1" d="M248.3,8.22A15.49,15.49,0,0,1,259.88,2h28.5V0h-37L238.8,19l4.45,8.92a7,7,0,0,1,0,6.2L239,42.82,238.9,62h49.51V60H243.89a3,3,0,0,1-3-2.94V51a39.86,39.86,0,0,1,3.45-14.64l1-2.1A4,4,0,0,1,249,32h27.39V30H249a4,4,0,0,1-3.58-2.22l-1-2a14.25,14.25,0,0,1,.8-12.82Z" transform="translate(0 0)"/>
    <path class="cls-1" d="M224.15,24l.43-.27L216.72,12H203.65l-7.85,11.7c-2.25,3.36-6.66,6.21-9.65,6.22a5,5,0,0,1-3.56-1.47A4.74,4.74,0,0,1,181.18,25c0-3,1.88-8.34,4.19-11.87l3.25-4.9a15.61,15.61,0,0,1,11.57-6.13h28.5v-2h-37l-12.5,18.74v13h13.53l7.89-11.74c2.26-3.33,6.65-6.13,9.58-6.13s7.36,2.84,9.61,6.2l3.14,4.7c2.34,3.53,4.25,8.94,4.25,12.07s-1.91,8.54-4.25,12.06l-3.14,4.65a15.62,15.62,0,0,1-11.61,6.19h-7.75a16,16,0,0,1-11.64-6.14l-8.09-11.82-1.65,1.13,12.86,18.78,24.78.07,7.91-11.76,4.58-6.85V30.6l-4.59-6.85Z" transform="translate(0 0)"/>
    <path class="cls-1" d="M167.49,56a4,4,0,0,1-4,4c-3.56,0-8.32-2.79-10.6-6.21l-3.09-4.65c-2.34-3.53-4.26-9-4.26-12.11V30.66L137.8,19.14c-2.36-3.53-4.28-9.41-4.28-13.1V0h-14v61.5h2V6a4,4,0,0,1,4-4h2a4,4,0,0,1,4,4v7.3l7.73,11.56c2.36,3.53,4.27,9,4.27,12.12V43.3L156,62h13.53V.5h-2Z" transform="translate(0 0)"/>
  </g>
</svg>
